MulatAhmed-Regular.ufo
<glyph name="exclam" format="2">
  <advance width="231"/>
  <unicode hex="0021"/>
  <note>
exclam
</note>
  <outline>
    <contour>
      <point x="115" y="183" type="curve" smooth="yes"/>
      <point x="116" y="183" type="line" smooth="yes"/>
      <point x="129" y="183"/>
      <point x="138" y="192"/>
      <point x="139" y="205" type="curve" smooth="yes"/>
      <point x="162" y="689" type="line" smooth="yes"/>
      <point x="163" y="704"/>
      <point x="152" y="714"/>
      <point x="138" y="714" type="curve" smooth="yes"/>
      <point x="93" y="714" type="line" smooth="yes"/>
      <point x="79" y="714"/>
      <point x="68" y="704"/>
      <point x="69" y="689" type="curve" smooth="yes"/>
      <point x="92" y="205" type="line" smooth="yes"/>
      <point x="93" y="192"/>
      <point x="102" y="183"/>
    </contour>
    <contour>
      <point x="83" y="0" type="curve" smooth="yes"/>
      <point x="148" y="0" type="line" smooth="yes"/>
      <point x="161" y="0"/>
      <point x="171" y="10"/>
      <point x="171" y="23" type="curve" smooth="yes"/>
      <point x="171" y="88" type="line" smooth="yes"/>
      <point x="171" y="101"/>
      <point x="161" y="111"/>
      <point x="148" y="111" type="curve" smooth="yes"/>
      <point x="83" y="111" type="line" smooth="yes"/>
      <point x="70" y="111"/>
      <point x="60" y="101"/>
      <point x="60" y="88" type="curve" smooth="yes"/>
      <point x="60" y="23" type="line" smooth="yes"/>
      <point x="60" y="10"/>
      <point x="70" y="0"/>
    </contour>
  </outline>
</glyph>
<glyph name="quotedbl" format="2">
  <advance width="322"/>
  <unicode hex="0022"/>
  <outline>
    <contour>
      <point x="214" y="452" type="curve" smooth="yes"/>
      <point x="238" y="452" type="line" smooth="yes"/>
      <point x="252" y="452"/>
      <point x="262" y="462"/>
      <point x="262" y="476" type="curve" smooth="yes"/>
      <point x="262" y="676" type="line" smooth="yes"/>
      <point x="262" y="690"/>
      <point x="252" y="700"/>
      <point x="238" y="700" type="curve" smooth="yes"/>
      <point x="214" y="700" type="line" smooth="yes"/>
      <point x="200" y="700"/>
      <point x="190" y="690"/>
      <point x="190" y="676" type="curve" smooth="yes"/>
      <point x="190" y="476" type="line" smooth="yes"/>
      <point x="190" y="462"/>
      <point x="200" y="452"/>
    </contour>
    <contour>
      <point x="84" y="452" type="curve" smooth="yes"/>
      <point x="108" y="452" type="line" smooth="yes"/>
      <point x="122" y="452"/>
      <point x="132" y="462"/>
      <point x="132" y="476" type="curve" smooth="yes"/>
      <point x="132" y="676" type="line" smooth="yes"/>
      <point x="132" y="690"/>
      <point x="122" y="700"/>
      <point x="108" y="700" type="curve" smooth="yes"/>
      <point x="84" y="700" type="line" smooth="yes"/>
      <point x="70" y="700"/>
      <point x="60" y="690"/>
      <point x="60" y="676" type="curve" smooth="yes"/>
      <point x="60" y="476" type="line" smooth="yes"/>
      <point x="60" y="462"/>
      <point x="70" y="452"/>
    </contour>
  </outline>
</glyph>
<glyph name="numbersign" format="2">
  <advance width="608"/>
  <unicode hex="0023"/>
  <note>
numbersign
</note>
  <outline>
    <contour>
      <point x="128" y="0" type="line"/>
      <point x="197" y="0" type="line"/>
      <point x="226" y="206" type="line"/>
      <point x="350" y="206" type="line"/>
      <point x="321" y="0" type="line"/>
      <point x="390" y="0" type="line"/>
      <point x="419" y="206" type="line"/>
      <point x="520" y="206" type="line"/>
      <point x="520" y="274" type="line"/>
      <point x="429" y="274" type="line"/>
      <point x="450" y="424" type="line"/>
      <point x="548" y="424" type="line"/>
      <point x="548" y="492" type="line"/>
      <point x="459" y="492" type="line"/>
      <point x="488" y="697" type="line"/>
      <point x="419" y="697" type="line"/>
      <point x="390" y="492" type="line"/>
      <point x="266" y="492" type="line"/>
      <point x="295" y="697" type="line"/>
      <point x="226" y="697" type="line"/>
      <point x="197" y="492" type="line"/>
      <point x="86" y="492" type="line"/>
      <point x="86" y="424" type="line"/>
      <point x="188" y="424" type="line"/>
      <point x="167" y="274" type="line"/>
      <point x="60" y="274" type="line"/>
      <point x="60" y="206" type="line"/>
      <point x="157" y="206" type="line"/>
    </contour>
    <contour>
      <point x="236" y="274" type="line"/>
      <point x="257" y="424" type="line"/>
      <point x="381" y="424" type="line"/>
      <point x="360" y="274" type="line"/>
    </contour>
  </outline>
</glyph>
<glyph name="percent" format="2">
  <advance width="624"/>
  <unicode hex="0025"/>
  <outline>
    <contour>
      <point x="183" y="382" type="curve" smooth="yes"/>
      <point x="251" y="382"/>
      <point x="307" y="439"/>
      <point x="307" y="508" type="curve" smooth="yes"/>
      <point x="307" y="577"/>
      <point x="251" y="634"/>
      <point x="183" y="634" type="curve" smooth="yes"/>
      <point x="115" y="634"/>
      <point x="60" y="577"/>
      <point x="60" y="508" type="curve" smooth="yes"/>
      <point x="60" y="439"/>
      <point x="115" y="382"/>
    </contour>
    <contour>
      <point x="451" y="74" type="curve" smooth="yes"/>
      <point x="514" y="74"/>
      <point x="564" y="126"/>
      <point x="564" y="188" type="curve" smooth="yes"/>
      <point x="564" y="251"/>
      <point x="514" y="303"/>
      <point x="451" y="303" type="curve" smooth="yes"/>
      <point x="390" y="303"/>
      <point x="339" y="251"/>
      <point x="339" y="188" type="curve" smooth="yes"/>
      <point x="339" y="126"/>
      <point x="390" y="74"/>
    </contour>
    <contour>
      <point x="451" y="135" type="curve" smooth="yes"/>
      <point x="422" y="135"/>
      <point x="399" y="159"/>
      <point x="399" y="188" type="curve" smooth="yes"/>
      <point x="399" y="218"/>
      <point x="422" y="242"/>
      <point x="451" y="242" type="curve" smooth="yes"/>
      <point x="482" y="242"/>
      <point x="504" y="218"/>
      <point x="504" y="188" type="curve" smooth="yes"/>
      <point x="504" y="159"/>
      <point x="482" y="135"/>
    </contour>
    <contour>
      <point x="183" y="450" type="curve" smooth="yes"/>
      <point x="150" y="450"/>
      <point x="125" y="476"/>
      <point x="125" y="508" type="curve" smooth="yes"/>
      <point x="125" y="541"/>
      <point x="150" y="567"/>
      <point x="183" y="567" type="curve" smooth="yes"/>
      <point x="216" y="567"/>
      <point x="241" y="541"/>
      <point x="241" y="508" type="curve" smooth="yes"/>
      <point x="241" y="476"/>
      <point x="216" y="450"/>
    </contour>
    <component base="_diagonal.long" xScale="-0.99619" xyScale="-0.08716" yxScale="-0.08716" yScale="0.99619" xOffset="639" yOffset="25"/>
  </outline>
</glyph>
<glyph name="asterisk" format="2">
  <advance width="424"/>
  <unicode hex="002A"/>
  <note>
asterisk
</note>
  <outline>
    <contour>
      <point x="146" y="433" type="line"/>
      <point x="211" y="529" type="line"/>
      <point x="280" y="433" type="line"/>
      <point x="321" y="464" type="line"/>
      <point x="255" y="555" type="line"/>
      <point x="364" y="593" type="line"/>
      <point x="344" y="641" type="line"/>
      <point x="237" y="601" type="line"/>
      <point x="237" y="714" type="line"/>
      <point x="184" y="714" type="line"/>
      <point x="184" y="601" type="line"/>
      <point x="78" y="641" type="line"/>
      <point x="60" y="593" type="line"/>
      <point x="166" y="555" type="line"/>
      <point x="101" y="464" type="line"/>
    </contour>
  </outline>
</glyph>
<glyph name="plus" format="2">
  <advance width="519"/>
  <unicode hex="002B"/>
  <outline>
    <contour>
      <point x="229" y="20" type="line"/>
      <point x="304" y="20" type="line"/>
      <point x="304" y="252" type="line"/>
      <point x="459" y="252" type="line"/>
      <point x="459" y="316" type="line"/>
      <point x="304" y="316" type="line"/>
      <point x="304" y="528" type="line"/>
      <point x="229" y="528" type="line"/>
      <point x="229" y="316" type="line"/>
      <point x="60" y="316" type="line"/>
      <point x="60" y="252" type="line"/>
      <point x="229" y="252" type="line"/>
    </contour>
  </outline>
</glyph>
<glyph name="period" format="2">
  <advance width="234"/>
  <unicode hex="002E"/>
  <outline>
    <contour>
      <point x="83" y="0" type="curve" smooth="yes"/>
      <point x="151" y="0" type="line" smooth="yes"/>
      <point x="164" y="0"/>
      <point x="174" y="10"/>
      <point x="174" y="23" type="curve" smooth="yes"/>
      <point x="174" y="90" type="line" smooth="yes"/>
      <point x="174" y="103"/>
      <point x="164" y="113"/>
      <point x="151" y="113" type="curve" smooth="yes"/>
      <point x="83" y="113" type="line" smooth="yes"/>
      <point x="70" y="113"/>
      <point x="60" y="103"/>
      <point x="60" y="90" type="curve" smooth="yes"/>
      <point x="60" y="23" type="line" smooth="yes"/>
      <point x="60" y="10"/>
      <point x="70" y="0"/>
    </contour>
  </outline>
</glyph>
<glyph name="zero" format="2">
  <advance width="518"/>
  <unicode hex="0030"/>
  <outline>
    <contour>
      <point x="381" y="-1" type="line" smooth="yes"/>
      <point x="445" y="-1"/>
      <point x="458" y="47"/>
      <point x="458" y="68" type="curve" smooth="yes"/>
      <point x="458" y="634" type="line" smooth="yes"/>
      <point x="458" y="671"/>
      <point x="429" y="700"/>
      <point x="358" y="700" type="curve" smooth="yes"/>
      <point x="150" y="700" type="line" smooth="yes"/>
      <point x="76" y="700"/>
      <point x="60" y="674"/>
      <point x="60" y="634" type="curve" smooth="yes"/>
      <point x="60" y="64" type="line" smooth="yes"/>
      <point x="60" y="30"/>
      <point x="82" y="-1"/>
      <point x="144" y="-1" type="curve" smooth="yes"/>
    </contour>
    <contour>
      <point x="155" y="53" type="line" smooth="yes"/>
      <point x="149" y="53"/>
      <point x="142" y="57"/>
      <point x="142" y="70" type="curve" smooth="yes"/>
      <point x="142" y="631" type="line" smooth="yes"/>
      <point x="142" y="643"/>
      <point x="147" y="647"/>
      <point x="152" y="647" type="curve" smooth="yes"/>
      <point x="364" y="647" type="line" smooth="yes"/>
      <point x="373" y="647"/>
      <point x="377" y="643"/>
      <point x="377" y="631" type="curve" smooth="yes"/>
      <point x="377" y="70" type="line" smooth="yes"/>
      <point x="377" y="57"/>
      <point x="370" y="53"/>
      <point x="360" y="53" type="curve" smooth="yes"/>
    </contour>
  </outline>
</glyph>
<glyph name="two" format="2">
  <advance width="517"/>
  <unicode hex="0032"/>
  <outline>
    <contour>
      <point x="410" y="-1" type="line" smooth="yes"/>
      <point x="474" y="-1"/>
      <point x="487" y="47"/>
      <point x="487" y="70" type="curve" smooth="yes"/>
      <point x="487" y="98"/>
      <point x="406" y="106"/>
      <point x="406" y="70" type="curve" smooth="yes"/>
      <point x="406" y="57"/>
      <point x="403" y="53"/>
      <point x="393" y="53" type="curve" smooth="yes"/>
      <point x="156" y="53" type="line" smooth="yes"/>
      <point x="150" y="53"/>
      <point x="142" y="64"/>
      <point x="142" y="76" type="curve" smooth="yes"/>
      <point x="142" y="305" type="line" smooth="yes"/>
      <point x="142" y="329"/>
      <point x="169" y="349"/>
      <point x="205" y="349" type="curve" smooth="yes"/>
      <point x="429" y="349" type="line" smooth="yes"/>
      <point x="442" y="349"/>
      <point x="457" y="359"/>
      <point x="457" y="372" type="curve" smooth="yes"/>
      <point x="457" y="634" type="line" smooth="yes"/>
      <point x="457" y="671"/>
      <point x="428" y="700"/>
      <point x="357" y="700" type="curve" smooth="yes"/>
      <point x="149" y="700" type="line" smooth="yes"/>
      <point x="75" y="700"/>
      <point x="60" y="674"/>
      <point x="60" y="631" type="curve" smooth="yes"/>
      <point x="60" y="609"/>
      <point x="141" y="602"/>
      <point x="141" y="631" type="curve" smooth="yes"/>
      <point x="141" y="643"/>
      <point x="144" y="647"/>
      <point x="151" y="647" type="curve" smooth="yes"/>
      <point x="347" y="647" type="line" smooth="yes"/>
      <point x="370" y="647"/>
      <point x="376" y="636"/>
      <point x="376" y="624" type="curve" smooth="yes"/>
      <point x="376" y="422" type="line" smooth="yes"/>
      <point x="376" y="406"/>
      <point x="366" y="398"/>
      <point x="352" y="397" type="curve" smooth="yes"/>
      <point x="139" y="397" type="line" smooth="yes"/>
      <point x="89" y="397"/>
      <point x="61" y="343"/>
      <point x="61" y="313" type="curve" smooth="yes"/>
      <point x="61" y="66" type="line" smooth="yes"/>
      <point x="61" y="8"/>
      <point x="86" y="-1"/>
      <point x="143" y="-1" type="curve" smooth="yes"/>
    </contour>
  </outline>
</glyph>
<glyph name="three" format="2">
  <advance width="517"/>
  <unicode hex="0033"/>
  <outline>
    <contour>
      <point x="120" y="355" type="curve" smooth="yes"/>
      <point x="423" y="355" type="line" smooth="yes"/>
      <point x="437" y="355"/>
      <point x="447" y="365"/>
      <point x="447" y="379" type="curve" smooth="yes"/>
      <point x="447" y="393"/>
      <point x="437" y="403"/>
      <point x="423" y="403" type="curve" smooth="yes"/>
      <point x="120" y="403" type="line" smooth="yes"/>
      <point x="106" y="403"/>
      <point x="96" y="393"/>
      <point x="96" y="379" type="curve" smooth="yes"/>
      <point x="96" y="365"/>
      <point x="106" y="355"/>
    </contour>
    <contour>
      <point x="366" y="-1" type="line" smooth="yes"/>
      <point x="407" y="-1"/>
      <point x="456" y="24"/>
      <point x="456" y="125" type="curve" smooth="yes"/>
      <point x="456" y="588" type="line" smooth="yes"/>
      <point x="456" y="627"/>
      <point x="426" y="699"/>
      <point x="362" y="699" type="curve" smooth="yes"/>
      <point x="103" y="699" type="line" smooth="yes"/>
      <point x="91" y="699"/>
      <point x="82" y="684"/>
      <point x="85" y="664" type="curve" smooth="yes"/>
      <point x="88" y="645"/>
      <point x="99" y="643"/>
      <point x="110" y="643" type="curve" smooth="yes"/>
      <point x="328" y="643" type="line" smooth="yes"/>
      <point x="369" y="643"/>
      <point x="376" y="629"/>
      <point x="376" y="590" type="curve" smooth="yes"/>
      <point x="376" y="123" type="line" smooth="yes"/>
      <point x="376" y="68"/>
      <point x="367" y="53"/>
      <point x="340" y="53" type="curve" smooth="yes"/>
      <point x="99" y="53" type="line" smooth="yes"/>
      <point x="85" y="53"/>
      <point x="75" y="43"/>
      <point x="75" y="29" type="curve" smooth="yes"/>
      <point x="75" y="15"/>
      <point x="85" y="-1"/>
      <point x="99" y="-1" type="curve" smooth="yes"/>
    </contour>
  </outline>
</glyph>
<glyph name="four" format="2">
  <advance width="561"/>
  <unicode hex="0034"/>
  <outline>
    <contour>
      <point x="348" y="-8"/>
      <point x="429" y="-10"/>
      <point x="429" y="18" type="curve" smooth="yes"/>
      <point x="429" y="260" type="line"/>
      <point x="477" y="260" type="line" smooth="yes"/>
      <point x="491" y="260"/>
      <point x="501" y="270"/>
      <point x="501" y="284" type="curve" smooth="yes"/>
      <point x="501" y="298"/>
      <point x="491" y="308"/>
      <point x="477" y="308" type="curve" smooth="yes"/>
      <point x="429" y="308" type="line"/>
      <point x="429" y="368" type="line" smooth="yes"/>
      <point x="429" y="382"/>
      <point x="419" y="392"/>
      <point x="405" y="392" type="curve" smooth="yes"/>
      <point x="372" y="392" type="line" smooth="yes"/>
      <point x="358" y="392"/>
      <point x="348" y="382"/>
      <point x="348" y="368" type="curve" smooth="yes"/>
      <point x="348" y="308" type="line"/>
      <point x="142" y="308" type="line"/>
      <point x="142" y="371" type="line"/>
      <point x="402" y="655" type="line" smooth="yes"/>
      <point x="428" y="683"/>
      <point x="379" y="716"/>
      <point x="357" y="692" type="curve" smooth="yes"/>
      <point x="142" y="456" type="line"/>
      <point x="66" y="378" type="line" smooth="yes"/>
      <point x="63" y="374"/>
      <point x="60" y="367"/>
      <point x="60" y="362" type="curve" smooth="yes"/>
      <point x="60" y="281" type="line" smooth="yes"/>
      <point x="60" y="269"/>
      <point x="71" y="260"/>
      <point x="84" y="260" type="curve" smooth="yes"/>
      <point x="348" y="260" type="line"/>
      <point x="348" y="20" type="line" smooth="yes"/>
    </contour>
  </outline>
</glyph>
<glyph name="five" format="2">
  <advance width="517"/>
  <unicode hex="0035"/>
  <outline>
    <contour>
      <point x="107" y="-1" type="curve" smooth="yes"/>
      <point x="374" y="-1" type="line" smooth="yes"/>
      <point x="431" y="-1"/>
      <point x="456" y="8"/>
      <point x="456" y="66" type="curve" smooth="yes"/>
      <point x="456" y="313" type="line" smooth="yes"/>
      <point x="456" y="340"/>
      <point x="453" y="397"/>
      <point x="378" y="398" type="curve" smooth="yes"/>
      <point x="165" y="398" type="line" smooth="yes"/>
      <point x="151" y="398"/>
      <point x="141" y="406"/>
      <point x="141" y="422" type="curve" smooth="yes"/>
      <point x="141" y="631" type="line" smooth="yes"/>
      <point x="141" y="643"/>
      <point x="145" y="647"/>
      <point x="154" y="647" type="curve" smooth="yes"/>
      <point x="366" y="647" type="line" smooth="yes"/>
      <point x="373" y="647"/>
      <point x="376" y="643"/>
      <point x="376" y="631" type="curve" smooth="yes"/>
      <point x="376" y="608"/>
      <point x="457" y="600"/>
      <point x="457" y="634" type="curve" smooth="yes"/>
      <point x="457" y="674"/>
      <point x="442" y="700"/>
      <point x="368" y="700" type="curve" smooth="yes"/>
      <point x="160" y="700" type="line" smooth="yes"/>
      <point x="89" y="700"/>
      <point x="60" y="671"/>
      <point x="60" y="634" type="curve" smooth="yes"/>
      <point x="60" y="372" type="line" smooth="yes"/>
      <point x="60" y="359"/>
      <point x="70" y="349"/>
      <point x="83" y="349" type="curve" smooth="yes"/>
      <point x="352" y="349" type="line" smooth="yes"/>
      <point x="365" y="349"/>
      <point x="375" y="339"/>
      <point x="375" y="326" type="curve" smooth="yes"/>
      <point x="375" y="76" type="line"/>
      <point x="376" y="64"/>
      <point x="372" y="53"/>
      <point x="366" y="53" type="curve" smooth="yes"/>
      <point x="124" y="53" type="line" smooth="yes"/>
      <point x="114" y="53"/>
      <point x="111" y="57"/>
      <point x="111" y="70" type="curve" smooth="yes"/>
      <point x="111" y="98"/>
      <point x="30" y="106"/>
      <point x="30" y="68" type="curve" smooth="yes"/>
      <point x="30" y="47"/>
      <point x="43" y="-1"/>
    </contour>
  </outline>
</glyph>
<glyph name="six" format="2">
  <advance width="517"/>
  <unicode hex="0036"/>
  <outline>
    <contour>
      <point x="107" y="-1" type="curve" smooth="yes"/>
      <point x="374" y="-1" type="line" smooth="yes"/>
      <point x="431" y="-1"/>
      <point x="456" y="8"/>
      <point x="456" y="66" type="curve" smooth="yes"/>
      <point x="456" y="313" type="line" smooth="yes"/>
      <point x="456" y="340"/>
      <point x="453" y="397"/>
      <point x="378" y="397" type="curve" smooth="yes"/>
      <point x="165" y="397" type="line" smooth="yes"/>
      <point x="151" y="397"/>
      <point x="141" y="406"/>
      <point x="141" y="422" type="curve" smooth="yes"/>
      <point x="141" y="631" type="line" smooth="yes"/>
      <point x="141" y="643"/>
      <point x="145" y="647"/>
      <point x="154" y="647" type="curve" smooth="yes"/>
      <point x="366" y="647" type="line" smooth="yes"/>
      <point x="373" y="647"/>
      <point x="376" y="638"/>
      <point x="376" y="626" type="curve" smooth="yes"/>
      <point x="376" y="612"/>
      <point x="457" y="606"/>
      <point x="457" y="634" type="curve" smooth="yes"/>
      <point x="457" y="674"/>
      <point x="442" y="700"/>
      <point x="368" y="700" type="curve" smooth="yes"/>
      <point x="160" y="700" type="line" smooth="yes"/>
      <point x="89" y="700"/>
      <point x="59" y="671"/>
      <point x="59" y="634" type="curve" smooth="yes"/>
      <point x="59" y="86" type="line" smooth="yes"/>
      <point x="59" y="21"/>
      <point x="76" y="-1"/>
    </contour>
    <contour>
      <point x="141" y="70" type="curve" smooth="yes"/>
      <point x="141" y="349" type="line"/>
      <point x="352" y="349" type="line" smooth="yes"/>
      <point x="365" y="349"/>
      <point x="375" y="339"/>
      <point x="375" y="326" type="curve" smooth="yes"/>
      <point x="375" y="76" type="line" smooth="yes"/>
      <point x="375" y="64"/>
      <point x="370" y="53"/>
      <point x="362" y="53" type="curve" smooth="yes"/>
      <point x="164" y="53" type="line" smooth="yes"/>
      <point x="154" y="53"/>
      <point x="141" y="57"/>
    </contour>
  </outline>
</glyph>
<glyph name="seven" format="2">
  <advance width="518"/>
  <unicode hex="0037"/>
  <outline>
    <contour>
      <point x="377" y="6" type="line"/>
      <point x="377" y="-9"/>
      <point x="458" y="-11"/>
      <point x="458" y="10" type="curve" smooth="yes"/>
      <point x="458" y="634" type="line" smooth="yes"/>
      <point x="458" y="671"/>
      <point x="429" y="700"/>
      <point x="358" y="700" type="curve" smooth="yes"/>
      <point x="150" y="700" type="line" smooth="yes"/>
      <point x="76" y="700"/>
      <point x="60" y="674"/>
      <point x="60" y="634" type="curve" smooth="yes"/>
      <point x="60" y="610"/>
      <point x="142" y="614"/>
      <point x="142" y="631" type="curve" smooth="yes"/>
      <point x="142" y="643"/>
      <point x="145" y="647"/>
      <point x="152" y="647" type="curve" smooth="yes"/>
      <point x="364" y="647" type="line" smooth="yes"/>
      <point x="373" y="647"/>
      <point x="377" y="643"/>
      <point x="377" y="631" type="curve" smooth="yes"/>
    </contour>
  </outline>
</glyph>
<glyph name="nine" format="2">
  <advance width="517"/>
  <unicode hex="0039"/>
  <outline>
    <contour>
      <point x="410" y="700" type="curve" smooth="yes"/>
      <point x="143" y="700" type="line" smooth="yes"/>
      <point x="86" y="700"/>
      <point x="61" y="691"/>
      <point x="61" y="633" type="curve" smooth="yes"/>
      <point x="61" y="386" type="line" smooth="yes"/>
      <point x="61" y="359"/>
      <point x="64" y="302"/>
      <point x="139" y="302" type="curve" smooth="yes"/>
      <point x="352" y="302" type="line" smooth="yes"/>
      <point x="366" y="302"/>
      <point x="376" y="293"/>
      <point x="376" y="277" type="curve" smooth="yes"/>
      <point x="376" y="68" type="line" smooth="yes"/>
      <point x="376" y="56"/>
      <point x="372" y="52"/>
      <point x="363" y="52" type="curve" smooth="yes"/>
      <point x="151" y="52" type="line" smooth="yes"/>
      <point x="144" y="52"/>
      <point x="141" y="61"/>
      <point x="141" y="73" type="curve" smooth="yes"/>
      <point x="141" y="87"/>
      <point x="60" y="93"/>
      <point x="60" y="65" type="curve" smooth="yes"/>
      <point x="60" y="25"/>
      <point x="75" y="-1"/>
      <point x="149" y="-1" type="curve" smooth="yes"/>
      <point x="357" y="-1" type="line" smooth="yes"/>
      <point x="428" y="-1"/>
      <point x="458" y="28"/>
      <point x="458" y="65" type="curve" smooth="yes"/>
      <point x="458" y="613" type="line" smooth="yes"/>
      <point x="458" y="678"/>
      <point x="441" y="700"/>
    </contour>
    <contour>
      <point x="376" y="629" type="curve" smooth="yes"/>
      <point x="376" y="350" type="line"/>
      <point x="165" y="350" type="line" smooth="yes"/>
      <point x="152" y="350"/>
      <point x="142" y="360"/>
      <point x="142" y="373" type="curve" smooth="yes"/>
      <point x="142" y="623" type="line" smooth="yes"/>
      <point x="142" y="635"/>
      <point x="147" y="646"/>
      <point x="155" y="646" type="curve" smooth="yes"/>
      <point x="353" y="646" type="line" smooth="yes"/>
      <point x="363" y="646"/>
      <point x="376" y="642"/>
    </contour>
  </outline>
</glyph>
<glyph name="semicolon" format="2">
  <advance width="231"/>
  <unicode hex="003B"/>
  <note>
semicolon
</note>
  <outline>
    <contour>
      <point x="61" y="-146" type="line"/>
      <point x="138" y="-123"/>
      <point x="172" y="-66"/>
      <point x="171" y="10" type="curve" smooth="yes"/>
      <point x="171" y="88" type="line" smooth="yes"/>
      <point x="171" y="101"/>
      <point x="161" y="111"/>
      <point x="148" y="111" type="curve" smooth="yes"/>
      <point x="83" y="111" type="line" smooth="yes"/>
      <point x="70" y="111"/>
      <point x="60" y="101"/>
      <point x="60" y="88" type="curve" smooth="yes"/>
      <point x="60" y="0" type="line"/>
      <point x="119" y="0" type="line"/>
      <point x="122" y="-31"/>
      <point x="108" y="-77"/>
      <point x="61" y="-96" type="curve"/>
    </contour>
    <contour>
      <point x="83" y="406" type="curve" smooth="yes"/>
      <point x="148" y="406" type="line" smooth="yes"/>
      <point x="161" y="406"/>
      <point x="171" y="416"/>
      <point x="171" y="429" type="curve" smooth="yes"/>
      <point x="171" y="494" type="line" smooth="yes"/>
      <point x="171" y="507"/>
      <point x="161" y="517"/>
      <point x="148" y="517" type="curve" smooth="yes"/>
      <point x="83" y="517" type="line" smooth="yes"/>
      <point x="70" y="517"/>
      <point x="60" y="507"/>
      <point x="60" y="494" type="curve" smooth="yes"/>
      <point x="60" y="429" type="line" smooth="yes"/>
      <point x="60" y="416"/>
      <point x="70" y="406"/>
    </contour>
  </outline>
</glyph>
<glyph name="E" format="2">
  <advance width="491"/>
  <unicode hex="0045"/>
  <anchor x="245" y="638" name="top"/>
  <outline>
    <contour>
      <point x="72" y="260" type="line"/>
      <point x="369" y="260" type="line" smooth="yes"/>
      <point x="383" y="260"/>
      <point x="393" y="270"/>
      <point x="393" y="284" type="curve" smooth="yes"/>
      <point x="393" y="298"/>
      <point x="383" y="308"/>
      <point x="369" y="308" type="curve" smooth="yes"/>
      <point x="72" y="308" type="line"/>
    </contour>
    <component base="c.base"/>
  </outline>
</glyph>
<glyph name="F" format="2">
  <advance width="495"/>
  <unicode hex="0046"/>
  <outline>
    <contour>
      <point x="80" y="0" type="curve" smooth="yes"/>
      <point x="121" y="0" type="line" smooth="yes"/>
      <point x="132" y="0"/>
      <point x="140" y="9"/>
      <point x="140" y="20" type="curve" smooth="yes"/>
      <point x="140" y="260" type="line"/>
      <point x="407" y="260" type="line" smooth="yes"/>
      <point x="421" y="260"/>
      <point x="431" y="270"/>
      <point x="431" y="284" type="curve" smooth="yes"/>
      <point x="431" y="298"/>
      <point x="421" y="304"/>
      <point x="407" y="308" type="curve" smooth="yes"/>
      <point x="140" y="308" type="line"/>
      <point x="140" y="590" type="line" smooth="yes"/>
      <point x="140" y="623"/>
      <point x="161" y="647"/>
      <point x="196" y="646" type="curve" smooth="yes"/>
      <point x="406" y="643" type="line" smooth="yes"/>
      <point x="417" y="643"/>
      <point x="428" y="645"/>
      <point x="431" y="664" type="curve" smooth="yes"/>
      <point x="434" y="684"/>
      <point x="425" y="699"/>
      <point x="413" y="699" type="curve" smooth="yes"/>
      <point x="154" y="699" type="line" smooth="yes"/>
      <point x="90" y="699"/>
      <point x="60" y="627"/>
      <point x="60" y="588" type="curve" smooth="yes"/>
      <point x="60" y="20" type="line" smooth="yes"/>
      <point x="60" y="9"/>
      <point x="69" y="0"/>
    </contour>
  </outline>
</glyph>
<glyph name="H" format="2">
  <advance width="661"/>
  <unicode hex="0048"/>
  <outline>
    <contour>
      <point x="160" y="260" type="line"/>
      <point x="481" y="260" type="line"/>
      <point x="481" y="308" type="line"/>
      <point x="160" y="308" type="line"/>
    </contour>
    <contour>
      <point x="120" y="0" type="curve" smooth="yes"/>
      <point x="161" y="0" type="line" smooth="yes"/>
      <point x="172" y="0"/>
      <point x="181" y="9"/>
      <point x="181" y="20" type="curve" smooth="yes"/>
      <point x="181" y="680" type="line" smooth="yes"/>
      <point x="181" y="691"/>
      <point x="165" y="700"/>
      <point x="139" y="700" type="curve" smooth="yes"/>
      <point x="116" y="700"/>
      <point x="100" y="692"/>
      <point x="100" y="673" type="curve" smooth="yes"/>
      <point x="100" y="20" type="line" smooth="yes"/>
      <point x="100" y="9"/>
      <point x="109" y="0"/>
    </contour>
    <contour>
      <point x="500" y="0" type="curve" smooth="yes"/>
      <point x="541" y="0" type="line" smooth="yes"/>
      <point x="552" y="0"/>
      <point x="561" y="9"/>
      <point x="561" y="20" type="curve" smooth="yes"/>
      <point x="561" y="680" type="line" smooth="yes"/>
      <point x="561" y="691"/>
      <point x="545" y="700"/>
      <point x="519" y="700" type="curve" smooth="yes"/>
      <point x="496" y="700"/>
      <point x="480" y="692"/>
      <point x="480" y="673" type="curve" smooth="yes"/>
      <point x="480" y="20" type="line" smooth="yes"/>
      <point x="480" y="9"/>
      <point x="489" y="0"/>
    </contour>
  </outline>
</glyph>
<glyph name="I" format="2">
  <advance width="201"/>
  <unicode hex="0049"/>
  <anchor x="103" y="675" name="top"/>
  <outline>
    <contour>
      <point x="80" y="0" type="curve" smooth="yes"/>
      <point x="121" y="0" type="line" smooth="yes"/>
      <point x="132" y="0"/>
      <point x="141" y="9"/>
      <point x="141" y="20" type="curve" smooth="yes"/>
      <point x="141" y="680" type="line" smooth="yes"/>
      <point x="141" y="691"/>
      <point x="125" y="700"/>
      <point x="99" y="700" type="curve" smooth="yes"/>
      <point x="76" y="700"/>
      <point x="60" y="692"/>
      <point x="60" y="673" type="curve" smooth="yes"/>
      <point x="60" y="20" type="line" smooth="yes"/>
      <point x="60" y="9"/>
      <point x="69" y="0"/>
    </contour>
  </outline>
</glyph>
<glyph name="J" format="2">
  <advance width="339"/>
  <unicode hex="004A"/>
  <outline>
    <contour>
      <point x="245" y="1" type="line" smooth="yes"/>
      <point x="262" y="-2"/>
      <point x="279" y="3"/>
      <point x="279" y="22" type="curve" smooth="yes"/>
      <point x="279" y="675" type="line" smooth="yes"/>
      <point x="279" y="686"/>
      <point x="270" y="695"/>
      <point x="259" y="695" type="curve" smooth="yes"/>
      <point x="218" y="695" type="line" smooth="yes"/>
      <point x="207" y="695"/>
      <point x="198" y="686"/>
      <point x="198" y="675" type="curve" smooth="yes"/>
      <point x="198" y="108" type="line" smooth="yes"/>
      <point x="198" y="79"/>
      <point x="191" y="64"/>
      <point x="172" y="67" type="curve" smooth="yes"/>
      <point x="90" y="79" type="line" smooth="yes"/>
      <point x="72" y="82"/>
      <point x="62" y="72"/>
      <point x="60" y="61" type="curve" smooth="yes"/>
      <point x="57" y="47"/>
      <point x="64" y="31"/>
      <point x="81" y="28" type="curve" smooth="yes"/>
    </contour>
  </outline>
</glyph>
<glyph name="K" format="2">
  <advance width="486"/>
  <unicode hex="004B"/>
  <outline>
    <contour>
      <point x="380" y="7" type="line" smooth="yes"/>
      <point x="389" y="-3"/>
      <point x="404" y="-3"/>
      <point x="414" y="7" type="curve" smooth="yes"/>
      <point x="424" y="16"/>
      <point x="436" y="30"/>
      <point x="413" y="55" type="curve" smooth="yes"/>
      <point x="162" y="331" type="line"/>
      <point x="128" y="284" type="line"/>
    </contour>
    <component base="_bar.up" xOffset="10"/>
    <component base="_bar.part" xScale="0.70711" xyScale="0.70711" yxScale="-0.70711" yScale="0.70711" xOffset="-261" yOffset="-492"/>
  </outline>
</glyph>
<glyph name="L" format="2">
  <advance width="476"/>
  <unicode hex="004C"/>
  <outline>
    <contour>
      <point x="80" y="0" type="curve" smooth="yes"/>
      <point x="392" y="0" type="line" smooth="yes"/>
      <point x="406" y="0"/>
      <point x="416" y="10"/>
      <point x="416" y="24" type="curve" smooth="yes"/>
      <point x="416" y="38"/>
      <point x="406" y="48"/>
      <point x="392" y="48" type="curve" smooth="yes"/>
      <point x="141" y="48" type="line"/>
      <point x="141" y="680" type="line" smooth="yes"/>
      <point x="141" y="691"/>
      <point x="125" y="700"/>
      <point x="99" y="700" type="curve" smooth="yes"/>
      <point x="76" y="700"/>
      <point x="60" y="692"/>
      <point x="60" y="673" type="curve" smooth="yes"/>
      <point x="60" y="20" type="line" smooth="yes"/>
      <point x="60" y="9"/>
      <point x="69" y="0"/>
    </contour>
  </outline>
</glyph>
<glyph name="M" format="2">
  <advance width="637"/>
  <unicode hex="004D"/>
  <outline>
    <contour>
      <point x="80" y="0" type="curve" smooth="yes"/>
      <point x="121" y="0" type="line" smooth="yes"/>
      <point x="132" y="0"/>
      <point x="141" y="9"/>
      <point x="141" y="20" type="curve" smooth="yes"/>
      <point x="141" y="577.505" type="line"/>
      <point x="294" y="290" type="line" smooth="yes"/>
      <point x="298" y="282"/>
      <point x="310" y="279"/>
      <point x="319" y="279" type="curve" smooth="yes"/>
      <point x="328" y="279"/>
      <point x="340" y="282"/>
      <point x="344" y="290" type="curve" smooth="yes"/>
      <point x="496" y="575.92" type="line"/>
      <point x="496" y="21" type="line" smooth="yes"/>
      <point x="496" y="10"/>
      <point x="505" y="1"/>
      <point x="516" y="1" type="curve" smooth="yes"/>
      <point x="557" y="1" type="line" smooth="yes"/>
      <point x="568" y="1"/>
      <point x="577" y="10"/>
      <point x="577" y="21" type="curve" smooth="yes"/>
      <point x="577" y="681" type="line" smooth="yes"/>
      <point x="577" y="692"/>
      <point x="561" y="701"/>
      <point x="535" y="701" type="curve" smooth="yes"/>
      <point x="520.927" y="701"/>
      <point x="509.475" y="698.005"/>
      <point x="502.705" y="691.328" type="curve"/>
      <point x="319" y="357" type="line"/>
      <point x="136" y="692" type="line"/>
      <point x="134.872" y="690.925" type="line"/>
      <point x="127.957" y="696.38"/>
      <point x="115.49" y="700"/>
      <point x="99" y="700" type="curve" smooth="yes"/>
      <point x="76" y="700"/>
      <point x="60" y="692"/>
      <point x="60" y="673" type="curve" smooth="yes"/>
      <point x="60" y="20" type="line" smooth="yes"/>
      <point x="60" y="9"/>
      <point x="69" y="0"/>
    </contour>
  </outline>
</glyph>
<glyph name="N" format="2">
  <advance width="554"/>
  <unicode hex="004E"/>
  <anchor x="273" y="641" name="top"/>
  <outline>
    <contour>
      <point x="80" y="0" type="curve" smooth="yes"/>
      <point x="121" y="0" type="line" smooth="yes"/>
      <point x="132" y="0"/>
      <point x="141" y="11"/>
      <point x="141" y="22" type="curve" smooth="yes"/>
      <point x="141" y="526.182" type="line"/>
      <point x="415" y="8" type="line" smooth="yes"/>
      <point x="417.266" y="3.468"/>
      <point x="422.407" y="0.99"/>
      <point x="428.282" y="0.566" type="curve" smooth="yes"/>
      <point x="433" y="0" type="line"/>
      <point x="474" y="0" type="line" smooth="yes"/>
      <point x="485" y="0"/>
      <point x="494" y="9"/>
      <point x="494" y="20" type="curve" smooth="yes"/>
      <point x="494" y="680" type="line" smooth="yes"/>
      <point x="494" y="691"/>
      <point x="478" y="700"/>
      <point x="452" y="700" type="curve" smooth="yes"/>
      <point x="429" y="700"/>
      <point x="413" y="692"/>
      <point x="413" y="673" type="curve" smooth="yes"/>
      <point x="413" y="163.48" type="line"/>
      <point x="140" y="691" type="line" smooth="yes"/>
      <point x="135.393" y="700.215"/>
      <point x="119.84" y="702.796"/>
      <point x="105.567" y="701.8" type="curve" smooth="yes"/>
      <point x="99" y="702" type="line" smooth="yes"/>
      <point x="76" y="702"/>
      <point x="60" y="694"/>
      <point x="60" y="675" type="curve" smooth="yes"/>
      <point x="60" y="22" type="line" smooth="yes"/>
      <point x="60" y="11"/>
      <point x="69" y="0"/>
    </contour>
  </outline>
</glyph>
<glyph name="R" format="2">
  <advance width="673"/>
  <unicode hex="0052"/>
  <outline>
    <contour>
      <point x="495" y="7" type="line" smooth="yes"/>
      <point x="504" y="-5"/>
      <point x="525" y="-1"/>
      <point x="536" y="7" type="curve" smooth="yes"/>
      <point x="547" y="15"/>
      <point x="556" y="37"/>
      <point x="543" y="54" type="curve" smooth="yes"/>
      <point x="361" y="297" type="line"/>
      <point x="283" y="290" type="line"/>
    </contour>
    <component base="P"/>
  </outline>
</glyph>
<glyph name="X" format="2">
  <advance width="586"/>
  <unicode hex="0058"/>
  <outline>
    <contour>
      <point x="474" y="-1" type="line" smooth="yes"/>
      <point x="480" y="-11"/>
      <point x="498" y="-9"/>
      <point x="508" y="2" type="curve" smooth="yes"/>
      <point x="517" y="12"/>
      <point x="535" y="33"/>
      <point x="519" y="58" type="curve" smooth="yes"/>
      <point x="337.468" y="347.36" type="line"/>
      <point x="537" y="649" type="line" smooth="yes"/>
      <point x="554" y="675"/>
      <point x="543" y="685"/>
      <point x="535" y="694" type="curve" smooth="yes"/>
      <point x="526" y="703"/>
      <point x="486" y="711"/>
      <point x="476" y="696" type="curve" smooth="yes"/>
      <point x="294.457" y="415.918" type="line"/>
      <point x="120" y="694" type="line" smooth="yes"/>
      <point x="111" y="710"/>
      <point x="70" y="702"/>
      <point x="61" y="693" type="curve" smooth="yes"/>
      <point x="53" y="684"/>
      <point x="42" y="675"/>
      <point x="59" y="649" type="curve" smooth="yes"/>
      <point x="250.808" y="348.577" type="line"/>
      <point x="67" y="65" type="line" smooth="yes"/>
      <point x="51" y="41"/>
      <point x="68" y="19"/>
      <point x="77" y="9" type="curve" smooth="yes"/>
      <point x="86" y="-2"/>
      <point x="105" y="-4"/>
      <point x="111" y="5" type="curve" smooth="yes"/>
      <point x="293.766" y="281.294" type="line"/>
    </contour>
  </outline>
</glyph>
<glyph name="bracketleft" format="2">
  <advance width="299"/>
  <unicode hex="005B"/>
  <outline>
    <contour>
      <point x="111" y="-130" type="curve" smooth="yes"/>
      <point x="218" y="-130" type="line" smooth="yes"/>
      <point x="230" y="-130"/>
      <point x="239" y="-121"/>
      <point x="239" y="-109" type="curve" smooth="yes"/>
      <point x="238" y="-69" type="line" smooth="yes"/>
      <point x="238" y="-58"/>
      <point x="229" y="-49"/>
      <point x="218" y="-49" type="curve" smooth="yes"/>
      <point x="121" y="-49" type="line" smooth="yes"/>
      <point x="110" y="-49"/>
      <point x="101" y="-40"/>
      <point x="101" y="-29" type="curve" smooth="yes"/>
      <point x="101" y="699" type="line" smooth="yes"/>
      <point x="101" y="710"/>
      <point x="110" y="719"/>
      <point x="121" y="719" type="curve" smooth="yes"/>
      <point x="207" y="719" type="line" smooth="yes"/>
      <point x="218" y="719"/>
      <point x="227" y="728"/>
      <point x="227" y="739" type="curve" smooth="yes"/>
      <point x="227" y="780" type="line" smooth="yes"/>
      <point x="227" y="791"/>
      <point x="218" y="800"/>
      <point x="207" y="800" type="curve" smooth="yes"/>
      <point x="111" y="800" type="line" smooth="yes"/>
      <point x="82" y="800"/>
      <point x="60" y="778"/>
      <point x="60" y="749" type="curve" smooth="yes"/>
      <point x="60" y="-79" type="line" smooth="yes"/>
      <point x="60" y="-108"/>
      <point x="82" y="-130"/>
    </contour>
  </outline>
</glyph>
<glyph name="asciicircum" format="2">
  <advance width="412"/>
  <unicode hex="005E"/>
  <outline>
    <contour>
      <point x="90" y="467" type="line" smooth="yes"/>
      <point x="102" y="458"/>
      <point x="117" y="463"/>
      <point x="124" y="474" type="curve" smooth="yes"/>
      <point x="208" y="599" type="line"/>
      <point x="286" y="474" type="line" smooth="yes"/>
      <point x="294" y="462"/>
      <point x="307" y="459"/>
      <point x="320" y="467" type="curve" smooth="yes"/>
      <point x="340" y="479" type="line" smooth="yes"/>
      <point x="352" y="486"/>
      <point x="355" y="500"/>
      <point x="348" y="512" type="curve" smooth="yes"/>
      <point x="242" y="682" type="line" smooth="yes"/>
      <point x="234" y="694"/>
      <point x="224" y="701"/>
      <point x="209" y="701" type="curve" smooth="yes"/>
      <point x="195" y="701"/>
      <point x="183" y="690"/>
      <point x="176" y="680" type="curve" smooth="yes"/>
      <point x="65" y="514" type="line" smooth="yes"/>
      <point x="57" y="503"/>
      <point x="59" y="490"/>
      <point x="71" y="481" type="curve" smooth="yes"/>
    </contour>
  </outline>
</glyph>
<glyph name="grave" format="2">
  <advance width="282"/>
  <unicode hex="0060"/>
  <anchor x="213" y="500" name="_top"/>
  <outline>
    <contour>
      <point x="199" y="611" type="curve" smooth="yes"/>
      <point x="214" y="624" type="line" smooth="yes"/>
      <point x="223" y="632"/>
      <point x="224" y="643"/>
      <point x="217" y="652" type="curve" smooth="yes"/>
      <point x="111" y="778" type="line"/>
      <point x="103" y="786"/>
      <point x="92" y="788"/>
      <point x="83" y="781" type="curve" smooth="yes"/>
      <point x="68" y="768" type="line" smooth="yes"/>
      <point x="59" y="760"/>
      <point x="58" y="749"/>
      <point x="65" y="740" type="curve" smooth="yes"/>
      <point x="171" y="614" type="line"/>
      <point x="179" y="606"/>
      <point x="190" y="604"/>
    </contour>
  </outline>
</glyph>
<glyph name="f" format="2">
  <advance width="454"/>
  <unicode hex="0066"/>
  <outline>
    <contour>
      <point x="174" y="0" type="curve" smooth="yes"/>
      <point x="215" y="0" type="line" smooth="yes"/>
      <point x="226" y="0"/>
      <point x="235" y="9"/>
      <point x="235" y="20" type="curve" smooth="yes"/>
      <point x="235" y="439" type="line" smooth="yes"/>
      <point x="235" y="450"/>
      <point x="244" y="459"/>
      <point x="255" y="459" type="curve" smooth="yes"/>
      <point x="379" y="459" type="line" smooth="yes"/>
      <point x="390" y="459"/>
      <point x="399" y="468"/>
      <point x="399" y="479" type="curve" smooth="yes"/>
      <point x="399" y="480" type="line" smooth="yes"/>
      <point x="399" y="491"/>
      <point x="390" y="500"/>
      <point x="379" y="500" type="curve" smooth="yes"/>
      <point x="255" y="500" type="line" smooth="yes"/>
      <point x="244" y="500"/>
      <point x="235" y="509"/>
      <point x="235" y="520" type="curve" smooth="yes"/>
      <point x="235" y="631" type="line" smooth="yes"/>
      <point x="235" y="642"/>
      <point x="244" y="651"/>
      <point x="255" y="651" type="curve" smooth="yes"/>
      <point x="380" y="651" type="line" smooth="yes"/>
      <point x="390" y="651"/>
      <point x="404" y="660"/>
      <point x="404" y="680" type="curve" smooth="yes"/>
      <point x="404" y="692"/>
      <point x="395" y="700"/>
      <point x="384" y="699" type="curve" smooth="yes"/>
      <point x="185" y="699" type="line" smooth="yes"/>
      <point x="170" y="699"/>
      <point x="154" y="679"/>
      <point x="154" y="660" type="curve" smooth="yes"/>
      <point x="154" y="520" type="line" smooth="yes"/>
      <point x="154" y="509"/>
      <point x="145" y="500"/>
      <point x="134" y="500" type="curve" smooth="yes"/>
      <point x="70" y="500" type="line" smooth="yes"/>
      <point x="59" y="500"/>
      <point x="50" y="491"/>
      <point x="50" y="480" type="curve" smooth="yes"/>
      <point x="50" y="479" type="line" smooth="yes"/>
      <point x="50" y="468"/>
      <point x="59" y="459"/>
      <point x="70" y="459" type="curve" smooth="yes"/>
      <point x="134" y="459" type="line" smooth="yes"/>
      <point x="145" y="459"/>
      <point x="154" y="450"/>
      <point x="154" y="439" type="curve" smooth="yes"/>
      <point x="154" y="20" type="line" smooth="yes"/>
      <point x="154" y="9"/>
      <point x="163" y="0"/>
    </contour>
  </outline>
</glyph>
<glyph name="g" format="2">
  <advance width="502"/>
  <unicode hex="0067"/>
  <anchor x="-248" y="-4" name="bottom"/>
  <anchor x="253" y="504" name="top"/>
  <outline>
    <contour>
      <point x="101" y="-199" type="curve" smooth="yes"/>
      <point x="432" y="-199" type="line" smooth="yes"/>
      <point x="443" y="-199"/>
      <point x="452" y="-190"/>
      <point x="452" y="-179" type="curve" smooth="yes"/>
      <point x="452" y="455" type="line" smooth="yes"/>
      <point x="452" y="484"/>
      <point x="430" y="506"/>
      <point x="401" y="506" type="curve" smooth="yes"/>
      <point x="181" y="506" type="line" smooth="yes"/>
      <point x="82" y="506"/>
      <point x="51" y="450"/>
      <point x="51" y="335" type="curve" smooth="yes"/>
      <point x="51" y="158" type="line" smooth="yes"/>
      <point x="51" y="32"/>
      <point x="170" y="-19"/>
      <point x="227" y="0" type="curve" smooth="yes"/>
      <point x="370" y="47" type="line"/>
      <point x="370" y="-138" type="line" smooth="yes"/>
      <point x="370" y="-146"/>
      <point x="361" y="-151"/>
      <point x="350" y="-151" type="curve" smooth="yes"/>
      <point x="151" y="-151" type="line" smooth="yes"/>
      <point x="140" y="-151"/>
      <point x="131" y="-144"/>
      <point x="131" y="-138" type="curve" smooth="yes"/>
      <point x="131" y="-136" type="line" smooth="yes"/>
      <point x="131" y="-123"/>
      <point x="121" y="-113"/>
      <point x="108" y="-113" type="curve" smooth="yes"/>
      <point x="74" y="-113" type="line" smooth="yes"/>
      <point x="61" y="-113"/>
      <point x="50" y="-123"/>
      <point x="50" y="-136" type="curve" smooth="yes"/>
      <point x="50" y="-148" type="line" smooth="yes"/>
      <point x="50" y="-177"/>
      <point x="72" y="-199"/>
    </contour>
    <contour>
      <point x="224" y="63" type="line" smooth="yes"/>
      <point x="164" y="46"/>
      <point x="132" y="77"/>
      <point x="132" y="165" type="curve" smooth="yes"/>
      <point x="132" y="331" type="line" smooth="yes"/>
      <point x="132" y="434"/>
      <point x="154" y="458"/>
      <point x="203" y="458" type="curve" smooth="yes"/>
      <point x="351" y="458" type="line" smooth="yes"/>
      <point x="364" y="458"/>
      <point x="371" y="454"/>
      <point x="371" y="445" type="curve" smooth="yes"/>
      <point x="371" y="105" type="line"/>
    </contour>
  </outline>
</glyph>
<glyph name="j" format="2">
  <advance width="231"/>
  <unicode hex="006A"/>
  <outline>
    <contour>
      <point x="55" y="-189" type="curve" smooth="yes"/>
      <point x="68" y="-194"/>
      <point x="81" y="-189"/>
      <point x="87" y="-177" type="curve" smooth="yes"/>
      <point x="179" y="-6" type="line" smooth="yes"/>
      <point x="182" y="-1"/>
      <point x="181" y="8"/>
      <point x="181" y="11" type="curve" smooth="yes"/>
      <point x="181" y="480" type="line" smooth="yes"/>
      <point x="181" y="491"/>
      <point x="172" y="500"/>
      <point x="161" y="500" type="curve" smooth="yes"/>
      <point x="120" y="500" type="line" smooth="yes"/>
      <point x="109" y="500"/>
      <point x="100" y="491"/>
      <point x="100" y="480" type="curve" smooth="yes"/>
      <point x="100" y="12" type="line" smooth="yes"/>
      <point x="100" y="10"/>
      <point x="100" y="1"/>
      <point x="97" y="-5" type="curve" smooth="yes"/>
      <point x="34" y="-143" type="line" smooth="yes"/>
      <point x="20" y="-174"/>
      <point x="43" y="-183"/>
    </contour>
    <contour>
      <point x="124" y="601" type="curve" smooth="yes"/>
      <point x="151" y="601" type="line" smooth="yes"/>
      <point x="167" y="601"/>
      <point x="178" y="612"/>
      <point x="178" y="628" type="curve" smooth="yes"/>
      <point x="178" y="679" type="line" smooth="yes"/>
      <point x="178" y="695"/>
      <point x="167" y="706"/>
      <point x="151" y="706" type="curve" smooth="yes"/>
      <point x="124" y="706" type="line" smooth="yes"/>
      <point x="108" y="706"/>
      <point x="97" y="695"/>
      <point x="97" y="679" type="curve" smooth="yes"/>
      <point x="97" y="628" type="line" smooth="yes"/>
      <point x="97" y="612"/>
      <point x="108" y="601"/>
    </contour>
  </outline>
</glyph>
<glyph name="n" format="2">
  <advance width="498"/>
  <unicode hex="006E"/>
  <anchor x="257" y="507" name="top"/>
  <outline>
    <contour>
      <point x="70" y="0" type="curve" smooth="yes"/>
      <point x="111" y="0" type="line" smooth="yes"/>
      <point x="122" y="0"/>
      <point x="131" y="9"/>
      <point x="131" y="20" type="curve" smooth="yes"/>
      <point x="131" y="365.079" type="line"/>
      <point x="367" y="431.664" type="line"/>
      <point x="367" y="20" type="line" smooth="yes"/>
      <point x="367" y="9"/>
      <point x="376" y="0"/>
      <point x="387" y="0" type="curve" smooth="yes"/>
      <point x="428" y="0" type="line" smooth="yes"/>
      <point x="439" y="0"/>
      <point x="448" y="9"/>
      <point x="448" y="20" type="curve" smooth="yes"/>
      <point x="448" y="481" type="line" smooth="yes"/>
      <point x="448" y="492"/>
      <point x="432" y="501"/>
      <point x="406" y="501" type="curve" smooth="yes"/>
      <point x="396.599" y="501"/>
      <point x="388.368" y="499.664"/>
      <point x="381.921" y="496.786" type="curve"/>
      <point x="378" y="496" type="line"/>
      <point x="131" y="425.68" type="line"/>
      <point x="131" y="481" type="line" smooth="yes"/>
      <point x="131" y="492"/>
      <point x="115" y="501"/>
      <point x="89" y="501" type="curve" smooth="yes"/>
      <point x="66" y="501"/>
      <point x="50" y="493"/>
      <point x="50" y="474" type="curve" smooth="yes"/>
      <point x="50" y="20" type="line" smooth="yes"/>
      <point x="50" y="9"/>
      <point x="59" y="0"/>
    </contour>
  </outline>
</glyph>
<glyph name="p" format="2">
  <advance width="501"/>
  <unicode hex="0070"/>
  <outline>
    <contour>
      <point x="101" y="505" type="line" smooth="yes"/>
      <point x="72" y="505"/>
      <point x="50" y="483"/>
      <point x="50" y="454" type="curve" smooth="yes"/>
      <point x="50" y="-180" type="line" smooth="yes"/>
      <point x="50" y="-191"/>
      <point x="59" y="-200"/>
      <point x="70" y="-200" type="curve" smooth="yes"/>
      <point x="111" y="-200" type="line" smooth="yes"/>
      <point x="122" y="-200"/>
      <point x="131" y="-191"/>
      <point x="131" y="-180" type="curve" smooth="yes"/>
      <point x="131" y="5" type="line"/>
      <point x="260" y="5" type="line" smooth="yes"/>
      <point x="420" y="5"/>
      <point x="451" y="33"/>
      <point x="451" y="173" type="curve" smooth="yes"/>
      <point x="451" y="334" type="line" smooth="yes"/>
      <point x="451" y="449"/>
      <point x="420" y="505"/>
      <point x="321" y="505" type="curve" smooth="yes"/>
    </contour>
    <contour>
      <point x="151" y="457" type="curve" smooth="yes"/>
      <point x="307" y="457" type="line" smooth="yes"/>
      <point x="356" y="457"/>
      <point x="370" y="440"/>
      <point x="370" y="364" type="curve" smooth="yes"/>
      <point x="370" y="140" type="line" smooth="yes"/>
      <point x="370" y="64"/>
      <point x="353" y="53"/>
      <point x="307" y="53" type="curve" smooth="yes"/>
      <point x="154" y="53" type="line" smooth="yes"/>
      <point x="137" y="53"/>
      <point x="131" y="58"/>
      <point x="131" y="76" type="curve" smooth="yes"/>
      <point x="131" y="444" type="line" smooth="yes"/>
      <point x="131" y="453"/>
      <point x="138" y="457"/>
    </contour>
  </outline>
</glyph>
<glyph name="q" format="2">
  <advance width="501"/>
  <unicode hex="0071"/>
  <outline>
    <contour>
      <point x="400" y="505" type="curve" smooth="yes"/>
      <point x="180" y="505" type="line" smooth="yes"/>
      <point x="81" y="505"/>
      <point x="50" y="449"/>
      <point x="50" y="334" type="curve" smooth="yes"/>
      <point x="50" y="173" type="line" smooth="yes"/>
      <point x="50" y="33"/>
      <point x="81" y="5"/>
      <point x="241" y="5" type="curve" smooth="yes"/>
      <point x="370" y="5" type="line"/>
      <point x="370" y="-180" type="line" smooth="yes"/>
      <point x="370" y="-191"/>
      <point x="379" y="-200"/>
      <point x="390" y="-200" type="curve" smooth="yes"/>
      <point x="431" y="-200" type="line" smooth="yes"/>
      <point x="442" y="-200"/>
      <point x="451" y="-191"/>
      <point x="451" y="-180" type="curve" smooth="yes"/>
      <point x="451" y="454" type="line" smooth="yes"/>
      <point x="451" y="483"/>
      <point x="429" y="505"/>
    </contour>
    <contour>
      <point x="350" y="457" type="line" smooth="yes"/>
      <point x="363" y="457"/>
      <point x="370" y="453"/>
      <point x="370" y="444" type="curve" smooth="yes"/>
      <point x="370" y="76" type="line" smooth="yes"/>
      <point x="370" y="58"/>
      <point x="364" y="53"/>
      <point x="347" y="53" type="curve" smooth="yes"/>
      <point x="194" y="53" type="line" smooth="yes"/>
      <point x="148" y="53"/>
      <point x="131" y="64"/>
      <point x="131" y="140" type="curve" smooth="yes"/>
      <point x="131" y="364" type="line" smooth="yes"/>
      <point x="131" y="440"/>
      <point x="145" y="457"/>
      <point x="194" y="457" type="curve" smooth="yes"/>
    </contour>
  </outline>
</glyph>
<glyph name="r" format="2">
  <advance width="431"/>
  <unicode hex="0072"/>
  <outline>
    <contour>
      <point x="123" y="440" type="line"/>
      <point x="123" y="402" type="line"/>
      <point x="314" y="468" type="line" smooth="yes"/>
      <point x="325" y="472"/>
      <point x="328" y="454"/>
      <point x="328" y="443" type="curve" smooth="yes"/>
      <point x="328" y="433"/>
      <point x="341" y="427"/>
      <point x="367" y="427" type="curve" smooth="yes"/>
      <point x="381" y="427"/>
      <point x="401" y="429"/>
      <point x="401" y="459" type="curve" smooth="yes"/>
      <point x="401" y="488"/>
      <point x="379" y="519"/>
      <point x="350" y="510" type="curve" smooth="yes"/>
    </contour>
    <contour>
      <point x="131" y="449"/>
      <point x="131" y="510" type="curve"/>
      <point x="101" y="510" type="line" smooth="yes"/>
      <point x="72" y="510"/>
      <point x="50" y="488"/>
      <point x="50" y="459" type="curve" smooth="yes"/>
      <point x="50" y="30" type="line" smooth="yes"/>
      <point x="50" y="19"/>
      <point x="59" y="10"/>
      <point x="70" y="10" type="curve" smooth="yes"/>
      <point x="111" y="10" type="line" smooth="yes"/>
      <point x="122" y="10"/>
      <point x="131" y="19"/>
      <point x="131" y="30" type="curve" smooth="yes"/>
      <point x="131" y="443" type="line" smooth="yes"/>
      <point x="131" y="446"/>
    </contour>
  </outline>
</glyph>
<glyph name="v" format="2">
  <advance width="475"/>
  <unicode hex="0076"/>
  <outline>
    <contour>
      <point x="236" y="-2" type="curve" smooth="yes"/>
      <point x="262" y="-2"/>
      <point x="276" y="3"/>
      <point x="280" y="13" type="curve" smooth="yes"/>
      <point x="443" y="463" type="line" smooth="yes"/>
      <point x="450" y="482"/>
      <point x="437" y="499"/>
      <point x="417" y="500" type="curve" smooth="yes"/>
      <point x="399" y="501"/>
      <point x="373" y="495"/>
      <point x="370" y="486" type="curve" smooth="yes"/>
      <point x="236" y="75" type="line"/>
      <point x="103" y="486" type="line" smooth="yes"/>
      <point x="100" y="494"/>
      <point x="72" y="501"/>
      <point x="59" y="501" type="curve" smooth="yes"/>
      <point x="39" y="501"/>
      <point x="25" y="484"/>
      <point x="32" y="464" type="curve" smooth="yes"/>
      <point x="196" y="12" type="line" smooth="yes"/>
      <point x="200" y="2"/>
      <point x="209" y="-2"/>
    </contour>
  </outline>
</glyph>
<glyph name="x" format="2">
  <advance width="413"/>
  <unicode hex="0078"/>
  <outline>
    <contour>
      <point x="51" y="2" type="curve" smooth="yes"/>
      <point x="92" y="2" type="line" smooth="yes"/>
      <point x="103" y="2"/>
      <point x="109" y="11"/>
      <point x="112" y="22" type="curve" smooth="yes"/>
      <point x="172" y="227" type="line" smooth="yes"/>
      <point x="175" y="238"/>
      <point x="181" y="247"/>
      <point x="192" y="247" type="curve" smooth="yes"/>
      <point x="221" y="247" type="line" smooth="yes"/>
      <point x="232" y="247"/>
      <point x="238" y="238"/>
      <point x="241" y="227" type="curve" smooth="yes"/>
      <point x="301" y="22" type="line" smooth="yes"/>
      <point x="304" y="11"/>
      <point x="310" y="2"/>
      <point x="321" y="2" type="curve" smooth="yes"/>
      <point x="362" y="2" type="line" smooth="yes"/>
      <point x="373" y="2"/>
      <point x="385" y="11"/>
      <point x="382" y="22" type="curve" smooth="yes"/>
      <point x="322" y="221" type="line" smooth="yes"/>
      <point x="317" y="238"/>
      <point x="310" y="252"/>
      <point x="300" y="261" type="curve"/>
      <point x="310" y="270"/>
      <point x="316" y="285"/>
      <point x="322" y="301" type="curve" smooth="yes"/>
      <point x="382" y="480" type="line" smooth="yes"/>
      <point x="386" y="491"/>
      <point x="373" y="500"/>
      <point x="362" y="500" type="curve" smooth="yes"/>
      <point x="321" y="500" type="line" smooth="yes"/>
      <point x="310" y="500"/>
      <point x="305" y="491"/>
      <point x="301" y="480" type="curve" smooth="yes"/>
      <point x="241" y="298" type="line" smooth="yes"/>
      <point x="237" y="287"/>
      <point x="232" y="278"/>
      <point x="221" y="278" type="curve" smooth="yes"/>
      <point x="192" y="278" type="line" smooth="yes"/>
      <point x="181" y="278"/>
      <point x="176" y="287"/>
      <point x="172" y="298" type="curve" smooth="yes"/>
      <point x="112" y="480" type="line" smooth="yes"/>
      <point x="108" y="491"/>
      <point x="103" y="500"/>
      <point x="92" y="500" type="curve" smooth="yes"/>
      <point x="51" y="500" type="line" smooth="yes"/>
      <point x="40" y="500"/>
      <point x="27" y="491"/>
      <point x="31" y="480" type="curve" smooth="yes"/>
      <point x="91" y="301" type="line" smooth="yes"/>
      <point x="97" y="285"/>
      <point x="103" y="270"/>
      <point x="113" y="261" type="curve"/>
      <point x="103" y="252"/>
      <point x="96" y="238"/>
      <point x="91" y="221" type="curve" smooth="yes"/>
      <point x="31" y="22" type="line" smooth="yes"/>
      <point x="28" y="11"/>
      <point x="40" y="2"/>
    </contour>
  </outline>
</glyph>
<glyph name="z" format="2">
  <advance width="461"/>
  <unicode hex="007A"/>
  <outline>
    <contour>
      <point x="81" y="0" type="curve" smooth="yes"/>
      <point x="380" y="0" type="line" smooth="yes"/>
      <point x="409" y="0"/>
      <point x="431" y="22"/>
      <point x="431" y="51" type="curve" smooth="yes"/>
      <point x="431" y="63"/>
      <point x="419" y="72"/>
      <point x="405" y="71" type="curve" smooth="yes"/>
      <point x="362" y="69" type="line" smooth="yes"/>
      <point x="355" y="69"/>
      <point x="350" y="65"/>
      <point x="346" y="58" type="curve" smooth="yes"/>
      <point x="342" y="52"/>
      <point x="336" y="48"/>
      <point x="330" y="48" type="curve" smooth="yes"/>
      <point x="131" y="48" type="line" smooth="yes"/>
      <point x="123" y="48"/>
      <point x="116" y="51"/>
      <point x="116" y="56" type="curve"/>
      <point x="430" y="461" type="line"/>
      <point x="430" y="484"/>
      <point x="405" y="500"/>
      <point x="380" y="500" type="curve" smooth="yes"/>
      <point x="81" y="500" type="line" smooth="yes"/>
      <point x="52" y="500"/>
      <point x="30" y="478"/>
      <point x="30" y="449" type="curve" smooth="yes"/>
      <point x="30" y="438" type="line" smooth="yes"/>
      <point x="30" y="424"/>
      <point x="41" y="413"/>
      <point x="55" y="413" type="curve" smooth="yes"/>
      <point x="87" y="414" type="line" smooth="yes"/>
      <point x="101" y="414"/>
      <point x="111" y="424"/>
      <point x="111" y="438" type="curve" smooth="yes"/>
      <point x="111" y="439" type="line" smooth="yes"/>
      <point x="111" y="445"/>
      <point x="120" y="452"/>
      <point x="131" y="452" type="curve" smooth="yes"/>
      <point x="329" y="452" type="line"/>
      <point x="42" y="75" type="line" smooth="yes"/>
      <point x="38" y="70"/>
      <point x="35" y="59"/>
      <point x="35" y="53" type="curve" smooth="yes"/>
      <point x="35" y="26"/>
      <point x="47" y="0"/>
    </contour>
  </outline>
</glyph>
<glyph name="braceleft" format="2">
  <advance width="349"/>
  <unicode hex="007B"/>
  <outline>
    <contour>
      <point x="161" y="-130" type="curve" smooth="yes"/>
      <point x="268" y="-130" type="line" smooth="yes"/>
      <point x="280" y="-130"/>
      <point x="289" y="-121"/>
      <point x="289" y="-109" type="curve" smooth="yes"/>
      <point x="288" y="-69" type="line" smooth="yes"/>
      <point x="288" y="-58"/>
      <point x="279" y="-49"/>
      <point x="268" y="-49" type="curve" smooth="yes"/>
      <point x="171" y="-49" type="line" smooth="yes"/>
      <point x="160" y="-49"/>
      <point x="151" y="-40"/>
      <point x="151" y="-29" type="curve" smooth="yes"/>
      <point x="151" y="227" type="line" smooth="yes"/>
      <point x="151" y="244"/>
      <point x="115" y="255"/>
      <point x="115" y="292" type="curve" smooth="yes"/>
      <point x="115" y="344"/>
      <point x="151" y="331"/>
      <point x="151" y="362" type="curve" smooth="yes"/>
      <point x="151" y="699" type="line" smooth="yes"/>
      <point x="151" y="710"/>
      <point x="160" y="719"/>
      <point x="171" y="719" type="curve" smooth="yes"/>
      <point x="257" y="719" type="line" smooth="yes"/>
      <point x="268" y="719"/>
      <point x="277" y="728"/>
      <point x="277" y="739" type="curve" smooth="yes"/>
      <point x="277" y="780" type="line" smooth="yes"/>
      <point x="277" y="791"/>
      <point x="268" y="800"/>
      <point x="257" y="800" type="curve" smooth="yes"/>
      <point x="161" y="800" type="line" smooth="yes"/>
      <point x="132" y="800"/>
      <point x="110" y="778"/>
      <point x="110" y="749" type="curve" smooth="yes"/>
      <point x="110" y="368" type="line"/>
      <point x="92" y="338"/>
      <point x="60" y="334"/>
      <point x="60" y="289" type="curve" smooth="yes"/>
      <point x="60" y="255"/>
      <point x="96" y="244"/>
      <point x="110" y="227" type="curve"/>
      <point x="110" y="-79" type="line" smooth="yes"/>
      <point x="110" y="-108"/>
      <point x="132" y="-130"/>
    </contour>
  </outline>
</glyph>
<glyph name="bar" format="2">
  <advance width="201"/>
  <unicode hex="007C"/>
  <outline>
    <contour>
      <point x="80" y="-60" type="curve" smooth="yes"/>
      <point x="121" y="-60" type="line" smooth="yes"/>
      <point x="132" y="-60"/>
      <point x="141" y="-51"/>
      <point x="141" y="-40" type="curve" smooth="yes"/>
      <point x="141" y="680" type="line" smooth="yes"/>
      <point x="141" y="691"/>
      <point x="125" y="700"/>
      <point x="99" y="700" type="curve" smooth="yes"/>
      <point x="76" y="700"/>
      <point x="60" y="692"/>
      <point x="60" y="673" type="curve" smooth="yes"/>
      <point x="60" y="-40" type="line" smooth="yes"/>
      <point x="60" y="-51"/>
      <point x="69" y="-60"/>
    </contour>
  </outline>
</glyph>
<glyph name="braceright" format="2">
  <advance width="349"/>
  <unicode hex="007D"/>
  <outline>
    <contour>
      <point x="81" y="-130" type="curve" smooth="yes"/>
      <point x="188" y="-130" type="line" smooth="yes"/>
      <point x="217" y="-130"/>
      <point x="239" y="-108"/>
      <point x="239" y="-79" type="curve" smooth="yes"/>
      <point x="239" y="227" type="line"/>
      <point x="253" y="244"/>
      <point x="289" y="255"/>
      <point x="289" y="289" type="curve" smooth="yes"/>
      <point x="289" y="334"/>
      <point x="257" y="338"/>
      <point x="239" y="368" type="curve"/>
      <point x="239" y="749" type="line" smooth="yes"/>
      <point x="239" y="778"/>
      <point x="217" y="800"/>
      <point x="188" y="800" type="curve" smooth="yes"/>
      <point x="92" y="800" type="line" smooth="yes"/>
      <point x="81" y="800"/>
      <point x="72" y="791"/>
      <point x="72" y="780" type="curve" smooth="yes"/>
      <point x="72" y="739" type="line" smooth="yes"/>
      <point x="72" y="728"/>
      <point x="81" y="719"/>
      <point x="92" y="719" type="curve" smooth="yes"/>
      <point x="178" y="719" type="line" smooth="yes"/>
      <point x="189" y="719"/>
      <point x="198" y="710"/>
      <point x="198" y="699" type="curve" smooth="yes"/>
      <point x="198" y="362" type="line" smooth="yes"/>
      <point x="198" y="331"/>
      <point x="234" y="344"/>
      <point x="234" y="292" type="curve" smooth="yes"/>
      <point x="234" y="255"/>
      <point x="198" y="244"/>
      <point x="198" y="227" type="curve" smooth="yes"/>
      <point x="198" y="-29" type="line" smooth="yes"/>
      <point x="198" y="-40"/>
      <point x="189" y="-49"/>
      <point x="178" y="-49" type="curve" smooth="yes"/>
      <point x="81" y="-49" type="line" smooth="yes"/>
      <point x="70" y="-49"/>
      <point x="61" y="-58"/>
      <point x="61" y="-69" type="curve" smooth="yes"/>
      <point x="60" y="-109" type="line" smooth="yes"/>
      <point x="60" y="-121"/>
      <point x="69" y="-130"/>
    </contour>
  </outline>
</glyph>
<glyph name="exclamdown" format="2">
  <advance width="231"/>
  <unicode hex="00A1"/>
  <note>
exclamdown
</note>
  <outline>
    <contour>
      <point x="93" y="-177" type="curve" smooth="yes"/>
      <point x="138" y="-177" type="line" smooth="yes"/>
      <point x="152" y="-177"/>
      <point x="163" y="-167"/>
      <point x="162" y="-152" type="curve" smooth="yes"/>
      <point x="139" y="331" type="line" smooth="yes"/>
      <point x="138" y="344"/>
      <point x="129" y="353"/>
      <point x="116" y="353" type="curve" smooth="yes"/>
      <point x="115" y="353" type="line" smooth="yes"/>
      <point x="102" y="353"/>
      <point x="93" y="344"/>
      <point x="92" y="331" type="curve" smooth="yes"/>
      <point x="69" y="-152" type="line" smooth="yes"/>
      <point x="68" y="-167"/>
      <point x="79" y="-177"/>
    </contour>
    <contour>
      <point x="83" y="426" type="curve" smooth="yes"/>
      <point x="148" y="426" type="line" smooth="yes"/>
      <point x="161" y="426"/>
      <point x="171" y="436"/>
      <point x="171" y="449" type="curve" smooth="yes"/>
      <point x="171" y="514" type="line" smooth="yes"/>
      <point x="171" y="527"/>
      <point x="161" y="537"/>
      <point x="148" y="537" type="curve" smooth="yes"/>
      <point x="83" y="537" type="line" smooth="yes"/>
      <point x="70" y="537"/>
      <point x="60" y="527"/>
      <point x="60" y="514" type="curve" smooth="yes"/>
      <point x="60" y="449" type="line" smooth="yes"/>
      <point x="60" y="436"/>
      <point x="70" y="426"/>
    </contour>
  </outline>
</glyph>
<glyph name="sterling" format="2">
  <advance width="476"/>
  <unicode hex="00A3"/>
  <outline>
    <contour>
      <point x="80" y="0" type="curve" smooth="yes"/>
      <point x="392" y="0" type="line" smooth="yes"/>
      <point x="406" y="0"/>
      <point x="416" y="10"/>
      <point x="416" y="24" type="curve" smooth="yes"/>
      <point x="416" y="38"/>
      <point x="406" y="48"/>
      <point x="392" y="48" type="curve" smooth="yes"/>
      <point x="143" y="48" type="line"/>
      <point x="147" y="98"/>
      <point x="200" y="155"/>
      <point x="213" y="209" type="curve" smooth="yes"/>
      <point x="234" y="293"/>
      <point x="232" y="315"/>
      <point x="236" y="413" type="curve" smooth="yes"/>
      <point x="237.617" y="452" type="line"/>
      <point x="330" y="452" type="line"/>
      <point x="330" y="500" type="line"/>
      <point x="239.606" y="500" type="line"/>
      <point x="244" y="606" type="line" smooth="yes"/>
      <point x="246" y="656"/>
      <point x="290" y="650"/>
      <point x="341" y="650" type="curve" smooth="yes"/>
      <point x="375" y="650" type="line"/>
      <point x="375" y="704" type="line"/>
      <point x="274" y="704" type="line" smooth="yes"/>
      <point x="221" y="704"/>
      <point x="177" y="668"/>
      <point x="175" y="614" type="curve" smooth="yes"/>
      <point x="170.183" y="500" type="line"/>
      <point x="124" y="500" type="line"/>
      <point x="124" y="452" type="line"/>
      <point x="168.155" y="452" type="line"/>
      <point x="166" y="401" type="line" smooth="yes"/>
      <point x="163" y="326"/>
      <point x="171" y="305"/>
      <point x="147" y="223" type="curve" smooth="yes"/>
      <point x="129" y="162"/>
      <point x="71" y="91"/>
      <point x="60" y="20" type="curve" smooth="yes"/>
      <point x="58" y="9"/>
      <point x="69" y="0"/>
    </contour>
  </outline>
</glyph>
<glyph name="currency" format="2">
  <advance width="504"/>
  <unicode hex="00A4"/>
  <outline>
    <contour>
      <point x="90" y="132" type="line"/>
      <point x="173" y="139" type="line"/>
      <point x="207.693" y="195.515" type="line"/>
      <point x="222.902" y="191.895"/>
      <point x="239.377" y="190"/>
      <point x="257" y="190" type="curve" smooth="yes"/>
      <point x="286.555" y="190"/>
      <point x="312.288" y="194.926"/>
      <point x="334.097" y="204.021" type="curve"/>
      <point x="366" y="161" type="line"/>
      <point x="444" y="168" type="line"/>
      <point x="387.799" y="243.223" type="line"/>
      <point x="411.107" y="271.35"/>
      <point x="423" y="309.15"/>
      <point x="423" y="353" type="curve" smooth="yes"/>
      <point x="423" y="406.261"/>
      <point x="403.416" y="453.422"/>
      <point x="367.16" y="483.751" type="curve"/>
      <point x="424" y="576" type="line"/>
      <point x="345" y="577" type="line"/>
      <point x="306.447" y="513.968" type="line"/>
      <point x="291.006" y="517.738"/>
      <point x="274.164" y="519.514"/>
      <point x="256" y="519" type="curve" smooth="yes"/>
      <point x="234.114" y="519"/>
      <point x="214.147" y="515.931"/>
      <point x="196.239" y="510.232" type="curve"/>
      <point x="145" y="573" type="line"/>
      <point x="60" y="575" type="line"/>
      <point x="139.245" y="477.614" type="line"/>
      <point x="106.573" y="447.568"/>
      <point x="89" y="403.453"/>
      <point x="89" y="353" type="curve" smooth="yes"/>
      <point x="89" y="297.97"/>
      <point x="109.599" y="252.917"/>
      <point x="146.414" y="224.232" type="curve"/>
    </contour>
    <contour>
      <point x="255" y="247" type="curve" smooth="yes"/>
      <point x="202" y="249"/>
      <point x="159" y="295"/>
      <point x="157" y="353" type="curve" smooth="yes"/>
      <point x="157" y="433"/>
      <point x="200" y="469"/>
      <point x="256" y="469" type="curve" smooth="yes"/>
      <point x="295" y="469"/>
      <point x="353" y="455"/>
      <point x="355" y="352" type="curve"/>
      <point x="352" y="273"/>
      <point x="298" y="246"/>
    </contour>
  </outline>
</glyph>
<glyph name="brokenbar" format="2">
  <advance width="201"/>
  <unicode hex="00A6"/>
  <outline>
    <contour>
      <point x="80" y="-100" type="curve" smooth="yes"/>
      <point x="121" y="-100" type="line" smooth="yes"/>
      <point x="132" y="-100"/>
      <point x="141" y="-91"/>
      <point x="141" y="-80" type="curve" smooth="yes"/>
      <point x="141" y="233" type="line" smooth="yes"/>
      <point x="141" y="246"/>
      <point x="131" y="256"/>
      <point x="118" y="256" type="curve" smooth="yes"/>
      <point x="84" y="257" type="line" smooth="yes"/>
      <point x="71" y="257"/>
      <point x="60" y="246"/>
      <point x="60" y="233" type="curve" smooth="yes"/>
      <point x="60" y="-80" type="line" smooth="yes"/>
      <point x="60" y="-91"/>
      <point x="69" y="-100"/>
    </contour>
    <contour>
      <point x="117" y="376" type="line" smooth="yes"/>
      <point x="130" y="376"/>
      <point x="141" y="387"/>
      <point x="141" y="400" type="curve" smooth="yes"/>
      <point x="141" y="680" type="line" smooth="yes"/>
      <point x="141" y="691"/>
      <point x="125" y="700"/>
      <point x="99" y="700" type="curve" smooth="yes"/>
      <point x="76" y="700"/>
      <point x="60" y="692"/>
      <point x="60" y="673" type="curve" smooth="yes"/>
      <point x="60" y="400" type="line" smooth="yes"/>
      <point x="60" y="387"/>
      <point x="70" y="377"/>
      <point x="83" y="377" type="curve" smooth="yes"/>
    </contour>
  </outline>
</glyph>
<glyph name="dieresis" format="2">
  <advance width="370"/>
  <unicode hex="00A8"/>
  <anchor x="191" y="502" name="_top"/>
  <outline>
    <contour>
      <point x="256" y="661" type="curve" smooth="yes"/>
      <point x="283" y="661" type="line" smooth="yes"/>
      <point x="299" y="661"/>
      <point x="310" y="672"/>
      <point x="310" y="688" type="curve" smooth="yes"/>
      <point x="310" y="739" type="line" smooth="yes"/>
      <point x="310" y="755"/>
      <point x="299" y="766"/>
      <point x="283" y="766" type="curve" smooth="yes"/>
      <point x="256" y="766" type="line" smooth="yes"/>
      <point x="240" y="766"/>
      <point x="229" y="755"/>
      <point x="229" y="739" type="curve" smooth="yes"/>
      <point x="229" y="688" type="line" smooth="yes"/>
      <point x="229" y="672"/>
      <point x="240" y="661"/>
    </contour>
    <contour>
      <point x="87" y="661" type="curve" smooth="yes"/>
      <point x="114" y="661" type="line" smooth="yes"/>
      <point x="130" y="661"/>
      <point x="141" y="672"/>
      <point x="141" y="688" type="curve" smooth="yes"/>
      <point x="141" y="739" type="line" smooth="yes"/>
      <point x="141" y="755"/>
      <point x="130" y="766"/>
      <point x="114" y="766" type="curve" smooth="yes"/>
      <point x="87" y="766" type="line" smooth="yes"/>
      <point x="71" y="766"/>
      <point x="60" y="755"/>
      <point x="60" y="739" type="curve" smooth="yes"/>
      <point x="60" y="688" type="line" smooth="yes"/>
      <point x="60" y="672"/>
      <point x="71" y="661"/>
    </contour>
  </outline>
</glyph>
<glyph name="copyright" format="2">
  <advance width="697"/>
  <unicode hex="00A9"/>
  <outline>
    <contour>
      <point x="349" y="49" type="curve" smooth="yes"/>
      <point x="509" y="49"/>
      <point x="637" y="183"/>
      <point x="637" y="351" type="curve" smooth="yes"/>
      <point x="637" y="519"/>
      <point x="509" y="653"/>
      <point x="349" y="653" type="curve" smooth="yes"/>
      <point x="188" y="653"/>
      <point x="60" y="519"/>
      <point x="60" y="351" type="curve" smooth="yes"/>
      <point x="60" y="183"/>
      <point x="188" y="49"/>
    </contour>
    <contour>
      <point x="351" y="139" type="curve" smooth="yes"/>
      <point x="391" y="139"/>
      <point x="428" y="157"/>
      <point x="457" y="188" type="curve"/>
      <point x="423" y="204" type="line"/>
      <point x="403" y="184"/>
      <point x="378" y="171"/>
      <point x="351" y="171" type="curve" smooth="yes"/>
      <point x="279" y="171"/>
      <point x="221" y="261"/>
      <point x="221" y="355" type="curve" smooth="yes"/>
      <point x="221" y="448"/>
      <point x="279" y="533"/>
      <point x="351" y="533" type="curve" smooth="yes"/>
      <point x="377" y="533"/>
      <point x="402" y="521"/>
      <point x="422" y="502" type="curve"/>
      <point x="463" y="513" type="line"/>
      <point x="433" y="549"/>
      <point x="394" y="570"/>
      <point x="351" y="570" type="curve" smooth="yes"/>
      <point x="260" y="570"/>
      <point x="185" y="474"/>
      <point x="185" y="355" type="curve" smooth="yes"/>
      <point x="185" y="235"/>
      <point x="260" y="139"/>
    </contour>
    <contour>
      <point x="349" y="90" type="curve" smooth="yes"/>
      <point x="210" y="90"/>
      <point x="99" y="206"/>
      <point x="99" y="351" type="curve" smooth="yes"/>
      <point x="99" y="496"/>
      <point x="210" y="612"/>
      <point x="349" y="612" type="curve" smooth="yes"/>
      <point x="487" y="612"/>
      <point x="598" y="496"/>
      <point x="598" y="351" type="curve" smooth="yes"/>
      <point x="598" y="206"/>
      <point x="487" y="90"/>
    </contour>
  </outline>
</glyph>
<glyph name="ordfeminine" format="2">
  <advance width="428"/>
  <unicode hex="00AA"/>
  <note>
ordfeminine
</note>
  <outline>
    <contour>
      <point x="167" y="380" type="curve" smooth="yes"/>
      <point x="216" y="380"/>
      <point x="255" y="395"/>
      <point x="284" y="426" type="curve"/>
      <point x="286" y="395"/>
      <point x="303" y="380"/>
      <point x="335" y="380" type="curve" smooth="yes"/>
      <point x="352" y="380"/>
      <point x="365" y="383"/>
      <point x="378" y="388" type="curve"/>
      <point x="378" y="432" type="line"/>
      <point x="374" y="431"/>
      <point x="370" y="430"/>
      <point x="367" y="430" type="curve" smooth="yes"/>
      <point x="356" y="430" type="line" smooth="yes"/>
      <point x="351" y="430"/>
      <point x="347" y="432"/>
      <point x="345" y="437" type="curve" smooth="yes"/>
      <point x="343" y="442"/>
      <point x="342" y="450"/>
      <point x="342" y="462" type="curve" smooth="yes"/>
      <point x="342" y="622" type="line" smooth="yes"/>
      <point x="342" y="695"/>
      <point x="270" y="709"/>
      <point x="212" y="709" type="curve" smooth="yes"/>
      <point x="138" y="709"/>
      <point x="68" y="682"/>
      <point x="65" y="603" type="curve"/>
      <point x="125" y="603" type="line"/>
      <point x="128" y="646"/>
      <point x="160" y="659"/>
      <point x="208" y="659" type="curve" smooth="yes"/>
      <point x="246" y="659"/>
      <point x="285" y="655"/>
      <point x="285" y="610" type="curve" smooth="yes"/>
      <point x="285" y="583"/>
      <point x="261" y="577"/>
      <point x="170" y="568" type="curve" smooth="yes"/>
      <point x="111" y="563"/>
      <point x="50" y="540"/>
      <point x="50" y="469" type="curve" smooth="yes"/>
      <point x="50" y="407"/>
      <point x="105" y="379"/>
    </contour>
    <contour>
      <point x="180" y="430" type="curve" smooth="yes"/>
      <point x="147" y="430"/>
      <point x="118" y="436"/>
      <point x="118" y="471" type="curve" smooth="yes"/>
      <point x="118" y="506"/>
      <point x="146" y="516"/>
      <point x="182" y="523" type="curve" smooth="yes"/>
      <point x="238" y="532" type="line" smooth="yes"/>
      <point x="257" y="535"/>
      <point x="271" y="539"/>
      <point x="282" y="546" type="curve"/>
      <point x="282" y="499" type="line" smooth="yes"/>
      <point x="282" y="466"/>
      <point x="251" y="430"/>
    </contour>
  </outline>
</glyph>
<glyph name="plusminus" format="2">
  <advance width="556"/>
  <unicode hex="00B1"/>
  <outline>
    <contour>
      <point x="250" y="177" type="curve" smooth="yes"/>
      <point x="291" y="177" type="line" smooth="yes"/>
      <point x="302" y="177"/>
      <point x="311" y="180"/>
      <point x="311" y="184" type="curve" smooth="yes"/>
      <point x="311" y="313" type="line"/>
      <point x="473" y="313" type="line" smooth="yes"/>
      <point x="486" y="313"/>
      <point x="496" y="323"/>
      <point x="496" y="336" type="curve" smooth="yes"/>
      <point x="496" y="360" type="line" smooth="yes"/>
      <point x="496" y="373"/>
      <point x="486" y="383"/>
      <point x="473" y="383" type="curve" smooth="yes"/>
      <point x="311" y="383" type="line"/>
      <point x="311" y="493" type="line" smooth="yes"/>
      <point x="311" y="497"/>
      <point x="295" y="500"/>
      <point x="269" y="500" type="curve" smooth="yes"/>
      <point x="246" y="500"/>
      <point x="230" y="497"/>
      <point x="230" y="491" type="curve" smooth="yes"/>
      <point x="230" y="383" type="line"/>
      <point x="83" y="383" type="line" smooth="yes"/>
      <point x="70" y="383"/>
      <point x="60" y="373"/>
      <point x="60" y="360" type="curve" smooth="yes"/>
      <point x="60" y="336" type="line" smooth="yes"/>
      <point x="60" y="323"/>
      <point x="70" y="313"/>
      <point x="83" y="313" type="curve" smooth="yes"/>
      <point x="230" y="313" type="line"/>
      <point x="230" y="184" type="line" smooth="yes"/>
      <point x="230" y="180"/>
      <point x="239" y="177"/>
    </contour>
    <contour>
      <point x="83" y="43" type="curve" smooth="yes"/>
      <point x="473" y="43" type="line" smooth="yes"/>
      <point x="486" y="43"/>
      <point x="496" y="53"/>
      <point x="496" y="66" type="curve" smooth="yes"/>
      <point x="496" y="90" type="line" smooth="yes"/>
      <point x="496" y="103"/>
      <point x="486" y="113"/>
      <point x="473" y="113" type="curve" smooth="yes"/>
      <point x="83" y="113" type="line" smooth="yes"/>
      <point x="70" y="113"/>
      <point x="60" y="103"/>
      <point x="60" y="90" type="curve" smooth="yes"/>
      <point x="60" y="66" type="line" smooth="yes"/>
      <point x="60" y="53"/>
      <point x="70" y="43"/>
    </contour>
  </outline>
</glyph>
<glyph name="acute" format="2">
  <advance width="282"/>
  <unicode hex="00B4"/>
  <anchor x="81" y="509" name="_top"/>
  <outline>
    <contour>
      <point x="83" y="611" type="line" smooth="yes"/>
      <point x="92" y="604"/>
      <point x="103" y="606"/>
      <point x="111" y="614" type="curve"/>
      <point x="217" y="740" type="line" smooth="yes"/>
      <point x="224" y="749"/>
      <point x="223" y="760"/>
      <point x="214" y="768" type="curve" smooth="yes"/>
      <point x="199" y="781" type="line" smooth="yes"/>
      <point x="190" y="788"/>
      <point x="179" y="786"/>
      <point x="171" y="778" type="curve"/>
      <point x="65" y="652" type="line" smooth="yes"/>
      <point x="58" y="643"/>
      <point x="59" y="632"/>
      <point x="68" y="624" type="curve" smooth="yes"/>
    </contour>
  </outline>
</glyph>
<glyph name="micro" format="2">
  <advance width="586"/>
  <unicode hex="00B5"/>
  <anchor x="254" y="499" name="top"/>
  <outline>
    <contour>
      <point x="85" y="-177" type="curve" smooth="yes"/>
      <point x="99" y="-177"/>
      <point x="109" y="-167"/>
      <point x="109" y="-153" type="curve" smooth="yes"/>
      <point x="109" y="57.524" type="line"/>
      <point x="141.468" y="25.893"/>
      <point x="191.457" y="-3.16"/>
      <point x="263" y="-9" type="curve" smooth="yes"/>
      <point x="325.962" y="-14.247"/>
      <point x="377.362" y="10.514"/>
      <point x="412" y="46.648" type="curve"/>
      <point x="412" y="24" type="line" smooth="yes"/>
      <point x="412" y="11"/>
      <point x="422" y="1"/>
      <point x="435" y="1" type="curve" smooth="yes"/>
      <point x="502" y="1" type="line" smooth="yes"/>
      <point x="516" y="1"/>
      <point x="526" y="11"/>
      <point x="526" y="25" type="curve" smooth="yes"/>
      <point x="526" y="39"/>
      <point x="516" y="49"/>
      <point x="502" y="49" type="curve" smooth="yes"/>
      <point x="460" y="49" type="line"/>
      <point x="460" y="143.205" type="line"/>
      <point x="460.663" y="148.532"/>
      <point x="461" y="153.809"/>
      <point x="461" y="159" type="curve" smooth="yes"/>
      <point x="461" y="480" type="line" smooth="yes"/>
      <point x="461" y="491"/>
      <point x="452" y="500"/>
      <point x="441" y="500" type="curve" smooth="yes"/>
      <point x="400" y="500" type="line" smooth="yes"/>
      <point x="389" y="500"/>
      <point x="380" y="491"/>
      <point x="380" y="480" type="curve" smooth="yes"/>
      <point x="380" y="146" type="line" smooth="yes"/>
      <point x="380" y="93"/>
      <point x="327" y="56"/>
      <point x="247" y="56" type="curve" smooth="yes"/>
      <point x="196" y="56"/>
      <point x="141" y="92"/>
      <point x="141" y="137" type="curve" smooth="yes"/>
      <point x="141" y="480" type="line" smooth="yes"/>
      <point x="141" y="491"/>
      <point x="132" y="500"/>
      <point x="121" y="500" type="curve" smooth="yes"/>
      <point x="80" y="500" type="line" smooth="yes"/>
      <point x="69" y="500"/>
      <point x="60" y="491"/>
      <point x="60" y="480" type="curve" smooth="yes"/>
      <point x="60" y="142" type="line"/>
      <point x="61" y="133.997" type="line"/>
      <point x="61" y="-153" type="line" smooth="yes"/>
      <point x="61" y="-167"/>
      <point x="71" y="-177"/>
    </contour>
  </outline>
</glyph>
<glyph name="guillemetright" format="2">
  <advance width="451"/>
  <unicode hex="00BB"/>
  <outline>
    <contour>
      <point x="210" y="96" type="line"/>
      <point x="290" y="96" type="line"/>
      <point x="386" y="269" type="line"/>
      <point x="387" y="270"/>
      <point x="398" y="292"/>
      <point x="385" y="312" type="curve" smooth="yes"/>
      <point x="290" y="456" type="line"/>
      <point x="210" y="456" type="line"/>
      <point x="313" y="295" type="line"/>
      <point x="314" y="294"/>
      <point x="320" y="284"/>
      <point x="314" y="274" type="curve" smooth="yes"/>
    </contour>
    <contour>
      <point x="60" y="96" type="line"/>
      <point x="140" y="96" type="line"/>
      <point x="236" y="269" type="line"/>
      <point x="237" y="270"/>
      <point x="248" y="292"/>
      <point x="235" y="312" type="curve" smooth="yes"/>
      <point x="140" y="456" type="line"/>
      <point x="60" y="456" type="line"/>
      <point x="163" y="295" type="line"/>
      <point x="164" y="294"/>
      <point x="170" y="284"/>
      <point x="164" y="274" type="curve" smooth="yes"/>
    </contour>
  </outline>
</glyph>
<glyph name="onequarter" format="2">
  <advance width="580"/>
  <unicode hex="00BC"/>
  <outline>
    <contour>
      <point x="80" y="-16" type="line"/>
      <point x="132" y="-16" type="line"/>
      <point x="428" y="731" type="line"/>
      <point x="375" y="731" type="line"/>
    </contour>
    <component base="four" xScale="0.5568" yScale="0.5568" xOffset="264" yOffset="45"/>
    <component base="one" xScale="0.5568" yScale="0.5568" xOffset="52" yOffset="295"/>
  </outline>
</glyph>
<glyph name="onehalf" format="2">
  <advance width="630"/>
  <unicode hex="00BD"/>
  <outline>
    <contour>
      <point x="76" y="-16" type="line"/>
      <point x="128" y="-16" type="line"/>
      <point x="424" y="731" type="line"/>
      <point x="371" y="731" type="line"/>
    </contour>
    <component base="two" xScale="0.5847" yScale="0.5847" xOffset="313" yOffset="45"/>
    <component base="one" xScale="0.6446" yScale="0.6446" xOffset="42" yOffset="254"/>
  </outline>
</glyph>
<glyph name="threequarters" format="2">
  <advance width="648"/>
  <unicode hex="00BE"/>
  <outline>
    <contour>
      <point x="132" y="-16" type="line"/>
      <point x="184" y="-16" type="line"/>
      <point x="480" y="731" type="line"/>
      <point x="427" y="731" type="line"/>
    </contour>
    <component base="three" xScale="0.481" yScale="0.481" xOffset="27" yOffset="401"/>
    <component base="four" xScale="0.5568" yScale="0.5568" xOffset="324" yOffset="55"/>
  </outline>
</glyph>
<glyph name="questiondown" format="2">
  <advance width="555"/>
  <unicode hex="00BF"/>
  <note>
questiondown
</note>
  <outline>
    <contour>
      <point x="302" y="374" type="curve" smooth="yes"/>
      <point x="267" y="374" type="line" smooth="yes"/>
      <point x="253" y="374"/>
      <point x="242" y="364"/>
      <point x="243" y="349" type="curve" smooth="yes"/>
      <point x="244" y="335" type="line" smooth="yes"/>
      <point x="248" y="266"/>
      <point x="200" y="231"/>
      <point x="155" y="187" type="curve" smooth="yes"/>
      <point x="112" y="144"/>
      <point x="73" y="99"/>
      <point x="73" y="17" type="curve" smooth="yes"/>
      <point x="73" y="-111"/>
      <point x="155" y="-170"/>
      <point x="280" y="-170" type="curve" smooth="yes"/>
      <point x="414" y="-170"/>
      <point x="494" y="-88"/>
      <point x="501" y="33" type="curve" smooth="yes"/>
      <point x="502" y="47"/>
      <point x="493" y="57"/>
      <point x="480" y="57" type="curve" smooth="yes"/>
      <point x="445" y="57" type="line" smooth="yes"/>
      <point x="432" y="57"/>
      <point x="426" y="48"/>
      <point x="425" y="35" type="curve" smooth="yes"/>
      <point x="419" y="-43"/>
      <point x="377" y="-122"/>
      <point x="280" y="-122" type="curve" smooth="yes"/>
      <point x="208" y="-122"/>
      <point x="159" y="-64"/>
      <point x="154" y="9" type="curve" smooth="yes"/>
      <point x="150" y="81"/>
      <point x="174" y="119"/>
      <point x="218" y="160" type="curve" smooth="yes"/>
      <point x="259" y="198"/>
      <point x="322" y="245"/>
      <point x="325" y="327" type="curve" smooth="yes"/>
      <point x="326" y="349" type="line" smooth="yes"/>
      <point x="327" y="364"/>
      <point x="316" y="374"/>
    </contour>
    <contour>
      <point x="318" y="548" type="curve" smooth="yes"/>
      <point x="253" y="548" type="line" smooth="yes"/>
      <point x="240" y="548"/>
      <point x="230" y="538"/>
      <point x="230" y="525" type="curve" smooth="yes"/>
      <point x="230" y="460" type="line" smooth="yes"/>
      <point x="230" y="447"/>
      <point x="240" y="437"/>
      <point x="253" y="437" type="curve" smooth="yes"/>
      <point x="318" y="437" type="line" smooth="yes"/>
      <point x="331" y="437"/>
      <point x="341" y="447"/>
      <point x="341" y="460" type="curve" smooth="yes"/>
      <point x="341" y="525" type="line" smooth="yes"/>
      <point x="341" y="538"/>
      <point x="331" y="548"/>
    </contour>
  </outline>
</glyph>
<glyph name="Eacute" format="2">
  <advance width="491"/>
  <unicode hex="00C9"/>
  <anchor x="245" y="638" name="top"/>
  <outline>
    <contour>
      <point x="72" y="260" type="line"/>
      <point x="369" y="260" type="line" smooth="yes"/>
      <point x="383" y="260"/>
      <point x="393" y="270"/>
      <point x="393" y="284" type="curve" smooth="yes"/>
      <point x="393" y="298"/>
      <point x="383" y="308"/>
      <point x="369" y="308" type="curve" smooth="yes"/>
      <point x="72" y="308" type="line"/>
    </contour>
    <component base="c.base"/>
    <component base="acute" xOffset="164" yOffset="129"/>
  </outline>
</glyph>
<glyph name="Ecircumflex" format="2">
  <advance width="491"/>
  <unicode hex="00CA"/>
  <anchor x="245" y="638" name="top"/>
  <outline>
    <contour>
      <point x="72" y="260" type="line"/>
      <point x="369" y="260" type="line" smooth="yes"/>
      <point x="383" y="260"/>
      <point x="393" y="270"/>
      <point x="393" y="284" type="curve" smooth="yes"/>
      <point x="393" y="298"/>
      <point x="383" y="308"/>
      <point x="369" y="308" type="curve" smooth="yes"/>
      <point x="72" y="308" type="line"/>
    </contour>
    <component base="c.base"/>
    <component base="circumflex" xOffset="72" yOffset="132"/>
  </outline>
</glyph>
<glyph name="Eth" format="2">
  <advance width="644"/>
  <unicode hex="00D0"/>
  <outline>
    <contour>
      <point x="120" y="0" type="curve" smooth="yes"/>
      <point x="161" y="0" type="line" smooth="yes"/>
      <point x="172" y="0"/>
      <point x="181" y="9"/>
      <point x="181" y="20" type="curve" smooth="yes"/>
      <point x="181" y="680" type="line" smooth="yes"/>
      <point x="181" y="691"/>
      <point x="165" y="700"/>
      <point x="139" y="700" type="curve" smooth="yes"/>
      <point x="116" y="700"/>
      <point x="100" y="692"/>
      <point x="100" y="673" type="curve" smooth="yes"/>
      <point x="100" y="20" type="line" smooth="yes"/>
      <point x="100" y="9"/>
      <point x="109" y="0"/>
    </contour>
    <component base="macron" xOffset="-40" yOffset="-320"/>
    <component base="c.base" xScale="-1" xOffset="603"/>
  </outline>
</glyph>
<glyph name="multiply" format="2">
  <advance width="501"/>
  <unicode hex="00D7"/>
  <outline>
    <contour>
      <point x="387" y="94" type="line"/>
      <point x="430" y="137" type="line"/>
      <point x="295.514" y="271.486" type="line"/>
      <point x="441" y="394" type="line"/>
      <point x="402" y="441" type="line"/>
      <point x="252.171" y="314.829" type="line"/>
      <point x="114" y="453" type="line"/>
      <point x="71" y="410" type="line"/>
      <point x="205.486" y="275.514" type="line"/>
      <point x="60" y="153" type="line"/>
      <point x="99" y="106" type="line"/>
      <point x="248.829" y="232.171" type="line"/>
    </contour>
  </outline>
</glyph>
<glyph name="ae" format="2">
  <advance width="822"/>
  <unicode hex="00E6"/>
  <anchor x="573" y="501" name="top"/>
  <outline>
    <contour>
      <point x="101" y="0" type="curve" smooth="yes"/>
      <point x="400" y="0" type="line" smooth="yes"/>
      <point x="403.798" y="0"/>
      <point x="407.476" y="0.377"/>
      <point x="411" y="1.098" type="curve"/>
      <point x="414.524" y="0.377"/>
      <point x="418.202" y="0"/>
      <point x="422" y="0" type="curve" smooth="yes"/>
      <point x="721" y="0" type="line" smooth="yes"/>
      <point x="750" y="0"/>
      <point x="772" y="22"/>
      <point x="772" y="51" type="curve" smooth="yes"/>
      <point x="772" y="60"/>
      <point x="762" y="67"/>
      <point x="748" y="67" type="curve" smooth="yes"/>
      <point x="716" y="68" type="line" smooth="yes"/>
      <point x="702" y="68"/>
      <point x="691" y="65"/>
      <point x="691" y="61" type="curve" smooth="yes"/>
      <point x="691" y="50"/>
      <point x="682" y="41"/>
      <point x="671" y="41" type="curve" smooth="yes"/>
      <point x="472" y="41" type="line" smooth="yes"/>
      <point x="461" y="41"/>
      <point x="452" y="50"/>
      <point x="452" y="61" type="curve" smooth="yes"/>
      <point x="452" y="260" type="line"/>
      <point x="739" y="260" type="line" smooth="yes"/>
      <point x="742" y="260"/>
      <point x="744" y="260"/>
      <point x="747" y="261" type="curve" smooth="yes"/>
      <point x="748" y="261" type="line" smooth="yes"/>
      <point x="762" y="261"/>
      <point x="772" y="271"/>
      <point x="772" y="285" type="curve" smooth="yes"/>
      <point x="772" y="449" type="line" smooth="yes"/>
      <point x="772" y="478"/>
      <point x="750" y="500"/>
      <point x="721" y="500" type="curve" smooth="yes"/>
      <point x="422" y="500" type="line" smooth="yes"/>
      <point x="418.202" y="500"/>
      <point x="414.524" y="499.623"/>
      <point x="411" y="498.902" type="curve"/>
      <point x="407.476" y="499.623"/>
      <point x="403.798" y="500"/>
      <point x="400" y="500" type="curve" smooth="yes"/>
      <point x="101" y="500" type="line" smooth="yes"/>
      <point x="72" y="500"/>
      <point x="50" y="478"/>
      <point x="50" y="449" type="curve" smooth="yes"/>
      <point x="50" y="437" type="line" smooth="yes"/>
      <point x="50" y="424"/>
      <point x="61" y="413"/>
      <point x="74" y="413" type="curve" smooth="yes"/>
      <point x="108" y="414" type="line" smooth="yes"/>
      <point x="121" y="414"/>
      <point x="131" y="424"/>
      <point x="131" y="437" type="curve" smooth="yes"/>
      <point x="131" y="439" type="line" smooth="yes"/>
      <point x="131" y="445"/>
      <point x="140" y="452"/>
      <point x="151" y="452" type="curve" smooth="yes"/>
      <point x="350" y="452" type="line" smooth="yes"/>
      <point x="361" y="452"/>
      <point x="370" y="447"/>
      <point x="370" y="439" type="curve" smooth="yes"/>
      <point x="370" y="294" type="line"/>
      <point x="101" y="294" type="line" smooth="yes"/>
      <point x="72" y="294"/>
      <point x="50" y="272"/>
      <point x="50" y="243" type="curve" smooth="yes"/>
      <point x="50" y="51" type="line" smooth="yes"/>
      <point x="50" y="22"/>
      <point x="72" y="0"/>
    </contour>
    <contour>
      <point x="151" y="48" type="line" smooth="yes"/>
      <point x="140" y="48"/>
      <point x="131" y="58"/>
      <point x="131" y="71" type="curve" smooth="yes"/>
      <point x="131" y="229" type="line" smooth="yes"/>
      <point x="131" y="240"/>
      <point x="140" y="246"/>
      <point x="151" y="246" type="curve" smooth="yes"/>
      <point x="350" y="246" type="line" smooth="yes"/>
      <point x="361" y="246"/>
      <point x="370" y="236"/>
      <point x="370" y="225" type="curve" smooth="yes"/>
      <point x="370" y="71" type="line" smooth="yes"/>
      <point x="370" y="60"/>
      <point x="361" y="48"/>
      <point x="350" y="48" type="curve" smooth="yes"/>
    </contour>
    <contour>
      <point x="452" y="308" type="line"/>
      <point x="452" y="439" type="line" smooth="yes"/>
      <point x="452" y="450"/>
      <point x="461" y="459"/>
      <point x="472" y="459" type="curve" smooth="yes"/>
      <point x="671" y="459" type="line" smooth="yes"/>
      <point x="682" y="459"/>
      <point x="691" y="450"/>
      <point x="691" y="439" type="curve" smooth="yes"/>
      <point x="691" y="308" type="line"/>
    </contour>
  </outline>
</glyph>
<glyph name="eth" format="2">
  <advance width="468"/>
  <unicode hex="00F0"/>
  <outline>
    <contour>
      <point x="203" y="-32" type="curve" smooth="yes"/>
      <point x="308" y="-32"/>
      <point x="400" y="42"/>
      <point x="400" y="205" type="curve" smooth="yes"/>
      <point x="400" y="393"/>
      <point x="369" y="480"/>
      <point x="350" y="569" type="curve"/>
      <point x="418" y="587" type="line"/>
      <point x="409" y="619" type="line"/>
      <point x="337" y="602" type="line"/>
      <point x="310" y="694" type="line" smooth="yes"/>
      <point x="307" y="705"/>
      <point x="296" y="712"/>
      <point x="286" y="709" type="curve" smooth="yes"/>
      <point x="263" y="702" type="line" smooth="yes"/>
      <point x="252" y="699"/>
      <point x="246" y="688"/>
      <point x="249" y="677" type="curve" smooth="yes"/>
      <point x="274" y="583" type="line"/>
      <point x="193" y="561" type="line"/>
      <point x="202" y="529" type="line"/>
      <point x="291" y="551" type="line"/>
      <point x="332" y="349" type="line"/>
      <point x="303" y="398"/>
      <point x="253" y="409"/>
      <point x="203" y="409" type="curve" smooth="yes"/>
      <point x="119" y="409"/>
      <point x="34" y="368"/>
      <point x="34" y="205" type="curve" smooth="yes"/>
      <point x="34" y="24"/>
      <point x="87" y="-32"/>
    </contour>
    <contour>
      <point x="203" y="23" type="curve" smooth="yes"/>
      <point x="141" y="23"/>
      <point x="111" y="65"/>
      <point x="111" y="205" type="curve" smooth="yes"/>
      <point x="111" y="307"/>
      <point x="121" y="364"/>
      <point x="206" y="364" type="curve" smooth="yes"/>
      <point x="264" y="364"/>
      <point x="327" y="313"/>
      <point x="327" y="205" type="curve" smooth="yes"/>
      <point x="327" y="96"/>
      <point x="286" y="23"/>
    </contour>
  </outline>
</glyph>
<glyph name="divide" format="2">
  <advance width="596"/>
  <unicode hex="00F7"/>
  <outline>
    <contour>
      <point x="257" y="50" type="curve" smooth="yes"/>
      <point x="325" y="50" type="line" smooth="yes"/>
      <point x="338" y="50"/>
      <point x="348" y="60"/>
      <point x="348" y="73" type="curve" smooth="yes"/>
      <point x="348" y="140" type="line" smooth="yes"/>
      <point x="348" y="153"/>
      <point x="338" y="163"/>
      <point x="325" y="163" type="curve" smooth="yes"/>
      <point x="257" y="163" type="line" smooth="yes"/>
      <point x="244" y="163"/>
      <point x="234" y="153"/>
      <point x="234" y="140" type="curve" smooth="yes"/>
      <point x="234" y="73" type="line" smooth="yes"/>
      <point x="234" y="60"/>
      <point x="244" y="50"/>
    </contour>
    <contour>
      <point x="257" y="420" type="curve" smooth="yes"/>
      <point x="325" y="420" type="line" smooth="yes"/>
      <point x="338" y="420"/>
      <point x="348" y="430"/>
      <point x="348" y="443" type="curve" smooth="yes"/>
      <point x="348" y="510" type="line" smooth="yes"/>
      <point x="348" y="523"/>
      <point x="338" y="533"/>
      <point x="325" y="533" type="curve" smooth="yes"/>
      <point x="257" y="533" type="line" smooth="yes"/>
      <point x="244" y="533"/>
      <point x="234" y="523"/>
      <point x="234" y="510" type="curve" smooth="yes"/>
      <point x="234" y="443" type="line" smooth="yes"/>
      <point x="234" y="430"/>
      <point x="244" y="420"/>
    </contour>
    <contour>
      <point x="60" y="251" type="line"/>
      <point x="497" y="251" type="line"/>
      <point x="497" y="327" type="line"/>
      <point x="60" y="327" type="line"/>
    </contour>
  </outline>
</glyph>
<glyph name="OE" format="2">
  <advance width="1056"/>
  <unicode hex="0152"/>
  <anchor x="910" y="638" name="top"/>
  <outline>
    <contour>
      <point x="485" y="260" type="line"/>
      <point x="782" y="260" type="line" smooth="yes"/>
      <point x="796" y="260"/>
      <point x="806" y="270"/>
      <point x="806" y="284" type="curve" smooth="yes"/>
      <point x="806" y="298"/>
      <point x="796" y="308"/>
      <point x="782" y="308" type="curve" smooth="yes"/>
      <point x="485" y="308" type="line"/>
    </contour>
    <contour>
      <point x="603" y="-1" type="curve" smooth="yes"/>
      <point x="870" y="-1" type="line" smooth="yes"/>
      <point x="884" y="-1"/>
      <point x="894" y="15"/>
      <point x="894" y="29" type="curve" smooth="yes"/>
      <point x="894" y="43"/>
      <point x="884" y="53"/>
      <point x="870" y="53" type="curve" smooth="yes"/>
      <point x="629" y="53" type="line" smooth="yes"/>
      <point x="602" y="53"/>
      <point x="593" y="68"/>
      <point x="593" y="123" type="curve" smooth="yes"/>
      <point x="593" y="590" type="line" smooth="yes"/>
      <point x="593" y="629"/>
      <point x="600" y="643"/>
      <point x="641" y="643" type="curve" smooth="yes"/>
      <point x="859" y="643" type="line" smooth="yes"/>
      <point x="870" y="643"/>
      <point x="881" y="645"/>
      <point x="884" y="664" type="curve" smooth="yes"/>
      <point x="887" y="684"/>
      <point x="878" y="699"/>
      <point x="866" y="699" type="curve" smooth="yes"/>
      <point x="607" y="699" type="line" smooth="yes"/>
      <point x="543" y="699"/>
      <point x="513" y="627"/>
      <point x="513" y="588" type="curve" smooth="yes"/>
      <point x="513" y="125" type="line" smooth="yes"/>
      <point x="513" y="24"/>
      <point x="562" y="-1"/>
    </contour>
    <component base="O"/>
  </outline>
</glyph>
<glyph name="oe" format="2">
  <advance width="822"/>
  <unicode hex="0153"/>
  <anchor x="763" y="501" name="top"/>
  <outline>
    <contour>
      <point x="91" y="0" type="curve" smooth="yes"/>
      <point x="410" y="0" type="line"/>
      <point x="415.61" y="0.364" type="line"/>
      <point x="422" y="0" type="line"/>
      <point x="721" y="0" type="line" smooth="yes"/>
      <point x="750" y="0"/>
      <point x="772" y="22"/>
      <point x="772" y="51" type="curve" smooth="yes"/>
      <point x="772" y="60"/>
      <point x="762" y="67"/>
      <point x="748" y="67" type="curve" smooth="yes"/>
      <point x="716" y="68" type="line" smooth="yes"/>
      <point x="702" y="68"/>
      <point x="691" y="65"/>
      <point x="691" y="61" type="curve" smooth="yes"/>
      <point x="691" y="50"/>
      <point x="682" y="41"/>
      <point x="671" y="41" type="curve" smooth="yes"/>
      <point x="472" y="41" type="line" smooth="yes"/>
      <point x="461" y="41"/>
      <point x="452" y="50"/>
      <point x="452" y="61" type="curve" smooth="yes"/>
      <point x="452" y="249" type="line"/>
      <point x="624" y="249" type="line" smooth="yes"/>
      <point x="641" y="249"/>
      <point x="650" y="251"/>
      <point x="653" y="256" type="curve" smooth="yes"/>
      <point x="729" y="381" type="line" smooth="yes"/>
      <point x="741" y="401"/>
      <point x="758" y="421"/>
      <point x="759" y="449" type="curve" smooth="yes"/>
      <point x="760" y="487"/>
      <point x="750" y="500"/>
      <point x="721" y="500" type="curve" smooth="yes"/>
      <point x="422" y="500" type="line"/>
      <point x="415.61" y="499.636" type="line"/>
      <point x="410" y="500" type="line"/>
      <point x="91" y="500" type="line" smooth="yes"/>
      <point x="68" y="500"/>
      <point x="50" y="482"/>
      <point x="50" y="459" type="curve" smooth="yes"/>
      <point x="50" y="41" type="line" smooth="yes"/>
      <point x="50" y="18"/>
      <point x="68" y="0"/>
    </contour>
    <contour>
      <point x="151" y="47" type="line" smooth="yes"/>
      <point x="140" y="47"/>
      <point x="131" y="56"/>
      <point x="131" y="67" type="curve" smooth="yes"/>
      <point x="131" y="433" type="line" smooth="yes"/>
      <point x="131" y="444"/>
      <point x="140" y="453"/>
      <point x="151" y="453" type="curve" smooth="yes"/>
      <point x="350" y="453" type="line" smooth="yes"/>
      <point x="361" y="453"/>
      <point x="370" y="444"/>
      <point x="370" y="433" type="curve" smooth="yes"/>
      <point x="370" y="67" type="line" smooth="yes"/>
      <point x="370" y="56"/>
      <point x="361" y="47"/>
      <point x="350" y="47" type="curve" smooth="yes"/>
    </contour>
    <contour>
      <point x="452" y="303" type="line"/>
      <point x="452" y="439" type="line" smooth="yes"/>
      <point x="452" y="450"/>
      <point x="461" y="459"/>
      <point x="472" y="459" type="curve" smooth="yes"/>
      <point x="671" y="459" type="line" smooth="yes"/>
      <point x="702" y="459"/>
      <point x="704" y="443"/>
      <point x="699" y="434" type="curve" smooth="yes"/>
      <point x="629" y="314" type="line" smooth="yes"/>
      <point x="624" y="306"/>
      <point x="613" y="302"/>
      <point x="578" y="303" type="curve" smooth="yes"/>
    </contour>
  </outline>
</glyph>
<glyph name="circumflex" format="2">
  <advance width="360"/>
  <unicode hex="02C6"/>
  <anchor x="173" y="506" name="_top"/>
  <outline>
    <contour>
      <point x="85" y="577" type="line" smooth="yes"/>
      <point x="94" y="570"/>
      <point x="107" y="590"/>
      <point x="113" y="599" type="curve" smooth="yes"/>
      <point x="182" y="702" type="line"/>
      <point x="246" y="599" type="line" smooth="yes"/>
      <point x="252" y="589"/>
      <point x="263" y="570"/>
      <point x="274" y="577" type="curve" smooth="yes"/>
      <point x="290" y="587" type="line" smooth="yes"/>
      <point x="300" y="593"/>
      <point x="303" y="604"/>
      <point x="297" y="614" type="curve" smooth="yes"/>
      <point x="210" y="754" type="line" smooth="yes"/>
      <point x="204" y="764"/>
      <point x="195" y="770"/>
      <point x="182" y="770" type="curve" smooth="yes"/>
      <point x="171" y="770"/>
      <point x="161" y="761"/>
      <point x="155" y="753" type="curve" smooth="yes"/>
      <point x="64" y="616" type="line" smooth="yes"/>
      <point x="58" y="607"/>
      <point x="59" y="596"/>
      <point x="69" y="589" type="curve" smooth="yes"/>
    </contour>
  </outline>
</glyph>
<glyph name="uni02CA" format="2">
  <advance width="318"/>
  <unicode hex="02CA"/>
  <note>
uni02CA
</note>
  <outline>
    <contour>
      <point x="60" y="592" type="line"/>
      <point x="128" y="592" type="line"/>
      <point x="258" y="733" type="line"/>
      <point x="150" y="733" type="line"/>
    </contour>
  </outline>
</glyph>
<glyph name="fu-ethiopic" format="2">
  <advance width="501"/>
  <unicode hex="1349"/>
  <anchor x="277" y="5" name="haa"/>
  <anchor x="479" y="76" name="haa.acute"/>
  <anchor x="446" y="261" name="hee"/>
  <anchor x="291" y="-6" name="hwa"/>
  <anchor x="428" y="112" name="ri"/>
  <anchor x="376" y="475" name="ring"/>
  <anchor x="225" y="264" name="top"/>
  <outline>
    <contour>
      <point x="173" y="-155" type="line" smooth="yes"/>
      <point x="182" y="-162"/>
      <point x="193" y="-160"/>
      <point x="201" y="-152" type="curve"/>
      <point x="307" y="-26" type="line" smooth="yes"/>
      <point x="314" y="-17"/>
      <point x="313" y="-6"/>
      <point x="304" y="2" type="curve" smooth="yes"/>
      <point x="289" y="15" type="line" smooth="yes"/>
      <point x="280" y="22"/>
      <point x="269" y="20"/>
      <point x="261" y="12" type="curve"/>
      <point x="155" y="-114" type="line" smooth="yes"/>
      <point x="148" y="-123"/>
      <point x="149" y="-134"/>
      <point x="158" y="-142" type="curve" smooth="yes"/>
    </contour>
    <component base="fa.base"/>
  </outline>
</glyph>
<glyph name="sectionmark-ethiopic" format="2">
  <advance width="692"/>
  <unicode hex="1360"/>
  <outline>
    <contour>
      <point x="167" y="218" type="curve" smooth="yes"/>
      <point x="167" y="286" type="line" smooth="yes"/>
      <point x="167" y="299"/>
      <point x="157" y="308"/>
      <point x="144" y="309" type="curve" smooth="yes"/>
      <point x="77" y="308" type="line" smooth="yes"/>
      <point x="64" y="309"/>
      <point x="54" y="299"/>
      <point x="54" y="285" type="curve" smooth="yes"/>
      <point x="54" y="218" type="line" smooth="yes"/>
      <point x="53" y="205"/>
      <point x="63" y="195"/>
      <point x="77" y="195" type="curve" smooth="yes"/>
      <point x="144" y="195" type="line" smooth="yes"/>
      <point x="157" y="194"/>
      <point x="167" y="204"/>
    </contour>
    <contour>
      <point x="291" y="0" type="curve" smooth="yes"/>
      <point x="359" y="0" type="line" smooth="yes"/>
      <point x="372" y="0"/>
      <point x="382" y="10"/>
      <point x="382" y="23" type="curve" smooth="yes"/>
      <point x="382" y="90" type="line" smooth="yes"/>
      <point x="382" y="103"/>
      <point x="372" y="113"/>
      <point x="359" y="113" type="curve" smooth="yes"/>
      <point x="291" y="113" type="line" smooth="yes"/>
      <point x="278" y="113"/>
      <point x="268" y="103"/>
      <point x="268" y="90" type="curve" smooth="yes"/>
      <point x="268" y="23" type="line" smooth="yes"/>
      <point x="268" y="10"/>
      <point x="278" y="0"/>
    </contour>
    <contour>
      <point x="557" y="217" type="curve" smooth="yes"/>
      <point x="557" y="285" type="line" smooth="yes"/>
      <point x="557" y="298"/>
      <point x="547" y="308"/>
      <point x="534" y="308" type="curve" smooth="yes"/>
      <point x="467" y="308" type="line" smooth="yes"/>
      <point x="454" y="308"/>
      <point x="444" y="298"/>
      <point x="444" y="285" type="curve" smooth="yes"/>
      <point x="444" y="217" type="line" smooth="yes"/>
      <point x="444" y="204"/>
      <point x="454" y="194"/>
      <point x="467" y="194" type="curve" smooth="yes"/>
      <point x="534" y="194" type="line" smooth="yes"/>
      <point x="547" y="194"/>
      <point x="557" y="204"/>
    </contour>
    <contour>
      <point x="291" y="390" type="curve" smooth="yes"/>
      <point x="359" y="390" type="line" smooth="yes"/>
      <point x="372" y="390"/>
      <point x="382" y="400"/>
      <point x="382" y="413" type="curve" smooth="yes"/>
      <point x="382" y="480" type="line" smooth="yes"/>
      <point x="382" y="493"/>
      <point x="372" y="503"/>
      <point x="359" y="503" type="curve" smooth="yes"/>
      <point x="291" y="503" type="line" smooth="yes"/>
      <point x="278" y="503"/>
      <point x="268" y="493"/>
      <point x="268" y="480" type="curve" smooth="yes"/>
      <point x="268" y="413" type="line" smooth="yes"/>
      <point x="268" y="400"/>
      <point x="278" y="390"/>
    </contour>
  </outline>
</glyph>
<glyph name="wordspace-ethiopic" format="2">
  <advance width="233"/>
  <unicode hex="1361"/>
  <outline>
    <contour>
      <point x="83" y="74" type="curve" smooth="yes"/>
      <point x="150" y="74" type="line" smooth="yes"/>
      <point x="163" y="74"/>
      <point x="173" y="84"/>
      <point x="173" y="97" type="curve" smooth="yes"/>
      <point x="173" y="166" type="line" smooth="yes"/>
      <point x="173" y="179"/>
      <point x="163" y="189"/>
      <point x="150" y="189" type="curve" smooth="yes"/>
      <point x="83" y="189" type="line" smooth="yes"/>
      <point x="70" y="189"/>
      <point x="60" y="179"/>
      <point x="60" y="166" type="curve" smooth="yes"/>
      <point x="60" y="97" type="line" smooth="yes"/>
      <point x="60" y="84"/>
      <point x="70" y="74"/>
    </contour>
    <contour>
      <point x="83" y="395" type="curve" smooth="yes"/>
      <point x="150" y="395" type="line" smooth="yes"/>
      <point x="163" y="395"/>
      <point x="173" y="405"/>
      <point x="173" y="418" type="curve" smooth="yes"/>
      <point x="173" y="486" type="line" smooth="yes"/>
      <point x="173" y="499"/>
      <point x="163" y="509"/>
      <point x="150" y="509" type="curve" smooth="yes"/>
      <point x="83" y="509" type="line" smooth="yes"/>
      <point x="70" y="509"/>
      <point x="60" y="499"/>
      <point x="60" y="486" type="curve" smooth="yes"/>
      <point x="60" y="418" type="line" smooth="yes"/>
      <point x="60" y="405"/>
      <point x="70" y="395"/>
    </contour>
  </outline>
</glyph>
<glyph name="semicolon-ethiopic" format="2">
  <advance width="399"/>
  <unicode hex="1364"/>
  <outline>
    <contour>
      <point x="123" y="500" type="curve" smooth="yes"/>
      <point x="329" y="500" type="line" smooth="yes"/>
      <point x="342" y="500"/>
      <point x="352" y="510"/>
      <point x="352" y="523" type="curve" smooth="yes"/>
      <point x="352" y="554" type="line" smooth="yes"/>
      <point x="352" y="567"/>
      <point x="342" y="577"/>
      <point x="329" y="577" type="curve" smooth="yes"/>
      <point x="123" y="577" type="line" smooth="yes"/>
      <point x="110" y="577"/>
      <point x="100" y="567"/>
      <point x="100" y="554" type="curve" smooth="yes"/>
      <point x="100" y="523" type="line" smooth="yes"/>
      <point x="100" y="510"/>
      <point x="110" y="500"/>
    </contour>
    <contour>
      <point x="120" y="-72" type="curve" smooth="yes"/>
      <point x="316" y="-72" type="line" smooth="yes"/>
      <point x="329" y="-72"/>
      <point x="339" y="-62"/>
      <point x="339" y="-49" type="curve" smooth="yes"/>
      <point x="339" y="-23" type="line" smooth="yes"/>
      <point x="339" y="-10"/>
      <point x="329" y="0"/>
      <point x="316" y="0" type="curve" smooth="yes"/>
      <point x="120" y="0" type="line" smooth="yes"/>
      <point x="107" y="0"/>
      <point x="97" y="-10"/>
      <point x="97" y="-23" type="curve" smooth="yes"/>
      <point x="97" y="-49" type="line" smooth="yes"/>
      <point x="97" y="-62"/>
      <point x="107" y="-72"/>
    </contour>
    <contour>
      <point x="181" y="75" type="curve" smooth="yes"/>
      <point x="248" y="75" type="line" smooth="yes"/>
      <point x="261" y="75"/>
      <point x="271" y="85"/>
      <point x="271" y="98" type="curve" smooth="yes"/>
      <point x="271" y="166" type="line" smooth="yes"/>
      <point x="271" y="179"/>
      <point x="261" y="189"/>
      <point x="248" y="189" type="curve" smooth="yes"/>
      <point x="181" y="189" type="line" smooth="yes"/>
      <point x="168" y="189"/>
      <point x="158" y="179"/>
      <point x="158" y="166" type="curve" smooth="yes"/>
      <point x="158" y="98" type="line" smooth="yes"/>
      <point x="158" y="85"/>
      <point x="168" y="75"/>
    </contour>
    <contour>
      <point x="182" y="325" type="curve" smooth="yes"/>
      <point x="249" y="325" type="line" smooth="yes"/>
      <point x="262" y="325"/>
      <point x="272" y="335"/>
      <point x="272" y="348" type="curve" smooth="yes"/>
      <point x="272" y="416" type="line" smooth="yes"/>
      <point x="272" y="429"/>
      <point x="262" y="439"/>
      <point x="249" y="439" type="curve" smooth="yes"/>
      <point x="182" y="439" type="line" smooth="yes"/>
      <point x="169" y="439"/>
      <point x="158" y="428"/>
      <point x="158" y="415" type="curve" smooth="yes"/>
      <point x="159" y="348" type="line" smooth="yes"/>
      <point x="159" y="334"/>
      <point x="169" y="325"/>
    </contour>
  </outline>
</glyph>
<glyph name="prefacecolon-ethiopic" format="2">
  <advance width="568"/>
  <unicode hex="1366"/>
  <outline>
    <contour>
      <point x="213" y="257" type="curve" smooth="yes"/>
      <point x="475" y="257" type="line" smooth="yes"/>
      <point x="488" y="257"/>
      <point x="498" y="267"/>
      <point x="498" y="280" type="curve" smooth="yes"/>
      <point x="498" y="305" type="line" smooth="yes"/>
      <point x="498" y="318"/>
      <point x="488" y="328"/>
      <point x="475" y="328" type="curve" smooth="yes"/>
      <point x="213" y="328" type="line" smooth="yes"/>
      <point x="200" y="328"/>
      <point x="190" y="318"/>
      <point x="190" y="305" type="curve" smooth="yes"/>
      <point x="190" y="280" type="line" smooth="yes"/>
      <point x="190" y="267"/>
      <point x="200" y="257"/>
    </contour>
    <contour>
      <point x="177" y="0" type="curve" smooth="yes"/>
      <point x="245" y="0" type="line" smooth="yes"/>
      <point x="258" y="0"/>
      <point x="268" y="10"/>
      <point x="268" y="23" type="curve" smooth="yes"/>
      <point x="268" y="90" type="line" smooth="yes"/>
      <point x="268" y="103"/>
      <point x="258" y="113"/>
      <point x="245" y="113" type="curve" smooth="yes"/>
      <point x="177" y="113" type="line" smooth="yes"/>
      <point x="164" y="113"/>
      <point x="154" y="103"/>
      <point x="154" y="90" type="curve" smooth="yes"/>
      <point x="154" y="23" type="line" smooth="yes"/>
      <point x="154" y="10"/>
      <point x="164" y="0"/>
    </contour>
    <contour>
      <point x="177" y="500" type="curve" smooth="yes"/>
      <point x="245" y="500" type="line" smooth="yes"/>
      <point x="258" y="500"/>
      <point x="268" y="510"/>
      <point x="268" y="523" type="curve" smooth="yes"/>
      <point x="268" y="590" type="line" smooth="yes"/>
      <point x="268" y="603"/>
      <point x="258" y="613"/>
      <point x="245" y="613" type="curve" smooth="yes"/>
      <point x="177" y="613" type="line" smooth="yes"/>
      <point x="164" y="613"/>
      <point x="154" y="603"/>
      <point x="154" y="590" type="curve" smooth="yes"/>
      <point x="154" y="523" type="line" smooth="yes"/>
      <point x="154" y="510"/>
      <point x="164" y="500"/>
    </contour>
  </outline>
</glyph>
<glyph name="paragraphseparator-ethiopic" format="2">
  <advance width="484"/>
  <unicode hex="1368"/>
  <outline>
    <contour>
      <point x="333" y="390" type="curve" smooth="yes"/>
      <point x="401" y="390" type="line" smooth="yes"/>
      <point x="414" y="390"/>
      <point x="424" y="400"/>
      <point x="424" y="413" type="curve" smooth="yes"/>
      <point x="424" y="480" type="line" smooth="yes"/>
      <point x="424" y="493"/>
      <point x="414" y="503"/>
      <point x="401" y="503" type="curve" smooth="yes"/>
      <point x="333" y="503" type="line" smooth="yes"/>
      <point x="320" y="503"/>
      <point x="310" y="493"/>
      <point x="310" y="480" type="curve" smooth="yes"/>
      <point x="310" y="413" type="line" smooth="yes"/>
      <point x="310" y="400"/>
      <point x="320" y="390"/>
    </contour>
    <contour>
      <point x="83" y="10" type="curve" smooth="yes"/>
      <point x="151" y="10" type="line" smooth="yes"/>
      <point x="164" y="10"/>
      <point x="174" y="20"/>
      <point x="174" y="33" type="curve" smooth="yes"/>
      <point x="174" y="100" type="line" smooth="yes"/>
      <point x="174" y="113"/>
      <point x="164" y="123"/>
      <point x="151" y="123" type="curve" smooth="yes"/>
      <point x="83" y="123" type="line" smooth="yes"/>
      <point x="70" y="123"/>
      <point x="60" y="113"/>
      <point x="60" y="100" type="curve" smooth="yes"/>
      <point x="60" y="33" type="line" smooth="yes"/>
      <point x="60" y="20"/>
      <point x="70" y="10"/>
    </contour>
    <contour>
      <point x="333" y="10" type="curve" smooth="yes"/>
      <point x="401" y="10" type="line" smooth="yes"/>
      <point x="414" y="10"/>
      <point x="424" y="20"/>
      <point x="424" y="33" type="curve" smooth="yes"/>
      <point x="424" y="100" type="line" smooth="yes"/>
      <point x="424" y="113"/>
      <point x="414" y="123"/>
      <point x="401" y="123" type="curve" smooth="yes"/>
      <point x="333" y="123" type="line" smooth="yes"/>
      <point x="320" y="123"/>
      <point x="310" y="113"/>
      <point x="310" y="100" type="curve" smooth="yes"/>
      <point x="310" y="33" type="line" smooth="yes"/>
      <point x="310" y="20"/>
      <point x="320" y="10"/>
    </contour>
    <contour>
      <point x="83" y="390" type="curve" smooth="yes"/>
      <point x="151" y="390" type="line" smooth="yes"/>
      <point x="164" y="390"/>
      <point x="174" y="400"/>
      <point x="174" y="413" type="curve" smooth="yes"/>
      <point x="174" y="480" type="line" smooth="yes"/>
      <point x="174" y="493"/>
      <point x="164" y="503"/>
      <point x="151" y="503" type="curve" smooth="yes"/>
      <point x="83" y="503" type="line" smooth="yes"/>
      <point x="70" y="503"/>
      <point x="60" y="493"/>
      <point x="60" y="480" type="curve" smooth="yes"/>
      <point x="60" y="413" type="line" smooth="yes"/>
      <point x="60" y="400"/>
      <point x="70" y="390"/>
    </contour>
    <contour>
      <point x="213" y="496" type="curve" smooth="yes"/>
      <point x="278" y="496" type="line" smooth="yes"/>
      <point x="291" y="496"/>
      <point x="301" y="506"/>
      <point x="301" y="519" type="curve" smooth="yes"/>
      <point x="301" y="584" type="line" smooth="yes"/>
      <point x="301" y="597"/>
      <point x="291" y="607"/>
      <point x="278" y="607" type="curve" smooth="yes"/>
      <point x="213" y="607" type="line" smooth="yes"/>
      <point x="200" y="607"/>
      <point x="190" y="597"/>
      <point x="190" y="584" type="curve" smooth="yes"/>
      <point x="190" y="519" type="line" smooth="yes"/>
      <point x="190" y="506"/>
      <point x="200" y="496"/>
    </contour>
    <contour>
      <point x="213" y="-90" type="curve" smooth="yes"/>
      <point x="278" y="-90" type="line" smooth="yes"/>
      <point x="291" y="-90"/>
      <point x="301" y="-80"/>
      <point x="301" y="-67" type="curve" smooth="yes"/>
      <point x="301" y="-2" type="line" smooth="yes"/>
      <point x="301" y="11"/>
      <point x="291" y="21"/>
      <point x="278" y="21" type="curve" smooth="yes"/>
      <point x="213" y="21" type="line" smooth="yes"/>
      <point x="200" y="21"/>
      <point x="190" y="11"/>
      <point x="190" y="-2" type="curve" smooth="yes"/>
      <point x="190" y="-67" type="line" smooth="yes"/>
      <point x="190" y="-80"/>
      <point x="200" y="-90"/>
    </contour>
  </outline>
</glyph>
<glyph name="two-ethiopic" format="2">
  <advance width="503"/>
  <unicode hex="136A"/>
  <outline>
    <contour>
      <point x="177" y="472" type="line" smooth="yes"/>
      <point x="171.266" y="472"/>
      <point x="162" y="477"/>
      <point x="162" y="486" type="curve" smooth="yes"/>
      <point x="162" y="581" type="line" smooth="yes"/>
      <point x="162" y="586"/>
      <point x="166" y="590"/>
      <point x="175" y="590" type="curve" smooth="yes"/>
      <point x="339" y="590" type="line" smooth="yes"/>
      <point x="353" y="590"/>
      <point x="360" y="582"/>
      <point x="360" y="558" type="curve" smooth="yes"/>
      <point x="360" y="492" type="line" smooth="yes"/>
      <point x="360" y="481"/>
      <point x="350" y="472"/>
      <point x="339" y="472" type="curve" smooth="yes"/>
    </contour>
    <contour>
      <point x="95" y="133" type="line" smooth="yes"/>
      <point x="95" y="79"/>
      <point x="109" y="61"/>
      <point x="134" y="61" type="curve" smooth="yes"/>
      <point x="354" y="61" type="line" smooth="yes"/>
      <point x="401" y="61"/>
      <point x="421" y="69"/>
      <point x="421" y="116" type="curve" smooth="yes"/>
      <point x="421" y="320" type="line" smooth="yes"/>
      <point x="421" y="342"/>
      <point x="419" y="389"/>
      <point x="357" y="389" type="curve" smooth="yes"/>
      <point x="182" y="389" type="line" smooth="yes"/>
      <point x="170" y="389"/>
      <point x="162" y="396"/>
      <point x="162" y="409" type="curve" smooth="yes"/>
      <point x="162" y="428" type="line"/>
      <point x="380" y="428" type="line" smooth="yes"/>
      <point x="411" y="428"/>
      <point x="423" y="450"/>
      <point x="423" y="482" type="curve" smooth="yes"/>
      <point x="423" y="598" type="line" smooth="yes"/>
      <point x="423" y="630"/>
      <point x="403" y="638"/>
      <point x="349" y="638" type="curve" smooth="yes"/>
      <point x="168" y="638" type="line" smooth="yes"/>
      <point x="119" y="638"/>
      <point x="95" y="614"/>
      <point x="95" y="584" type="curve" smooth="yes"/>
    </contour>
    <contour>
      <point x="162" y="120" type="curve" smooth="yes"/>
      <point x="162" y="349" type="line"/>
      <point x="336" y="349" type="line" smooth="yes"/>
      <point x="346" y="349"/>
      <point x="355" y="341"/>
      <point x="355" y="330" type="curve" smooth="yes"/>
      <point x="355" y="125" type="line" smooth="yes"/>
      <point x="355" y="115"/>
      <point x="350" y="106"/>
      <point x="344" y="106" type="curve" smooth="yes"/>
      <point x="181" y="106" type="line" smooth="yes"/>
      <point x="173" y="106"/>
      <point x="162" y="109"/>
    </contour>
    <component base="_number.bar"/>
  </outline>
</glyph>
<glyph name="three-ethiopic" format="2">
  <advance width="499"/>
  <unicode hex="136B"/>
  <outline>
    <contour>
      <point x="162" y="120" type="curve"/>
      <point x="162" y="581" type="line"/>
      <point x="162" y="591"/>
      <point x="165" y="594"/>
      <point x="173" y="594" type="curve" smooth="yes"/>
      <point x="347" y="594" type="line" smooth="yes"/>
      <point x="353" y="594"/>
      <point x="355" y="591"/>
      <point x="355" y="581" type="curve" smooth="yes"/>
      <point x="355" y="573"/>
      <point x="364" y="566"/>
      <point x="376" y="566" type="curve" smooth="yes"/>
      <point x="402" y="566" type="line" smooth="yes"/>
      <point x="414" y="566"/>
      <point x="422" y="575"/>
      <point x="422" y="584" type="curve" smooth="yes"/>
      <point x="422" y="617"/>
      <point x="410" y="638"/>
      <point x="349" y="638" type="curve" smooth="yes"/>
      <point x="178" y="638" type="line" smooth="yes"/>
      <point x="119" y="638"/>
      <point x="95" y="614"/>
      <point x="95" y="584" type="curve"/>
      <point x="95" y="133" type="line" smooth="yes"/>
      <point x="94" y="79"/>
      <point x="109" y="61"/>
      <point x="134" y="61" type="curve" smooth="yes"/>
      <point x="168" y="61" type="line"/>
      <point x="168" y="109" type="line"/>
      <point x="165" y="111"/>
      <point x="162" y="114"/>
    </contour>
    <component base="_number.bar"/>
  </outline>
</glyph>
<glyph name="five-ethiopic" format="2">
  <advance width="499"/>
  <unicode hex="136D"/>
  <outline>
    <contour>
      <point x="162" y="580" type="line"/>
      <point x="162" y="586"/>
      <point x="165" y="589"/>
      <point x="168" y="591" type="curve"/>
      <point x="168" y="639" type="line"/>
      <point x="134" y="639" type="line" smooth="yes"/>
      <point x="109" y="639"/>
      <point x="94" y="621"/>
      <point x="95" y="567" type="curve" smooth="yes"/>
      <point x="95" y="116" type="line"/>
      <point x="95" y="86"/>
      <point x="119" y="62"/>
      <point x="178" y="62" type="curve" smooth="yes"/>
      <point x="349" y="62" type="line" smooth="yes"/>
      <point x="410" y="62"/>
      <point x="422" y="83"/>
      <point x="422" y="116" type="curve" smooth="yes"/>
      <point x="422" y="125"/>
      <point x="414" y="134"/>
      <point x="402" y="134" type="curve" smooth="yes"/>
      <point x="376" y="134" type="line" smooth="yes"/>
      <point x="364" y="134"/>
      <point x="355" y="127"/>
      <point x="355" y="119" type="curve" smooth="yes"/>
      <point x="355" y="109"/>
      <point x="353" y="106"/>
      <point x="347" y="106" type="curve" smooth="yes"/>
      <point x="173" y="106" type="line" smooth="yes"/>
      <point x="165" y="106"/>
      <point x="162" y="109"/>
      <point x="162" y="119" type="curve"/>
    </contour>
    <contour>
      <point x="124" y="500" type="line"/>
      <point x="124" y="455" type="line"/>
      <point x="329" y="455" type="line"/>
      <point x="329" y="500" type="line"/>
    </contour>
    <component base="_number.bar" yScale="-1" yOffset="700"/>
  </outline>
</glyph>
<glyph name="six-ethiopic" format="2">
  <advance width="499"/>
  <unicode hex="136E"/>
  <outline>
    <contour>
      <point x="292" y="78" type="curve" smooth="yes"/>
      <point x="337" y="78"/>
      <point x="375" y="117"/>
      <point x="375" y="164" type="curve" smooth="yes"/>
      <point x="375" y="207"/>
      <point x="341" y="244"/>
      <point x="299" y="248" type="curve"/>
      <point x="400" y="552" type="line" smooth="yes"/>
      <point x="411" y="585"/>
      <point x="379" y="612"/>
      <point x="314" y="612" type="curve" smooth="yes"/>
      <point x="142" y="612" type="line" smooth="yes"/>
      <point x="76" y="612"/>
      <point x="50" y="588"/>
      <point x="50" y="552" type="curve" smooth="yes"/>
      <point x="50" y="541" type="line"/>
      <point x="111" y="541" type="line"/>
      <point x="111" y="548" type="line" smooth="yes"/>
      <point x="111" y="560"/>
      <point x="115" y="563"/>
      <point x="126" y="563" type="curve" smooth="yes"/>
      <point x="319" y="563" type="line" smooth="yes"/>
      <point x="331" y="563"/>
      <point x="338" y="560"/>
      <point x="334" y="548" type="curve" smooth="yes"/>
      <point x="229" y="219" type="line"/>
      <point x="216" y="204"/>
      <point x="208" y="185"/>
      <point x="208" y="164" type="curve" smooth="yes"/>
      <point x="208" y="117"/>
      <point x="246" y="78"/>
    </contour>
    <contour>
      <point x="292" y="116" type="curve" smooth="yes"/>
      <point x="266" y="116"/>
      <point x="245" y="137"/>
      <point x="245" y="164" type="curve" smooth="yes"/>
      <point x="245" y="190"/>
      <point x="266" y="210"/>
      <point x="292" y="210" type="curve" smooth="yes"/>
      <point x="318" y="210"/>
      <point x="338" y="190"/>
      <point x="338" y="164" type="curve" smooth="yes"/>
      <point x="338" y="137"/>
      <point x="318" y="116"/>
    </contour>
    <component base="_number.bar" xScale="-1" xOffset="499"/>
  </outline>
</glyph>
<glyph name="seven-ethiopic" format="2">
  <advance width="513"/>
  <unicode hex="136F"/>
  <outline>
    <contour>
      <point x="203" y="75" type="line"/>
      <point x="389" y="75" type="line"/>
      <point x="389" y="117" type="line"/>
      <point x="278" y="117" type="line"/>
      <point x="432" y="573" type="line" smooth="yes"/>
      <point x="443" y="609"/>
      <point x="410" y="639"/>
      <point x="341" y="639" type="curve" smooth="yes"/>
      <point x="163" y="639" type="line" smooth="yes"/>
      <point x="94" y="639"/>
      <point x="66" y="613"/>
      <point x="66" y="573" type="curve" smooth="yes"/>
      <point x="66" y="561" type="line"/>
      <point x="129" y="561" type="line"/>
      <point x="129" y="569" type="line" smooth="yes"/>
      <point x="129" y="582"/>
      <point x="133" y="585"/>
      <point x="146" y="585" type="curve" smooth="yes"/>
      <point x="347" y="585" type="line" smooth="yes"/>
      <point x="359" y="585"/>
      <point x="367" y="582"/>
      <point x="361" y="569" type="curve" smooth="yes"/>
    </contour>
    <component base="_number.bar" xScale="-1" xOffset="513"/>
  </outline>
</glyph>
<glyph name="eight-ethiopic" format="2">
  <advance width="499"/>
  <unicode hex="1370"/>
  <outline>
    <contour>
      <point x="154" y="97" type="line"/>
      <point x="154" y="62" type="line"/>
      <point x="303" y="62" type="line"/>
      <point x="303" y="97" type="line"/>
    </contour>
    <contour>
      <point x="132" y="638" type="line"/>
      <point x="132" y="579" type="line"/>
      <point x="338" y="579" type="line"/>
      <point x="338" y="638" type="line"/>
    </contour>
    <component base="_number.bar"/>
    <component base="one" xScale="0.8227" yScale="0.8227" xOffset="121" yOffset="62"/>
  </outline>
</glyph>
<glyph name="nine-ethiopic" format="2">
  <advance width="499"/>
  <unicode hex="1371"/>
  <outline>
    <contour>
      <point x="356" y="84" type="line" smooth="yes"/>
      <point x="414" y="83"/>
      <point x="421" y="130"/>
      <point x="421" y="148" type="curve" smooth="yes"/>
      <point x="421" y="552" type="line" smooth="yes"/>
      <point x="421" y="586"/>
      <point x="400" y="612"/>
      <point x="337" y="613" type="curve"/>
      <point x="337" y="564" type="line"/>
      <point x="339" y="564" type="line" smooth="yes"/>
      <point x="352" y="564"/>
      <point x="355" y="561"/>
      <point x="355" y="549" type="curve" smooth="yes"/>
      <point x="355" y="433" type="line"/>
      <point x="133" y="433" type="line"/>
      <point x="133" y="549" type="line" smooth="yes"/>
      <point x="133" y="559"/>
      <point x="135" y="563"/>
      <point x="144" y="564" type="curve"/>
      <point x="143" y="612" type="line"/>
      <point x="91" y="606"/>
      <point x="70" y="584"/>
      <point x="70" y="552" type="curve" smooth="yes"/>
      <point x="70" y="154" type="line" smooth="yes"/>
      <point x="70" y="122"/>
      <point x="84" y="88"/>
      <point x="140" y="87" type="curve" smooth="yes"/>
    </contour>
    <contour>
      <point x="146" y="135" type="line" smooth="yes"/>
      <point x="136" y="135"/>
      <point x="133" y="139"/>
      <point x="133" y="150" type="curve" smooth="yes"/>
      <point x="133" y="394" type="line"/>
      <point x="355" y="394" type="line"/>
      <point x="355" y="150" type="line" smooth="yes"/>
      <point x="355" y="139"/>
      <point x="352" y="135"/>
      <point x="339" y="135" type="curve" smooth="yes"/>
    </contour>
    <component base="_number.bar"/>
  </outline>
</glyph>
<glyph name="ten-ethiopic" format="2">
  <advance width="340"/>
  <unicode hex="1372"/>
  <outline>
    <contour>
      <point x="141" y="62" type="line"/>
      <point x="207" y="62" type="line"/>
      <point x="207" y="638" type="line"/>
      <point x="130" y="638" type="line" smooth="yes"/>
      <point x="119" y="638"/>
      <point x="110" y="630"/>
      <point x="110" y="618" type="curve" smooth="yes"/>
      <point x="110" y="598" type="line" smooth="yes"/>
      <point x="110" y="587"/>
      <point x="119" y="579"/>
      <point x="130" y="579" type="curve" smooth="yes"/>
      <point x="141" y="579" type="line"/>
    </contour>
    <component base="_number.bar" xScale="0.6809"/>
  </outline>
</glyph>
<glyph name="twenty-ethiopic" format="2">
  <advance width="499"/>
  <unicode hex="1373"/>
  <outline>
    <contour>
      <point x="355" y="73" type="line"/>
      <point x="421" y="73" type="line"/>
      <point x="421" y="320" type="line" smooth="yes"/>
      <point x="421" y="342"/>
      <point x="419" y="389"/>
      <point x="357" y="389" type="curve" smooth="yes"/>
      <point x="182" y="389" type="line" smooth="yes"/>
      <point x="170" y="389"/>
      <point x="162" y="396"/>
      <point x="162" y="409" type="curve" smooth="yes"/>
      <point x="162" y="581" type="line" smooth="yes"/>
      <point x="162" y="591"/>
      <point x="165" y="594"/>
      <point x="173" y="594" type="curve" smooth="yes"/>
      <point x="347" y="594" type="line" smooth="yes"/>
      <point x="353" y="594"/>
      <point x="355" y="587"/>
      <point x="355" y="577" type="curve" smooth="yes"/>
      <point x="355" y="565"/>
      <point x="422" y="561"/>
      <point x="422" y="584" type="curve" smooth="yes"/>
      <point x="422" y="617"/>
      <point x="410" y="638"/>
      <point x="349" y="638" type="curve" smooth="yes"/>
      <point x="178" y="638" type="line" smooth="yes"/>
      <point x="119" y="638"/>
      <point x="95" y="614"/>
      <point x="95" y="584" type="curve" smooth="yes"/>
      <point x="95" y="73" type="line"/>
      <point x="162" y="73" type="line"/>
      <point x="162" y="349" type="line"/>
      <point x="336" y="349" type="line" smooth="yes"/>
      <point x="346" y="349"/>
      <point x="355" y="341"/>
      <point x="355" y="330" type="curve" smooth="yes"/>
    </contour>
    <component base="_number.bar"/>
  </outline>
</glyph>
<glyph name="thirty-ethiopic" format="2">
  <advance width="499"/>
  <unicode hex="1374"/>
  <outline>
    <contour>
      <point x="77" y="71" type="line"/>
      <point x="134" y="71" type="line"/>
      <point x="134" y="560" type="line" smooth="yes"/>
      <point x="134" y="572"/>
      <point x="147" y="585"/>
      <point x="167" y="585" type="curve" smooth="yes"/>
      <point x="192" y="585"/>
      <point x="203" y="575"/>
      <point x="203" y="562" type="curve" smooth="yes"/>
      <point x="203" y="136" type="line" smooth="yes"/>
      <point x="203" y="100"/>
      <point x="255" y="74"/>
      <point x="308" y="74" type="curve" smooth="yes"/>
      <point x="383" y="74"/>
      <point x="411" y="113"/>
      <point x="411" y="138" type="curve" smooth="yes"/>
      <point x="411" y="625" type="line"/>
      <point x="351" y="625" type="line"/>
      <point x="351" y="140" type="line" smooth="yes"/>
      <point x="351" y="112"/>
      <point x="258" y="116"/>
      <point x="258" y="140" type="curve" smooth="yes"/>
      <point x="258" y="589" type="line" smooth="yes"/>
      <point x="258" y="610"/>
      <point x="236" y="634"/>
      <point x="162" y="634" type="curve" smooth="yes"/>
      <point x="110" y="634"/>
      <point x="77" y="608"/>
      <point x="77" y="573" type="curve" smooth="yes"/>
    </contour>
    <component base="_number.bar"/>
  </outline>
</glyph>
<glyph name="forty-ethiopic" format="2">
  <advance width="499"/>
  <unicode hex="1375"/>
  <outline>
    <contour>
      <point x="144" y="630" type="line"/>
      <point x="78" y="630" type="line"/>
      <point x="78" y="383" type="line" smooth="yes"/>
      <point x="78" y="361"/>
      <point x="80" y="314"/>
      <point x="142" y="314" type="curve" smooth="yes"/>
      <point x="317" y="314" type="line" smooth="yes"/>
      <point x="329" y="314"/>
      <point x="337" y="307"/>
      <point x="337" y="294" type="curve" smooth="yes"/>
      <point x="337" y="122" type="line" smooth="yes"/>
      <point x="337" y="112"/>
      <point x="334" y="109"/>
      <point x="326" y="109" type="curve" smooth="yes"/>
      <point x="152" y="109" type="line" smooth="yes"/>
      <point x="146" y="109"/>
      <point x="144" y="116"/>
      <point x="144" y="126" type="curve" smooth="yes"/>
      <point x="144" y="138"/>
      <point x="77" y="142"/>
      <point x="77" y="119" type="curve" smooth="yes"/>
      <point x="77" y="86"/>
      <point x="89" y="65"/>
      <point x="150" y="65" type="curve" smooth="yes"/>
      <point x="321" y="65" type="line" smooth="yes"/>
      <point x="380" y="65"/>
      <point x="404" y="89"/>
      <point x="404" y="119" type="curve" smooth="yes"/>
      <point x="404" y="630" type="line"/>
      <point x="337" y="630" type="line"/>
      <point x="337" y="354" type="line"/>
      <point x="163" y="354" type="line" smooth="yes"/>
      <point x="153" y="354"/>
      <point x="144" y="362"/>
      <point x="144" y="373" type="curve" smooth="yes"/>
    </contour>
    <component base="_number.bar"/>
  </outline>
</glyph>
<glyph name="sixty-ethiopic" format="2">
  <advance width="437"/>
  <unicode hex="1377"/>
  <outline>
    <contour>
      <point x="113" y="74" type="line"/>
      <point x="319" y="74" type="line"/>
      <point x="319" y="126" type="line"/>
      <point x="279" y="126" type="line"/>
      <point x="279" y="384" type="line" smooth="yes"/>
      <point x="279" y="397"/>
      <point x="269" y="407"/>
      <point x="256" y="407" type="curve" smooth="yes"/>
      <point x="230" y="407" type="line"/>
      <point x="233" y="570" type="line"/>
      <point x="319" y="570" type="line"/>
      <point x="319" y="636" type="line"/>
      <point x="113" y="636" type="line"/>
      <point x="113" y="570" type="line"/>
      <point x="168" y="570" type="line"/>
      <point x="168" y="364" type="line" smooth="yes"/>
      <point x="168" y="351"/>
      <point x="178" y="341"/>
      <point x="191" y="341" type="curve" smooth="yes"/>
      <point x="215" y="341" type="line"/>
      <point x="215" y="126" type="line"/>
      <point x="113" y="126" type="line"/>
    </contour>
    <component base="_number.bar" xScale="0.8351" xOffset="10"/>
  </outline>
</glyph>
<glyph name="seventy-ethiopic" format="2">
  <advance width="903"/>
  <unicode hex="1378"/>
  <anchor x="359" y="337" name="_top"/>
  <outline>
    <contour>
      <point x="157" y="86" type="curve" smooth="yes"/>
      <point x="366" y="86" type="line" smooth="yes"/>
      <point x="377" y="86"/>
      <point x="385" y="99"/>
      <point x="385" y="110" type="curve" smooth="yes"/>
      <point x="385" y="121"/>
      <point x="377" y="129"/>
      <point x="366" y="129" type="curve" smooth="yes"/>
      <point x="177" y="129" type="line" smooth="yes"/>
      <point x="156" y="129"/>
      <point x="149" y="141"/>
      <point x="149" y="184" type="curve" smooth="yes"/>
      <point x="149" y="549" type="line" smooth="yes"/>
      <point x="149" y="579"/>
      <point x="155" y="591"/>
      <point x="187" y="591" type="curve" smooth="yes"/>
      <point x="358" y="591" type="line" smooth="yes"/>
      <point x="366" y="591"/>
      <point x="375" y="592"/>
      <point x="377" y="607" type="curve" smooth="yes"/>
      <point x="380" y="622"/>
      <point x="373" y="635"/>
      <point x="363" y="635" type="curve" smooth="yes"/>
      <point x="160" y="635" type="line" smooth="yes"/>
      <point x="110" y="635"/>
      <point x="87" y="578"/>
      <point x="87" y="548" type="curve" smooth="yes"/>
      <point x="87" y="185" type="line" smooth="yes"/>
      <point x="87" y="106"/>
      <point x="125" y="86"/>
    </contour>
    <contour>
      <point x="361" y="449" type="curve" smooth="yes"/>
      <point x="412" y="449"/>
      <point x="454" y="491"/>
      <point x="454" y="542" type="curve" smooth="yes"/>
      <point x="454" y="593"/>
      <point x="412" y="635"/>
      <point x="361" y="635" type="curve" smooth="yes"/>
      <point x="312" y="635"/>
      <point x="269" y="593"/>
      <point x="269" y="542" type="curve" smooth="yes"/>
      <point x="269" y="491"/>
      <point x="312" y="449"/>
    </contour>
    <contour>
      <point x="353" y="494" type="curve" smooth="yes"/>
      <point x="325" y="494"/>
      <point x="305" y="514"/>
      <point x="305" y="542" type="curve" smooth="yes"/>
      <point x="305" y="570"/>
      <point x="325" y="590"/>
      <point x="353" y="590" type="curve" smooth="yes"/>
      <point x="381" y="590"/>
      <point x="401" y="570"/>
      <point x="401" y="542" type="curve" smooth="yes"/>
      <point x="401" y="514"/>
      <point x="381" y="494"/>
    </contour>
    <component base="_number.bar"/>
  </outline>
</glyph>
<glyph name="eighty-ethiopic" format="2">
  <advance width="458"/>
  <unicode hex="1379"/>
  <outline>
    <contour>
      <point x="137" y="65" type="line"/>
      <point x="192" y="65" type="line"/>
      <point x="192" y="600" type="line"/>
      <point x="272" y="600" type="line"/>
      <point x="272" y="65" type="line"/>
      <point x="326" y="65" type="line"/>
      <point x="326" y="600" type="line"/>
      <point x="391" y="600" type="line"/>
      <point x="391" y="636" type="line"/>
      <point x="67" y="636" type="line"/>
      <point x="67" y="600" type="line"/>
      <point x="137" y="600" type="line"/>
    </contour>
    <component base="_number.bar" xScale="0.8931" xOffset="6"/>
  </outline>
</glyph>
<glyph name="ninety-ethiopic" format="2">
  <advance width="499"/>
  <unicode hex="137A"/>
  <outline>
    <contour>
      <point x="210" y="56" type="line"/>
      <point x="276" y="56" type="line"/>
      <point x="276" y="368" type="line"/>
      <point x="411" y="585" type="line" smooth="yes"/>
      <point x="430" y="616"/>
      <point x="389" y="645"/>
      <point x="324" y="645" type="curve" smooth="yes"/>
      <point x="152" y="645" type="line" smooth="yes"/>
      <point x="86" y="645"/>
      <point x="60" y="620"/>
      <point x="60" y="585" type="curve" smooth="yes"/>
      <point x="60" y="575" type="line"/>
      <point x="121" y="575" type="line"/>
      <point x="121" y="581" type="line" smooth="yes"/>
      <point x="121" y="593"/>
      <point x="125" y="598"/>
      <point x="136" y="598" type="curve" smooth="yes"/>
      <point x="330" y="598" type="line" smooth="yes"/>
      <point x="340" y="598"/>
      <point x="353" y="593"/>
      <point x="346" y="581" type="curve" smooth="yes"/>
      <point x="191" y="337" type="line"/>
      <point x="210" y="306" type="line"/>
    </contour>
    <component base="_number.bar" xScale="-1" xOffset="499"/>
  </outline>
</glyph>
<glyph name="tenthousand-ethiopic" format="2">
  <advance width="699"/>
  <unicode hex="137C"/>
  <outline>
    <contour>
      <point x="137" y="249" type="line"/>
      <point x="137" y="221" type="line"/>
      <point x="360" y="221" type="line"/>
      <point x="360" y="249" type="line"/>
    </contour>
    <component base="_number.bar" xScale="1.4011"/>
    <component base="nine" xScale="-0.7107" yScale="0.7107" xOffset="398" yOffset="101"/>
    <component base="nine" xScale="-0.7107" yScale="0.7107" xOffset="689" yOffset="101"/>
  </outline>
</glyph>
<glyph name="quoteleft" format="2">
  <advance width="244"/>
  <unicode hex="2018"/>
  <outline>
    <contour>
      <point x="191" y="498" type="curve" smooth="yes"/>
      <point x="202" y="505" type="line" smooth="yes"/>
      <point x="210" y="511"/>
      <point x="212" y="520"/>
      <point x="210" y="529" type="curve" smooth="yes"/>
      <point x="162" y="702" type="line" smooth="yes"/>
      <point x="159" y="714"/>
      <point x="147" y="722"/>
      <point x="135" y="719" type="curve" smooth="yes"/>
      <point x="118" y="715" type="line" smooth="yes"/>
      <point x="103" y="712"/>
      <point x="94" y="698"/>
      <point x="99" y="683" type="curve" smooth="yes"/>
      <point x="157" y="514" type="line" smooth="yes"/>
      <point x="163" y="497"/>
      <point x="179" y="489"/>
    </contour>
  </outline>
</glyph>
<glyph name="quoteright" format="2">
  <advance width="244"/>
  <unicode hex="2019"/>
  <outline>
    <contour>
      <point x="87" y="514" type="curve" smooth="yes"/>
      <point x="145" y="684" type="line" smooth="yes"/>
      <point x="150" y="698"/>
      <point x="142" y="712"/>
      <point x="127" y="715" type="curve" smooth="yes"/>
      <point x="109" y="719" type="line" smooth="yes"/>
      <point x="97" y="721"/>
      <point x="85" y="715"/>
      <point x="82" y="703" type="curve" smooth="yes"/>
      <point x="34" y="529" type="line" smooth="yes"/>
      <point x="32" y="520"/>
      <point x="34" y="511"/>
      <point x="42" y="505" type="curve" smooth="yes"/>
      <point x="53" y="498" type="line" smooth="yes"/>
      <point x="65" y="489"/>
      <point x="81" y="497"/>
    </contour>
  </outline>
</glyph>
<glyph name="quotesinglbase" format="2">
  <advance width="244"/>
  <unicode hex="201A"/>
  <outline>
    <contour>
      <point x="87" y="-89" type="curve" smooth="yes"/>
      <point x="145" y="81" type="line" smooth="yes"/>
      <point x="150" y="95"/>
      <point x="142" y="109"/>
      <point x="127" y="112" type="curve" smooth="yes"/>
      <point x="109" y="116" type="line" smooth="yes"/>
      <point x="97" y="118"/>
      <point x="85" y="112"/>
      <point x="82" y="100" type="curve" smooth="yes"/>
      <point x="34" y="-75" type="line" smooth="yes"/>
      <point x="32" y="-84"/>
      <point x="34" y="-92"/>
      <point x="42" y="-98" type="curve" smooth="yes"/>
      <point x="53" y="-106" type="line" smooth="yes"/>
      <point x="65" y="-115"/>
      <point x="81" y="-106"/>
    </contour>
  </outline>
</glyph>
<glyph name="quotedblleft" format="2">
  <advance width="364"/>
  <unicode hex="201C"/>
  <outline>
    <contour>
      <point x="153" y="521" type="line" smooth="yes"/>
      <point x="159" y="504"/>
      <point x="175" y="496"/>
      <point x="187" y="505" type="curve" smooth="yes"/>
      <point x="198" y="512" type="line" smooth="yes"/>
      <point x="206" y="518"/>
      <point x="208" y="527"/>
      <point x="206" y="536" type="curve" smooth="yes"/>
      <point x="158" y="710" type="line" smooth="yes"/>
      <point x="155" y="722"/>
      <point x="143" y="728"/>
      <point x="131" y="726" type="curve" smooth="yes"/>
      <point x="113" y="722" type="line" smooth="yes"/>
      <point x="98" y="719"/>
      <point x="90" y="705"/>
      <point x="95" y="691" type="curve" smooth="yes"/>
    </contour>
    <contour>
      <point x="273" y="521" type="line" smooth="yes"/>
      <point x="279" y="504"/>
      <point x="295" y="496"/>
      <point x="307" y="505" type="curve" smooth="yes"/>
      <point x="318" y="512" type="line" smooth="yes"/>
      <point x="326" y="518"/>
      <point x="328" y="527"/>
      <point x="326" y="536" type="curve" smooth="yes"/>
      <point x="278" y="710" type="line" smooth="yes"/>
      <point x="275" y="722"/>
      <point x="263" y="728"/>
      <point x="251" y="726" type="curve" smooth="yes"/>
      <point x="233" y="722" type="line" smooth="yes"/>
      <point x="218" y="719"/>
      <point x="210" y="705"/>
      <point x="215" y="691" type="curve" smooth="yes"/>
    </contour>
  </outline>
</glyph>
<glyph name="quotedblright" format="2">
  <advance width="364"/>
  <unicode hex="201D"/>
  <outline>
    <contour>
      <point x="207" y="521" type="curve" smooth="yes"/>
      <point x="265" y="691" type="line" smooth="yes"/>
      <point x="270" y="705"/>
      <point x="262" y="719"/>
      <point x="247" y="722" type="curve" smooth="yes"/>
      <point x="229" y="726" type="line" smooth="yes"/>
      <point x="217" y="728"/>
      <point x="205" y="722"/>
      <point x="202" y="710" type="curve" smooth="yes"/>
      <point x="154" y="536" type="line" smooth="yes"/>
      <point x="152" y="527"/>
      <point x="154" y="518"/>
      <point x="162" y="512" type="curve" smooth="yes"/>
      <point x="173" y="505" type="line" smooth="yes"/>
      <point x="185" y="496"/>
      <point x="201" y="504"/>
    </contour>
    <contour>
      <point x="87" y="521" type="curve" smooth="yes"/>
      <point x="145" y="691" type="line" smooth="yes"/>
      <point x="150" y="705"/>
      <point x="142" y="719"/>
      <point x="127" y="722" type="curve" smooth="yes"/>
      <point x="109" y="726" type="line" smooth="yes"/>
      <point x="97" y="728"/>
      <point x="85" y="722"/>
      <point x="82" y="710" type="curve" smooth="yes"/>
      <point x="34" y="536" type="line" smooth="yes"/>
      <point x="32" y="527"/>
      <point x="34" y="518"/>
      <point x="42" y="512" type="curve" smooth="yes"/>
      <point x="53" y="505" type="line" smooth="yes"/>
      <point x="65" y="496"/>
      <point x="81" y="504"/>
    </contour>
  </outline>
</glyph>
<glyph name="quotedblbase" format="2">
  <advance width="288"/>
  <unicode hex="201E"/>
  <outline>
    <contour>
      <point x="87" y="-89" type="curve" smooth="yes"/>
      <point x="145" y="81" type="line" smooth="yes"/>
      <point x="150" y="95"/>
      <point x="142" y="109"/>
      <point x="127" y="112" type="curve" smooth="yes"/>
      <point x="109" y="116" type="line" smooth="yes"/>
      <point x="97" y="119"/>
      <point x="85" y="112"/>
      <point x="82" y="100" type="curve" smooth="yes"/>
      <point x="34" y="-74" type="line" smooth="yes"/>
      <point x="32" y="-83"/>
      <point x="34" y="-93"/>
      <point x="42" y="-98" type="curve" smooth="yes"/>
      <point x="53" y="-105" type="line" smooth="yes"/>
      <point x="66" y="-113"/>
      <point x="81" y="-106"/>
    </contour>
    <contour>
      <point x="197" y="-89" type="curve" smooth="yes"/>
      <point x="255" y="81" type="line" smooth="yes"/>
      <point x="260" y="95"/>
      <point x="252" y="109"/>
      <point x="237" y="112" type="curve" smooth="yes"/>
      <point x="219" y="116" type="line" smooth="yes"/>
      <point x="207" y="118"/>
      <point x="195" y="112"/>
      <point x="192" y="100" type="curve" smooth="yes"/>
      <point x="144" y="-74" type="line" smooth="yes"/>
      <point x="142" y="-83"/>
      <point x="144" y="-92"/>
      <point x="152" y="-98" type="curve" smooth="yes"/>
      <point x="163" y="-105" type="line" smooth="yes"/>
      <point x="175" y="-114"/>
      <point x="191" y="-106"/>
    </contour>
  </outline>
</glyph>
<glyph name="bullet" format="2">
  <advance width="491"/>
  <unicode hex="2022"/>
  <outline>
    <contour>
      <point x="234" y="177" type="curve" smooth="yes"/>
      <point x="349" y="177"/>
      <point x="411" y="257"/>
      <point x="411" y="353" type="curve" smooth="yes"/>
      <point x="411" y="451"/>
      <point x="349" y="535"/>
      <point x="234" y="535" type="curve" smooth="yes"/>
      <point x="114" y="535"/>
      <point x="60" y="455.415"/>
      <point x="60" y="357" type="curve" smooth="yes"/>
      <point x="60" y="261"/>
      <point x="114" y="177"/>
    </contour>
  </outline>
</glyph>
<glyph name="ellipsis" format="2">
  <advance width="897"/>
  <unicode hex="2026"/>
  <note>
ellipsis
</note>
  <outline>
    <contour>
      <point x="749" y="0" type="curve" smooth="yes"/>
      <point x="814" y="0" type="line" smooth="yes"/>
      <point x="827" y="0"/>
      <point x="837" y="10"/>
      <point x="837" y="23" type="curve" smooth="yes"/>
      <point x="837" y="88" type="line" smooth="yes"/>
      <point x="837" y="101"/>
      <point x="827" y="111"/>
      <point x="814" y="111" type="curve" smooth="yes"/>
      <point x="749" y="111" type="line" smooth="yes"/>
      <point x="736" y="111"/>
      <point x="726" y="101"/>
      <point x="726" y="88" type="curve" smooth="yes"/>
      <point x="726" y="23" type="line" smooth="yes"/>
      <point x="726" y="10"/>
      <point x="736" y="0"/>
    </contour>
    <contour>
      <point x="83" y="0" type="curve" smooth="yes"/>
      <point x="148" y="0" type="line" smooth="yes"/>
      <point x="161" y="0"/>
      <point x="171" y="10"/>
      <point x="171" y="23" type="curve" smooth="yes"/>
      <point x="171" y="88" type="line" smooth="yes"/>
      <point x="171" y="101"/>
      <point x="161" y="111"/>
      <point x="148" y="111" type="curve" smooth="yes"/>
      <point x="83" y="111" type="line" smooth="yes"/>
      <point x="70" y="111"/>
      <point x="60" y="101"/>
      <point x="60" y="88" type="curve" smooth="yes"/>
      <point x="60" y="23" type="line" smooth="yes"/>
      <point x="60" y="10"/>
      <point x="70" y="0"/>
    </contour>
    <contour>
      <point x="416" y="0" type="curve" smooth="yes"/>
      <point x="481" y="0" type="line" smooth="yes"/>
      <point x="494" y="0"/>
      <point x="504" y="10"/>
      <point x="504" y="23" type="curve" smooth="yes"/>
      <point x="504" y="88" type="line" smooth="yes"/>
      <point x="504" y="101"/>
      <point x="494" y="111"/>
      <point x="481" y="111" type="curve" smooth="yes"/>
      <point x="416" y="111" type="line" smooth="yes"/>
      <point x="403" y="111"/>
      <point x="393" y="101"/>
      <point x="393" y="88" type="curve" smooth="yes"/>
      <point x="393" y="23" type="line" smooth="yes"/>
      <point x="393" y="10"/>
      <point x="403" y="0"/>
    </contour>
  </outline>
</glyph>
<glyph name="euro" format="2">
  <advance width="604"/>
  <unicode hex="20AC"/>
  <outline>
    <contour>
      <point x="362" y="3" type="curve" smooth="yes"/>
      <point x="427" y="3"/>
      <point x="487" y="33"/>
      <point x="534" y="84" type="curve"/>
      <point x="480" y="110" type="line"/>
      <point x="446" y="77"/>
      <point x="406" y="56"/>
      <point x="362" y="56" type="curve" smooth="yes"/>
      <point x="260.47" y="56"/>
      <point x="175.506" y="165.944"/>
      <point x="154.814" y="295" type="curve"/>
      <point x="262" y="295" type="line"/>
      <point x="262" y="333" type="line"/>
      <point x="150.65" y="333" type="line"/>
      <point x="150" y="355" type="line" smooth="yes"/>
      <point x="150" y="371.553"/>
      <point x="151.127" y="387.939"/>
      <point x="153.286" y="404" type="curve"/>
      <point x="264" y="404" type="line"/>
      <point x="264" y="443" type="line"/>
      <point x="160.685" y="443" type="line"/>
      <point x="188.633" y="556.405"/>
      <point x="268.254" y="645"/>
      <point x="362" y="645" type="curve" smooth="yes"/>
      <point x="405" y="645"/>
      <point x="445" y="626"/>
      <point x="478" y="595" type="curve"/>
      <point x="544" y="613" type="line"/>
      <point x="496" y="671"/>
      <point x="432" y="706"/>
      <point x="362" y="706" type="curve" smooth="yes"/>
      <point x="236.345" y="706"/>
      <point x="130.603" y="594.343"/>
      <point x="100.553" y="443" type="curve"/>
      <point x="60" y="443" type="line"/>
      <point x="60" y="404" type="line"/>
      <point x="94.609" y="404" type="line"/>
      <point x="92.889" y="387.989"/>
      <point x="92" y="371.63"/>
      <point x="92" y="355" type="curve" smooth="yes"/>
      <point x="92.516" y="333" type="line"/>
      <point x="63" y="333" type="line"/>
      <point x="63" y="295" type="line"/>
      <point x="95.89" y="295" type="line"/>
      <point x="117.705" y="128.776"/>
      <point x="228.637" y="3"/>
    </contour>
  </outline>
</glyph>
<glyph name="divisionslash" format="2">
  <advance width="488"/>
  <unicode hex="2215"/>
  <outline>
    <contour>
      <point x="60" y="-16" type="line"/>
      <point x="110" y="-16" type="line"/>
      <point x="406" y="731" type="line"/>
      <point x="355" y="731" type="line"/>
    </contour>
  </outline>
</glyph>
<glyph name="_diagonal.long" format="2">
  <advance width="560"/>
  <outline>
    <contour>
      <point x="424" y="8" type="line" smooth="yes"/>
      <point x="429" y="-2"/>
      <point x="448" y="-2"/>
      <point x="458" y="8" type="curve" smooth="yes"/>
      <point x="468" y="17"/>
      <point x="488" y="37"/>
      <point x="474" y="63" type="curve" smooth="yes"/>
      <point x="149" y="691" type="line" smooth="yes"/>
      <point x="141" y="707"/>
      <point x="100" y="703"/>
      <point x="90" y="695" type="curve" smooth="yes"/>
      <point x="81" y="687"/>
      <point x="69" y="679"/>
      <point x="84" y="651" type="curve" smooth="yes"/>
    </contour>
  </outline>
</glyph>
<glyph name="_part.hee" format="2">
  <advance width="232"/>
  <outline>
    <contour>
      <point x="80" y="-162" type="curve" smooth="yes"/>
      <point x="172" y="-162" type="line" smooth="yes"/>
      <point x="183" y="-162"/>
      <point x="192" y="-153"/>
      <point x="192" y="-142" type="curve" smooth="yes"/>
      <point x="192" y="-141" type="line" smooth="yes"/>
      <point x="192" y="-130"/>
      <point x="183" y="-121"/>
      <point x="172" y="-121" type="curve" smooth="yes"/>
      <point x="102" y="-121" type="line"/>
      <point x="103" y="-5" type="line"/>
      <point x="60" y="-5" type="line"/>
      <point x="60" y="-142" type="line" smooth="yes"/>
      <point x="60" y="-153"/>
      <point x="69" y="-162"/>
    </contour>
  </outline>
</glyph>
<glyph name="_part.ho" format="2">
  <advance width="278"/>
  <outline>
    <contour>
      <point x="139" y="-200" type="curve" smooth="yes"/>
      <point x="184" y="-200"/>
      <point x="218" y="-163"/>
      <point x="218" y="-117" type="curve" smooth="yes"/>
      <point x="218" y="-71"/>
      <point x="184" y="-34"/>
      <point x="139" y="-34" type="curve" smooth="yes"/>
      <point x="94" y="-34"/>
      <point x="60" y="-71"/>
      <point x="60" y="-117" type="curve" smooth="yes"/>
      <point x="60" y="-163"/>
      <point x="94" y="-200"/>
    </contour>
    <contour>
      <point x="139" y="-168" type="curve" smooth="yes"/>
      <point x="111" y="-168"/>
      <point x="90" y="-146"/>
      <point x="90" y="-117" type="curve" smooth="yes"/>
      <point x="90" y="-88"/>
      <point x="111" y="-66"/>
      <point x="139" y="-66" type="curve" smooth="yes"/>
      <point x="167" y="-66"/>
      <point x="188" y="-88"/>
      <point x="188" y="-117" type="curve" smooth="yes"/>
      <point x="188" y="-146"/>
      <point x="167" y="-168"/>
    </contour>
  </outline>
</glyph>
<glyph name="_part.hoa" format="2">
  <advance width="282"/>
  <outline>
    <contour>
      <point x="491" y="-195" type="curve" smooth="yes"/>
      <point x="492" y="-195" type="line" smooth="yes"/>
      <point x="503" y="-195"/>
      <point x="512" y="-186"/>
      <point x="512" y="-175" type="curve" smooth="yes"/>
      <point x="512" y="-64" type="line"/>
      <point x="472" y="-64" type="line"/>
      <point x="472" y="-15" type="line"/>
      <point x="431" y="-15" type="line"/>
      <point x="431" y="-64" type="line"/>
      <point x="370" y="-64" type="line"/>
      <point x="371" y="-105" type="line"/>
      <point x="471" y="-105" type="line"/>
      <point x="471" y="-175" type="line" smooth="yes"/>
      <point x="471" y="-186"/>
      <point x="480" y="-195"/>
    </contour>
  </outline>
</glyph>
<glyph name="_part.hu" format="2">
  <advance width="220"/>
  <outline>
    <contour>
      <point x="80" y="243" type="curve" smooth="yes"/>
      <point x="160" y="243" type="line"/>
      <point x="160" y="284" type="line"/>
      <point x="80" y="284" type="line" smooth="yes"/>
      <point x="69" y="284"/>
      <point x="60" y="275"/>
      <point x="60" y="264" type="curve" smooth="yes"/>
      <point x="60" y="263" type="line" smooth="yes"/>
      <point x="60" y="252"/>
      <point x="69" y="243"/>
    </contour>
  </outline>
</glyph>
<glyph name="_smart.aGl" format="2">
  <anchor x="2" y="607" name="_aGl"/>
  <outline>
    <contour>
      <point x="-117" y="615" type="curve" smooth="yes"/>
      <point x="62" y="615" type="line" smooth="yes"/>
      <point x="75" y="615"/>
      <point x="84" y="623"/>
      <point x="84" y="633" type="curve" smooth="yes"/>
      <point x="84" y="666" type="line" smooth="yes"/>
      <point x="84" y="675"/>
      <point x="75" y="678"/>
      <point x="62" y="678" type="curve" smooth="yes"/>
      <point x="-78" y="678" type="line"/>
      <point x="-78" y="789" type="line" smooth="yes"/>
      <point x="-78" y="803"/>
      <point x="-88" y="815"/>
      <point x="-100" y="815" type="curve" smooth="yes"/>
      <point x="-118" y="815" type="line" smooth="yes"/>
      <point x="-130" y="815"/>
      <point x="-140" y="803"/>
      <point x="-140" y="789" type="curve" smooth="yes"/>
      <point x="-140" y="638" type="line" smooth="yes"/>
      <point x="-140" y="625"/>
      <point x="-130" y="615"/>
    </contour>
  </outline>
</glyph>
<glyph name="_smart.belt" format="2">
  <anchor x="-28" y="284" name="_belt"/>
  <outline>
    <contour>
      <point x="-185" y="251" type="curve" smooth="yes"/>
      <point x="118" y="251" type="line" smooth="yes"/>
      <point x="132" y="251"/>
      <point x="142" y="270"/>
      <point x="142" y="284" type="curve" smooth="yes"/>
      <point x="142" y="298"/>
      <point x="132" y="313"/>
      <point x="118" y="313" type="curve" smooth="yes"/>
      <point x="-185" y="313" type="line" smooth="yes"/>
      <point x="-199" y="313"/>
      <point x="-209" y="298"/>
      <point x="-209" y="284" type="curve" smooth="yes"/>
      <point x="-209" y="270"/>
      <point x="-199" y="251"/>
    </contour>
  </outline>
</glyph>
<glyph name="_smart.eGl" format="2">
  <anchor x="-4" y="584" name="_eGl"/>
  <outline>
    <contour>
      <point x="-95" y="584" type="line"/>
      <point x="75" y="584" type="line" smooth="yes"/>
      <point x="87" y="584"/>
      <point x="97" y="592"/>
      <point x="97" y="602" type="curve" smooth="yes"/>
      <point x="97" y="635" type="line" smooth="yes"/>
      <point x="97" y="644"/>
      <point x="87" y="653"/>
      <point x="75" y="653" type="curve" smooth="yes"/>
      <point x="-31" y="653" type="line"/>
      <point x="-31" y="713" type="line" smooth="yes"/>
      <point x="-31" y="727"/>
      <point x="-41" y="739"/>
      <point x="-53" y="739" type="curve" smooth="yes"/>
      <point x="-155" y="739" type="line"/>
      <point x="-155" y="784" type="line" smooth="yes"/>
      <point x="-155" y="787"/>
      <point x="-158" y="791"/>
      <point x="-160" y="791" type="curve" smooth="yes"/>
      <point x="-217" y="792" type="line" smooth="yes"/>
      <point x="-220" y="792"/>
      <point x="-222" y="789"/>
      <point x="-222" y="785" type="curve" smooth="yes"/>
      <point x="-222" y="711" type="line" smooth="yes"/>
      <point x="-222" y="697"/>
      <point x="-212" y="685"/>
      <point x="-200" y="685" type="curve" smooth="yes"/>
      <point x="-95" y="685" type="line"/>
    </contour>
  </outline>
</glyph>
<glyph name="_smart.fa" format="2">
  <anchor x="4" y="52" name="_fa"/>
  <outline>
    <contour>
      <point x="-17" y="44" type="line"/>
      <point x="24" y="44" type="line"/>
      <point x="24" y="265" type="line" smooth="yes"/>
      <point x="24" y="276"/>
      <point x="15" y="285"/>
      <point x="4" y="285" type="curve" smooth="yes"/>
      <point x="-146" y="285" type="line"/>
      <point x="-145" y="244" type="line"/>
      <point x="-17" y="244" type="line"/>
    </contour>
  </outline>
</glyph>
<glyph name="_smart.haa.acute" format="2">
  <anchor x="0" y="-19" name="_haa.acute"/>
  <outline>
    <contour>
      <point x="0" y="-190" type="curve" smooth="yes"/>
      <point x="31" y="-190" type="line" smooth="yes"/>
      <point x="46" y="-190"/>
      <point x="51" y="-181"/>
      <point x="51" y="-170" type="curve" smooth="yes"/>
      <point x="51" y="-13" type="line"/>
      <point x="-20" y="-13" type="line"/>
      <point x="-20" y="-170" type="line" smooth="yes"/>
      <point x="-20" y="-181"/>
      <point x="-11" y="-190"/>
    </contour>
    <contour>
      <point x="-3" y="-190" type="line"/>
      <point x="-3" y="-126" type="line"/>
      <point x="-178" y="-126" type="line" smooth="yes"/>
      <point x="-189" y="-126"/>
      <point x="-204" y="-138"/>
      <point x="-204" y="-158" type="curve" smooth="yes"/>
      <point x="-204" y="-179"/>
      <point x="-195" y="-190"/>
      <point x="-184" y="-190" type="curve" smooth="yes"/>
    </contour>
  </outline>
</glyph>
<glyph name="_smart.hat.left.aGl" format="2">
  <anchor x="1" y="636" name="_hat.left.aGl"/>
  <outline>
    <contour>
      <point x="-88" y="637" type="curve" smooth="yes"/>
      <point x="100" y="637" type="line" smooth="yes"/>
      <point x="113" y="637"/>
      <point x="123" y="644"/>
      <point x="123" y="657" type="curve" smooth="yes"/>
      <point x="123" y="671"/>
      <point x="113" y="678"/>
      <point x="100" y="678" type="curve" smooth="yes"/>
      <point x="-88" y="678" type="line" smooth="yes"/>
      <point x="-101" y="678"/>
      <point x="-111" y="670"/>
      <point x="-111" y="657" type="curve" smooth="yes"/>
      <point x="-111" y="644"/>
      <point x="-101" y="637"/>
    </contour>
  </outline>
</glyph>
<glyph name="_smart.he.acute" format="2">
  <anchor x="2" y="488" name="_he.acute"/>
  <outline>
    <contour>
      <point x="-46" y="507" type="line"/>
      <point x="21" y="507" type="line"/>
      <point x="21" y="584" type="line" smooth="yes"/>
      <point x="21" y="595"/>
      <point x="13" y="604"/>
      <point x="1" y="604" type="curve" smooth="yes"/>
      <point x="-82" y="604" type="line" smooth="yes"/>
      <point x="-102" y="604"/>
      <point x="-108" y="614"/>
      <point x="-108" y="627" type="curve" smooth="yes"/>
      <point x="-108" y="694" type="line" smooth="yes"/>
      <point x="-108" y="705"/>
      <point x="-112" y="714"/>
      <point x="-133" y="714" type="curve" smooth="yes"/>
      <point x="-159" y="714"/>
      <point x="-167" y="705"/>
      <point x="-167" y="694" type="curve" smooth="yes"/>
      <point x="-167" y="589" type="line" smooth="yes"/>
      <point x="-167" y="576"/>
      <point x="-157" y="566"/>
      <point x="-144" y="566" type="curve" smooth="yes"/>
      <point x="-89" y="566" type="line" smooth="yes"/>
      <point x="-56" y="566"/>
      <point x="-46" y="556"/>
      <point x="-46" y="543" type="curve" smooth="yes"/>
    </contour>
  </outline>
</glyph>
<glyph name="_smart.hee" format="2">
  <anchor x="0" y="16" name="_hee"/>
  <outline>
    <contour>
      <point x="-25" y="-184" type="curve" smooth="yes"/>
      <point x="29" y="-184"/>
      <point x="62" y="-147"/>
      <point x="62" y="-91" type="curve" smooth="yes"/>
      <point x="62" y="-35"/>
      <point x="21" y="0"/>
      <point x="-25" y="1" type="curve" smooth="yes"/>
      <point x="-62" y="2"/>
      <point x="-122" y="-8"/>
      <point x="-122" y="-25" type="curve" smooth="yes"/>
      <point x="-122" y="-160" type="line" smooth="yes"/>
      <point x="-122" y="-176"/>
      <point x="-88" y="-184"/>
    </contour>
    <contour>
      <point x="-85" y="-158" type="line"/>
      <point x="-85" y="-33" type="line"/>
      <point x="-35" y="-33" type="line" smooth="yes"/>
      <point x="-12" y="-33"/>
      <point x="2" y="-38"/>
      <point x="3" y="-89" type="curve" smooth="yes"/>
      <point x="4" y="-139"/>
      <point x="-14" y="-158"/>
      <point x="-39" y="-158" type="curve" smooth="yes"/>
    </contour>
  </outline>
</glyph>
<glyph name="_smart.ho.ring" format="2">
  <anchor x="18" y="705" name="_ho.ring"/>
  <outline>
    <contour>
      <point x="58" y="708" type="curve"/>
      <point x="112" y="708"/>
      <point x="145" y="755"/>
      <point x="145" y="811" type="curve" smooth="yes"/>
      <point x="145" y="867"/>
      <point x="104" y="892"/>
      <point x="58" y="893" type="curve" smooth="yes"/>
      <point x="21" y="894"/>
      <point x="-19" y="884"/>
      <point x="-19" y="867" type="curve" smooth="yes"/>
      <point x="-19" y="732" type="line" smooth="yes"/>
      <point x="-19" y="716"/>
      <point x="-5" y="708"/>
    </contour>
    <contour>
      <point x="48" y="738" type="curve" smooth="yes"/>
      <point x="18" y="737"/>
      <point x="7" y="740"/>
      <point x="7" y="751" type="curve" smooth="yes"/>
      <point x="8" y="855" type="line" smooth="yes"/>
      <point x="8" y="861"/>
      <point x="16" y="867"/>
      <point x="46" y="866" type="curve" smooth="yes"/>
      <point x="71" y="865"/>
      <point x="97" y="850"/>
      <point x="97" y="810" type="curve" smooth="yes"/>
      <point x="97" y="761"/>
      <point x="74" y="739"/>
    </contour>
  </outline>
</glyph>
<glyph name="_smart.hu" format="2">
  <anchor x="-2" y="286" name="_hu"/>
  <outline>
    <contour>
      <point x="3" y="243" type="line"/>
      <point x="83" y="243" type="line" smooth="yes"/>
      <point x="94" y="243"/>
      <point x="103" y="261"/>
      <point x="103" y="282" type="curve" smooth="yes"/>
      <point x="103" y="284" type="line" smooth="yes"/>
      <point x="103" y="306"/>
      <point x="94" y="324"/>
      <point x="83" y="324" type="curve" smooth="yes"/>
      <point x="3" y="324" type="line"/>
    </contour>
  </outline>
</glyph>
<glyph name="_smart.hwa" format="2">
  <anchor x="5" y="-7" name="_hwa"/>
  <outline>
    <contour>
      <point x="15" y="-192"/>
      <point x="35" y="-192" type="curve" smooth="yes"/>
      <point x="61" y="-192"/>
      <point x="73" y="-183"/>
      <point x="73" y="-172" type="curve" smooth="yes"/>
      <point x="73" y="-84" type="line" smooth="yes"/>
      <point x="73" y="-71"/>
      <point x="63" y="-61"/>
      <point x="50" y="-61" type="curve" smooth="yes"/>
      <point x="30" y="-61" type="line"/>
      <point x="30" y="-12" type="line"/>
      <point x="-32" y="-12" type="line"/>
      <point x="-32" y="-49" type="line"/>
      <point x="-149" y="-49" type="line" smooth="yes"/>
      <point x="-163" y="-49"/>
      <point x="-173" y="-59"/>
      <point x="-173" y="-74" type="curve" smooth="yes"/>
      <point x="-173" y="-79" type="line" smooth="yes"/>
      <point x="-173" y="-93"/>
      <point x="-163" y="-102"/>
      <point x="-150" y="-102" type="curve" smooth="yes"/>
      <point x="4" y="-102" type="line"/>
      <point x="4" y="-172" type="line" smooth="yes"/>
      <point x="4" y="-183"/>
    </contour>
  </outline>
</glyph>
<glyph name="_smart.ka" format="2">
  <anchor x="1" y="662" name="_ka"/>
  <outline>
    <contour>
      <point x="-69" y="640" type="curve" smooth="yes"/>
      <point x="-20" y="640" type="line"/>
      <point x="-20" y="790" type="line"/>
      <point x="-32" y="790" type="line"/>
      <point x="-70" y="790" type="line" smooth="yes"/>
      <point x="-82" y="790"/>
      <point x="-92" y="778"/>
      <point x="-92" y="764" type="curve" smooth="yes"/>
      <point x="-92" y="663" type="line" smooth="yes"/>
      <point x="-92" y="650"/>
      <point x="-82" y="640"/>
    </contour>
  </outline>
</glyph>
<glyph name="_smart.ri" format="2">
  <anchor x="-3" y="84" name="_ri"/>
  <outline>
    <contour>
      <point x="-3" y="265" type="line" smooth="yes"/>
      <point x="-14" y="265"/>
      <point x="-23" y="256"/>
      <point x="-23" y="245" type="curve" smooth="yes"/>
      <point x="-23" y="88" type="line"/>
      <point x="18" y="88" type="line"/>
      <point x="18" y="245" type="line" smooth="yes"/>
      <point x="18" y="256"/>
      <point x="9" y="265"/>
      <point x="-2" y="265" type="curve" smooth="yes"/>
    </contour>
    <contour>
      <point x="-6" y="265" type="line"/>
      <point x="-71" y="265" type="line" smooth="yes"/>
      <point x="-82" y="265"/>
      <point x="-91" y="247"/>
      <point x="-91" y="226" type="curve" smooth="yes"/>
      <point x="-91" y="224" type="line" smooth="yes"/>
      <point x="-91" y="202"/>
      <point x="-82" y="184"/>
      <point x="-71" y="184" type="curve" smooth="yes"/>
      <point x="-6" y="184" type="line"/>
    </contour>
  </outline>
</glyph>
<glyph name="_smart.ya" format="2">
  <anchor x="50" y="23" name="_yaa"/>
  <outline>
    <contour>
      <point x="-14" y="0" type="curve" smooth="yes"/>
      <point x="83" y="0" type="line" smooth="yes"/>
      <point x="93" y="0"/>
      <point x="100" y="7"/>
      <point x="100" y="18" type="curve" smooth="yes"/>
      <point x="100" y="29"/>
      <point x="93" y="74"/>
      <point x="83" y="74" type="curve" smooth="yes"/>
      <point x="-14" y="74" type="line" smooth="yes"/>
      <point x="-24" y="74"/>
      <point x="-31" y="63"/>
      <point x="-31" y="38" type="curve" smooth="yes"/>
      <point x="-31" y="12"/>
      <point x="-24" y="0"/>
    </contour>
  </outline>
</glyph>
<glyph name="_smart.ye" format="2">
  <anchor x="249" y="100" name="_ye"/>
  <outline>
    <contour>
      <point x="123" y="34" type="curve" smooth="yes"/>
      <point x="303" y="34" type="line" smooth="yes"/>
      <point x="378" y="34"/>
      <point x="417" y="59"/>
      <point x="469" y="123" type="curve" smooth="yes"/>
      <point x="474" y="129"/>
      <point x="472" y="141"/>
      <point x="462" y="147" type="curve" smooth="yes"/>
      <point x="453" y="153"/>
      <point x="410" y="151"/>
      <point x="406" y="144" type="curve" smooth="yes"/>
      <point x="376" y="97"/>
      <point x="360" y="92"/>
      <point x="297" y="92" type="curve" smooth="yes"/>
      <point x="123" y="92" type="line" smooth="yes"/>
      <point x="113" y="92"/>
      <point x="106" y="63"/>
      <point x="106" y="52" type="curve" smooth="yes"/>
      <point x="106" y="41"/>
      <point x="113" y="34"/>
    </contour>
  </outline>
</glyph>
<glyph name="_smart.yi" format="2">
  <anchor x="126" y="100" name="_yi"/>
  <outline>
    <contour>
      <point x="-27" y="140" type="curve" smooth="yes"/>
      <point x="200" y="140" type="line" smooth="yes"/>
      <point x="210" y="140"/>
      <point x="217" y="147"/>
      <point x="217" y="158" type="curve" smooth="yes"/>
      <point x="217" y="169"/>
      <point x="210" y="176"/>
      <point x="200" y="176" type="curve" smooth="yes"/>
      <point x="-27" y="176" type="line" smooth="yes"/>
      <point x="-37" y="176"/>
      <point x="-44" y="169"/>
      <point x="-44" y="158" type="curve" smooth="yes"/>
      <point x="-44" y="147"/>
      <point x="-37" y="140"/>
    </contour>
    <contour>
      <point x="114" y="64" type="curve" smooth="yes"/>
      <point x="310" y="64" type="line" smooth="yes"/>
      <point x="320" y="64"/>
      <point x="327" y="71"/>
      <point x="327" y="82" type="curve" smooth="yes"/>
      <point x="327" y="109"/>
      <point x="320" y="120"/>
      <point x="310" y="120" type="curve" smooth="yes"/>
      <point x="114" y="120" type="line" smooth="yes"/>
      <point x="104" y="120"/>
      <point x="97" y="109"/>
      <point x="97" y="82" type="curve" smooth="yes"/>
      <point x="97" y="71"/>
      <point x="104" y="64"/>
    </contour>
  </outline>
</glyph>
<glyph name="_smart.zha" format="2">
  <anchor x="7" y="455" name="_zha"/>
  <outline>
    <contour>
      <point x="-171" y="487" type="curve" smooth="yes"/>
      <point x="-114" y="487" type="line" smooth="yes"/>
      <point x="-101" y="487"/>
      <point x="-91" y="497"/>
      <point x="-91" y="510" type="curve" smooth="yes"/>
      <point x="-91" y="545" type="line" smooth="yes"/>
      <point x="-91" y="558"/>
      <point x="-101" y="568"/>
      <point x="-114" y="568" type="curve" smooth="yes"/>
      <point x="-171" y="568" type="line" smooth="yes"/>
      <point x="-182" y="568"/>
      <point x="-191" y="559"/>
      <point x="-191" y="548" type="curve" smooth="yes"/>
      <point x="-191" y="513" type="line" smooth="yes"/>
      <point x="-191" y="496"/>
      <point x="-182" y="487"/>
    </contour>
    <contour>
      <point x="212" y="487" type="line" smooth="yes"/>
      <point x="223" y="487"/>
      <point x="232" y="490"/>
      <point x="232" y="501" type="curve" smooth="yes"/>
      <point x="232" y="548" type="line" smooth="yes"/>
      <point x="232" y="559"/>
      <point x="223" y="568"/>
      <point x="212" y="568" type="curve" smooth="yes"/>
      <point x="155" y="568" type="line" smooth="yes"/>
      <point x="142" y="568"/>
      <point x="132" y="558"/>
      <point x="132" y="545" type="curve" smooth="yes"/>
      <point x="132" y="510" type="line" smooth="yes"/>
      <point x="132" y="497"/>
      <point x="142" y="487"/>
      <point x="155" y="487" type="curve" smooth="yes"/>
    </contour>
  </outline>
</glyph>
<glyph name="aGl.base.cap" format="2">
  <advance width="700"/>
  <anchor x="364" y="729" name="aGl"/>
  <anchor x="336" y="712" name="eGl"/>
  <anchor x="572" y="0" name="haa"/>
  <anchor x="241" y="895" name="hat"/>
  <anchor x="564" y="8" name="hee"/>
  <anchor x="605" y="27" name="hi"/>
  <anchor x="169" y="-1" name="ho"/>
  <anchor x="601" y="470" name="hu"/>
  <anchor x="570" y="-1" name="hwa"/>
  <anchor x="361" y="631" name="top"/>
  <outline>
    <contour>
      <point x="222" y="547" type="line"/>
      <point x="222" y="563"/>
      <point x="229" y="575"/>
      <point x="244" y="578" type="curve" smooth="yes"/>
      <point x="493" y="628" type="line" smooth="yes"/>
      <point x="507" y="631"/>
      <point x="520" y="617"/>
      <point x="520" y="587" type="curve" smooth="yes"/>
      <point x="520" y="20" type="line"/>
      <point x="519" y="9"/>
      <point x="528" y="0"/>
      <point x="539" y="0" type="curve" smooth="yes"/>
      <point x="580" y="0" type="line" smooth="yes"/>
      <point x="591" y="0"/>
      <point x="600" y="9"/>
      <point x="600" y="20" type="curve" smooth="yes"/>
      <point x="600" y="673" type="line" smooth="yes"/>
      <point x="600" y="692"/>
      <point x="583" y="697"/>
      <point x="566" y="694" type="curve" smooth="yes"/>
      <point x="159" y="613" type="line" smooth="yes"/>
      <point x="144" y="610"/>
      <point x="140" y="598"/>
      <point x="140" y="591" type="curve" smooth="yes"/>
      <point x="140" y="20" type="line" smooth="yes"/>
      <point x="140" y="9"/>
      <point x="154" y="0"/>
      <point x="178" y="0" type="curve" smooth="yes"/>
      <point x="208" y="0"/>
      <point x="221" y="9"/>
      <point x="222" y="20" type="curve"/>
    </contour>
  </outline>
</glyph>
<glyph name="aPh.base" format="2">
  <advance width="551"/>
  <anchor x="230" y="284" name="belt"/>
  <anchor x="280" y="-2" name="haa"/>
  <anchor x="266" y="-3" name="haa.acute"/>
  <anchor x="270" y="-14" name="hee"/>
  <anchor x="289" y="-139" name="hi"/>
  <anchor x="412" y="-1" name="ho"/>
  <anchor x="444" y="284" name="hu"/>
  <anchor x="308" y="1" name="hwa"/>
  <anchor x="247" y="502" name="neck"/>
  <outline>
    <contour>
      <point x="91" y="0" type="curve" smooth="yes"/>
      <point x="410" y="0" type="line" smooth="yes"/>
      <point x="433" y="0"/>
      <point x="451" y="18"/>
      <point x="451" y="41" type="curve" smooth="yes"/>
      <point x="451" y="459" type="line" smooth="yes"/>
      <point x="451" y="482"/>
      <point x="433" y="500"/>
      <point x="410" y="500" type="curve" smooth="yes"/>
      <point x="91" y="500" type="line" smooth="yes"/>
      <point x="68" y="500"/>
      <point x="50" y="482"/>
      <point x="50" y="459" type="curve" smooth="yes"/>
      <point x="50" y="41" type="line" smooth="yes"/>
      <point x="50" y="18"/>
      <point x="68" y="0"/>
    </contour>
    <contour>
      <point x="151" y="41" type="line" smooth="yes"/>
      <point x="140" y="41"/>
      <point x="131" y="50"/>
      <point x="131" y="61" type="curve" smooth="yes"/>
      <point x="131" y="439" type="line" smooth="yes"/>
      <point x="131" y="450"/>
      <point x="140" y="459"/>
      <point x="151" y="459" type="curve" smooth="yes"/>
      <point x="350" y="459" type="line" smooth="yes"/>
      <point x="361" y="459"/>
      <point x="370" y="450"/>
      <point x="370" y="439" type="curve" smooth="yes"/>
      <point x="370" y="61" type="line" smooth="yes"/>
      <point x="370" y="50"/>
      <point x="361" y="41"/>
      <point x="350" y="41" type="curve" smooth="yes"/>
    </contour>
  </outline>
</glyph>
<glyph name="ba.base.cap" format="2">
  <advance width="656"/>
  <anchor x="313" y="707" name="aGl"/>
  <anchor x="318" y="-1" name="bottom"/>
  <anchor x="259" y="541" name="eGl"/>
  <anchor x="530" y="-3" name="haa"/>
  <anchor x="301" y="816" name="hat"/>
  <anchor x="155" y="814" name="hat.left"/>
  <anchor x="302" y="750" name="hat.low"/>
  <anchor x="194" y="467" name="he"/>
  <anchor x="315" y="761" name="he.acute"/>
  <anchor x="555" y="10" name="hee"/>
  <anchor x="535" y="44" name="hi"/>
  <anchor x="123" y="3" name="ho"/>
  <anchor x="544" y="471" name="hu"/>
  <anchor x="537" y="56" name="hwa"/>
  <anchor x="168" y="710" name="ka"/>
  <anchor x="339" y="683" name="neck"/>
  <anchor x="325" y="675" name="top"/>
  <outline>
    <contour>
      <point x="240" y="700" type="line" smooth="yes"/>
      <point x="119" y="700"/>
      <point x="100" y="621"/>
      <point x="100" y="550" type="curve" smooth="yes"/>
      <point x="100" y="27" type="line" smooth="yes"/>
      <point x="100" y="8"/>
      <point x="116" y="0"/>
      <point x="139" y="0" type="curve" smooth="yes"/>
      <point x="165" y="0"/>
      <point x="181" y="9"/>
      <point x="181" y="20" type="curve" smooth="yes"/>
      <point x="181" y="584" type="line" smooth="yes"/>
      <point x="181" y="623"/>
      <point x="210" y="652"/>
      <point x="249" y="652" type="curve" smooth="yes"/>
      <point x="407" y="652" type="line" smooth="yes"/>
      <point x="446" y="652"/>
      <point x="475" y="623"/>
      <point x="475" y="584" type="curve" smooth="yes"/>
      <point x="475" y="27" type="line" smooth="yes"/>
      <point x="475" y="8"/>
      <point x="490" y="0"/>
      <point x="513" y="0" type="curve" smooth="yes"/>
      <point x="539" y="0"/>
      <point x="556" y="9"/>
      <point x="556" y="20" type="curve" smooth="yes"/>
      <point x="556" y="568" type="line" smooth="yes"/>
      <point x="556" y="639"/>
      <point x="524" y="700"/>
      <point x="452" y="700" type="curve" smooth="yes"/>
    </contour>
  </outline>
</glyph>
<glyph name="c.base" format="2">
  <advance width="541"/>
  <outline>
    <contour>
      <point x="190" y="-1" type="curve" smooth="yes"/>
      <point x="457" y="-1" type="line" smooth="yes"/>
      <point x="471" y="-1"/>
      <point x="481" y="15"/>
      <point x="481" y="29" type="curve" smooth="yes"/>
      <point x="481" y="43"/>
      <point x="471" y="53"/>
      <point x="457" y="53" type="curve" smooth="yes"/>
      <point x="216" y="53" type="line" smooth="yes"/>
      <point x="189" y="53"/>
      <point x="180" y="68"/>
      <point x="180" y="123" type="curve" smooth="yes"/>
      <point x="180" y="590" type="line" smooth="yes"/>
      <point x="180" y="629"/>
      <point x="187" y="643"/>
      <point x="228" y="643" type="curve" smooth="yes"/>
      <point x="446" y="643" type="line" smooth="yes"/>
      <point x="457" y="643"/>
      <point x="468" y="645"/>
      <point x="471" y="664" type="curve" smooth="yes"/>
      <point x="474" y="684"/>
      <point x="465" y="699"/>
      <point x="453" y="699" type="curve" smooth="yes"/>
      <point x="194" y="699" type="line" smooth="yes"/>
      <point x="130" y="699"/>
      <point x="100" y="627"/>
      <point x="100" y="588" type="curve" smooth="yes"/>
      <point x="100" y="125" type="line" smooth="yes"/>
      <point x="100" y="24"/>
      <point x="149" y="-1"/>
    </contour>
  </outline>
</glyph>
<glyph name="da.base.cap" format="2">
  <advance width="650"/>
  <anchor x="515" y="-9" name="haa"/>
  <anchor x="337" y="805" name="hat"/>
  <anchor x="539" y="463" name="he"/>
  <anchor x="518" y="3" name="hee"/>
  <anchor x="526" y="31" name="hi"/>
  <anchor x="123" y="0" name="ho"/>
  <anchor x="505" y="209" name="hu"/>
  <anchor x="520" y="52" name="hwa"/>
  <anchor x="349" y="665" name="neck"/>
  <outline>
    <contour>
      <point x="181" y="237" type="line"/>
      <point x="100" y="242" type="line"/>
      <point x="100" y="86" type="line" smooth="yes"/>
      <point x="100" y="75"/>
      <point x="109" y="66"/>
      <point x="120" y="66" type="curve" smooth="yes"/>
      <point x="161" y="66" type="line" smooth="yes"/>
      <point x="172" y="66"/>
      <point x="181" y="75"/>
      <point x="181" y="86" type="curve" smooth="yes"/>
      <point x="181" y="111" type="line"/>
      <point x="466" y="111" type="line"/>
      <point x="466" y="10" type="line" smooth="yes"/>
      <point x="466" y="-1"/>
      <point x="475" y="-10"/>
      <point x="486" y="-10" type="curve" smooth="yes"/>
      <point x="517" y="-10" type="line" smooth="yes"/>
      <point x="528" y="-10"/>
      <point x="541" y="-1"/>
      <point x="541" y="10" type="curve" smooth="yes"/>
      <point x="541" y="136" type="line"/>
      <point x="539" y="146"/>
      <point x="531" y="153"/>
      <point x="521" y="153" type="curve" smooth="yes"/>
      <point x="181" y="153" type="line"/>
    </contour>
    <contour>
      <point x="120" y="0" type="curve" smooth="yes"/>
      <point x="161" y="0" type="line" smooth="yes"/>
      <point x="172" y="0"/>
      <point x="181" y="9"/>
      <point x="181" y="20" type="curve" smooth="yes"/>
      <point x="181" y="261.314" type="line"/>
      <point x="184.461" y="258.634"/>
      <point x="188.526" y="257"/>
      <point x="193" y="257" type="curve" smooth="yes"/>
      <point x="480" y="257" type="line" smooth="yes"/>
      <point x="512" y="257"/>
      <point x="550" y="292"/>
      <point x="550" y="353" type="curve" smooth="yes"/>
      <point x="550" y="648" type="line" smooth="yes"/>
      <point x="550" y="677"/>
      <point x="529" y="699"/>
      <point x="496" y="699" type="curve" smooth="yes"/>
      <point x="197" y="699" type="line" smooth="yes"/>
      <point x="189.541" y="699"/>
      <point x="183.242" y="693.205"/>
      <point x="180.262" y="684.016" type="curve"/>
      <point x="176.845" y="693.109"/>
      <point x="161.751" y="700"/>
      <point x="139" y="700" type="curve" smooth="yes"/>
      <point x="116" y="700"/>
      <point x="100" y="692"/>
      <point x="100" y="673" type="curve" smooth="yes"/>
      <point x="100" y="20" type="line" smooth="yes"/>
      <point x="100" y="9"/>
      <point x="109" y="0"/>
    </contour>
    <contour>
      <point x="181" y="308.132" type="curve"/>
      <point x="181" y="656.181" type="line"/>
      <point x="185.49" y="644.416"/>
      <point x="195" y="643"/>
      <point x="204" y="643" type="curve" smooth="yes"/>
      <point x="443" y="646" type="line" smooth="yes"/>
      <point x="463" y="646"/>
      <point x="470" y="631"/>
      <point x="470" y="602" type="curve" smooth="yes"/>
      <point x="470" y="360" type="line" smooth="yes"/>
      <point x="470" y="328"/>
      <point x="464" y="311"/>
      <point x="435" y="311" type="curve" smooth="yes"/>
      <point x="193" y="311" type="line" smooth="yes"/>
      <point x="188.526" y="311"/>
      <point x="184.461" y="309.979"/>
    </contour>
  </outline>
</glyph>
<glyph name="fa.base.cap" format="2">
  <advance width="581"/>
  <anchor x="250" y="52" name="_fa"/>
  <anchor x="317" y="5" name="haa"/>
  <anchor x="301" y="10" name="haa.acute"/>
  <anchor x="518" y="250" name="hee"/>
  <anchor x="342" y="-6" name="hwa"/>
  <anchor x="453" y="37" name="ri"/>
  <anchor x="416" y="475" name="ring"/>
  <anchor x="265" y="264" name="top"/>
  <outline>
    <contour>
      <point x="120" y="0" type="curve" smooth="yes"/>
      <point x="457" y="0" type="line" smooth="yes"/>
      <point x="471" y="0"/>
      <point x="481" y="10"/>
      <point x="481" y="24" type="curve" smooth="yes"/>
      <point x="481" y="38"/>
      <point x="471" y="48"/>
      <point x="457" y="48" type="curve" smooth="yes"/>
      <point x="181" y="48" type="line"/>
      <point x="181" y="680" type="line" smooth="yes"/>
      <point x="181" y="691"/>
      <point x="165" y="700"/>
      <point x="139" y="700" type="curve" smooth="yes"/>
      <point x="116" y="700"/>
      <point x="100" y="692"/>
      <point x="100" y="673" type="curve" smooth="yes"/>
      <point x="100" y="20" type="line" smooth="yes"/>
      <point x="100" y="9"/>
      <point x="109" y="0"/>
    </contour>
    <contour>
      <point x="278" y="44" type="line"/>
      <point x="348" y="44" type="line"/>
      <point x="348" y="345" type="line" smooth="yes"/>
      <point x="348" y="375"/>
      <point x="326" y="395"/>
      <point x="314" y="395" type="curve" smooth="yes"/>
      <point x="158" y="395" type="line"/>
      <point x="159" y="354" type="line"/>
      <point x="255" y="354" type="line" smooth="yes"/>
      <point x="268" y="354"/>
      <point x="278" y="344"/>
      <point x="278" y="331" type="curve" smooth="yes"/>
    </contour>
  </outline>
</glyph>
<glyph name="fya-ethiopic.etcp" format="2">
  <advance width="565"/>
  <outline>
    <contour>
      <point x="116" y="-2" type="curve" smooth="yes"/>
      <point x="445" y="-2" type="line" smooth="yes"/>
      <point x="477" y="-2"/>
      <point x="501" y="27"/>
      <point x="501" y="64" type="curve" smooth="yes"/>
      <point x="501" y="97" type="line"/>
      <point x="412" y="99" type="line"/>
      <point x="412" y="77" type="line" smooth="yes"/>
      <point x="412" y="63"/>
      <point x="402" y="51"/>
      <point x="390" y="51" type="curve" smooth="yes"/>
      <point x="171" y="51" type="line" smooth="yes"/>
      <point x="159" y="51"/>
      <point x="149" y="63"/>
      <point x="149" y="77" type="curve" smooth="yes"/>
      <point x="149" y="622" type="line" smooth="yes"/>
      <point x="149" y="636"/>
      <point x="139" y="648"/>
      <point x="127" y="648" type="curve" smooth="yes"/>
      <point x="105" y="648" type="line"/>
      <point x="105" y="671" type="line"/>
      <point x="216" y="671" type="line"/>
      <point x="215" y="725" type="line"/>
      <point x="105" y="725" type="line"/>
      <point x="105" y="768" type="line" smooth="yes"/>
      <point x="105" y="782"/>
      <point x="95" y="794"/>
      <point x="83" y="794" type="curve" smooth="yes"/>
      <point x="82" y="794" type="line" smooth="yes"/>
      <point x="70" y="794"/>
      <point x="60" y="782"/>
      <point x="60" y="768" type="curve" smooth="yes"/>
      <point x="60" y="625" type="line"/>
      <point x="60.154" y="625" type="line"/>
      <point x="60" y="622" type="line"/>
      <point x="60" y="64" type="line" smooth="yes"/>
      <point x="60" y="27"/>
      <point x="84" y="-2"/>
    </contour>
    <contour>
      <point x="294" y="55" type="line"/>
      <point x="339" y="55" type="line"/>
      <point x="339" y="200" type="line" smooth="yes"/>
      <point x="339" y="214"/>
      <point x="329" y="226"/>
      <point x="317" y="226" type="curve" smooth="yes"/>
      <point x="152" y="226" type="line"/>
      <point x="153" y="172" type="line"/>
      <point x="294" y="172" type="line"/>
    </contour>
    <contour>
      <point x="416" y="99" type="curve" smooth="yes"/>
      <point x="450" y="99"/>
      <point x="504" y="148"/>
      <point x="505" y="206" type="curve" smooth="yes"/>
      <point x="507" y="266"/>
      <point x="469" y="317"/>
      <point x="420" y="317" type="curve" smooth="yes"/>
      <point x="415" y="317" type="line"/>
      <point x="415" y="275" type="line"/>
      <point x="420" y="275" type="line" smooth="yes"/>
      <point x="456" y="275"/>
      <point x="474" y="245"/>
      <point x="472" y="207" type="curve" smooth="yes"/>
      <point x="471" y="168"/>
      <point x="448" y="141"/>
      <point x="416" y="141" type="curve" smooth="yes"/>
      <point x="415" y="141"/>
      <point x="414" y="142"/>
      <point x="413" y="142" type="curve"/>
      <point x="413" y="101" type="line"/>
      <point x="413" y="101"/>
      <point x="415" y="99"/>
    </contour>
  </outline>
</glyph>
<glyph name="ga.base" format="2">
  <advance width="521"/>
  <anchor x="369" y="132" name="haa.acute"/>
  <anchor x="212" y="651" name="hat"/>
  <anchor x="240" y="289" name="he"/>
  <anchor x="411" y="21" name="hee"/>
  <anchor x="420" y="54" name="hi"/>
  <anchor x="57" y="289" name="ho.ring"/>
  <anchor x="422" y="287" name="hu"/>
  <anchor x="393" y="8" name="hwa"/>
  <anchor x="217" y="510" name="neck"/>
  <anchor x="137" y="575" name="ring"/>
  <outline>
    <contour>
      <point x="360" y="10" type="curve" smooth="yes"/>
      <point x="401" y="10" type="line" smooth="yes"/>
      <point x="412" y="10"/>
      <point x="421" y="19"/>
      <point x="421" y="30" type="curve" smooth="yes"/>
      <point x="421" y="459" type="line" smooth="yes"/>
      <point x="421" y="488"/>
      <point x="399" y="510"/>
      <point x="370" y="510" type="curve" smooth="yes"/>
      <point x="71" y="510" type="line" smooth="yes"/>
      <point x="42" y="510"/>
      <point x="20" y="488"/>
      <point x="20" y="459" type="curve" smooth="yes"/>
      <point x="20" y="434" type="line"/>
      <point x="51" y="434" type="line"/>
      <point x="51" y="449" type="line" smooth="yes"/>
      <point x="51" y="460"/>
      <point x="60" y="469"/>
      <point x="71" y="469" type="curve" smooth="yes"/>
      <point x="320" y="469" type="line" smooth="yes"/>
      <point x="331" y="469"/>
      <point x="340" y="460"/>
      <point x="340" y="449" type="curve" smooth="yes"/>
      <point x="340" y="30" type="line" smooth="yes"/>
      <point x="340" y="19"/>
      <point x="349" y="10"/>
    </contour>
  </outline>
</glyph>
